<?xml version="1.0" encoding="UTF-8"?>
<svg xmlns="http://www.w3.org/2000/svg" xmlns:xlink="http://www.w3.org/1999/xlink" width="128px" height="128px" viewBox="0 0 128 128" version="1.1">
<defs>
<clipPath id="clip1">
  <path d="M 41.792969 38.398438 L 86 38.398438 L 86 89.089844 L 41.792969 89.089844 Z M 41.792969 38.398438 "/>
</clipPath>
<clipPath id="clip2">
  <path d="M 41.792969 38.398438 L 86 38.398438 L 86 89.089844 L 41.792969 89.089844 Z M 41.792969 38.398438 "/>
</clipPath>
<clipPath id="clip3">
  <path d="M 66.730469 61.644531 L 67.234375 61.644531 L 67.234375 62.054688 L 66.730469 62.054688 Z M 66.730469 61.644531 "/>
</clipPath>
<clipPath id="clip4">
  <path d="M 67.226562 61.773438 C 66.996094 62.128906 66.789062 62.054688 66.765625 62.003906 C 66.714844 61.925781 66.738281 61.722656 66.816406 61.671875 C 66.894531 61.617188 67.148438 61.671875 67.148438 61.671875 "/>
</clipPath>
</defs>
<g id="surface1">
<g clip-path="url(#clip1)" clip-rule="nonzero">
<path style=" stroke:none;fill-rule:nonzero;fill:rgb(0%,0%,0%);fill-opacity:1;" d="M 42.070312 81.648438 C 42.230469 81.839844 42.359375 81.949219 42.394531 82.007812 C 42.398438 82.03125 42.417969 82.039062 42.421875 82.058594 C 42.425781 82.078125 42.429688 82.09375 42.441406 82.109375 L 42.464844 82.152344 C 42.464844 82.152344 42.449219 82.15625 42.445312 82.15625 C 42.441406 82.175781 42.449219 82.183594 42.441406 82.214844 C 42.4375 82.265625 42.429688 82.332031 42.414062 82.394531 C 42.386719 82.53125 42.359375 82.671875 42.339844 82.820312 C 42.292969 83.101562 42.28125 83.417969 42.414062 83.703125 C 42.445312 83.765625 42.484375 83.820312 42.527344 83.871094 C 42.519531 83.933594 42.507812 83.996094 42.503906 84.058594 C 42.503906 84.46875 42.703125 84.738281 42.867188 84.902344 C 42.910156 84.9375 42.957031 84.960938 43 84.984375 C 43.0625 85.074219 43.125 85.160156 43.179688 85.25 C 43.207031 85.289062 43.234375 85.328125 43.25 85.363281 C 43.253906 85.390625 43.261719 85.449219 43.257812 85.449219 C 43.253906 85.464844 43.253906 85.515625 43.242188 85.570312 C 43.234375 85.621094 43.21875 85.6875 43.207031 85.761719 C 43.175781 85.90625 43.117188 86.132812 43.191406 86.414062 C 43.269531 86.683594 43.453125 86.886719 43.613281 87.015625 L 43.621094 87.023438 L 43.664062 87.054688 L 43.703125 87.078125 L 43.757812 87.113281 C 43.808594 87.140625 43.882812 87.175781 43.949219 87.203125 C 44.066406 87.25 44.171875 87.277344 44.285156 87.292969 C 44.308594 87.296875 44.328125 87.296875 44.351562 87.300781 C 44.363281 87.421875 44.386719 87.542969 44.425781 87.652344 C 44.496094 87.847656 44.601562 88.015625 44.71875 88.152344 C 44.957031 88.429688 45.238281 88.609375 45.53125 88.734375 C 45.824219 88.851562 46.132812 88.921875 46.460938 88.894531 C 46.625 88.882812 46.796875 88.84375 46.957031 88.753906 C 46.988281 88.734375 47.019531 88.714844 47.050781 88.691406 C 47.113281 88.726562 47.175781 88.761719 47.246094 88.789062 C 47.46875 88.871094 47.71875 88.832031 47.886719 88.746094 C 47.925781 88.726562 47.960938 88.707031 47.996094 88.683594 C 48.890625 89.601562 50.175781 88.625 50.535156 87.65625 C 50.621094 87.429688 50.457031 87.054688 50.402344 86.855469 C 50.160156 86.011719 50.308594 84.875 50.476562 84.050781 C 50.796875 82.5 51.160156 80.964844 51.800781 79.511719 C 52.964844 76.871094 54.546875 74.28125 56.476562 72.140625 C 58.144531 70.289062 59.71875 68.238281 61.199219 66.226562 C 61.273438 66.214844 61.34375 66.183594 61.410156 66.128906 C 61.742188 65.839844 62.03125 65.511719 62.304688 65.175781 C 62.6875 65.4375 63.082031 65.671875 63.421875 66.003906 C 63.683594 66.261719 63.941406 66.582031 64.273438 66.761719 C 64.871094 67.089844 65.589844 65.824219 65.871094 65.480469 C 67.070312 64.003906 68.449219 62.699219 69.59375 61.164062 C 70.828125 59.507812 72.046875 57.984375 73.632812 56.644531 C 76.332031 54.375 79.449219 52.703125 81.554688 49.792969 C 83.800781 46.683594 86.253906 42.4375 85.714844 38.476562 C 85.714844 38.449219 85.710938 38.425781 85.710938 38.398438 C 83.285156 39.277344 80.917969 41.644531 78.992188 43.292969 C 76.566406 45.363281 73.925781 47.074219 71.296875 48.867188 C 69.011719 50.421875 67.066406 52.386719 65.035156 54.246094 C 63.214844 55.921875 61.015625 57.320312 59.628906 59.40625 C 59.390625 59.347656 59.148438 59.386719 58.90625 59.566406 C 58.859375 59.605469 58.824219 59.648438 58.792969 59.691406 C 58.277344 59.765625 57.914062 60.214844 57.789062 60.714844 C 57.59375 60.730469 57.410156 60.785156 57.238281 60.902344 C 56.964844 61.097656 56.8125 61.386719 56.773438 61.710938 C 55.203125 62.820312 53.910156 64.550781 52.578125 65.910156 C 50.996094 67.527344 49.539062 69.179688 48.234375 71.027344 C 46.898438 72.921875 45.777344 75.085938 44.199219 76.789062 C 43.945312 77.0625 43.730469 77.347656 43.554688 77.675781 C 43.335938 78.082031 42.984375 78.214844 42.617188 78.457031 C 42.097656 78.796875 42.085938 79.570312 42.046875 80.109375 C 42.039062 80.210938 42.066406 80.289062 42.105469 80.347656 C 42.054688 80.40625 42.015625 80.488281 41.96875 80.5625 C 41.828125 80.804688 41.824219 81.238281 41.964844 81.480469 C 42 81.535156 42.035156 81.59375 42.070312 81.648438 "/>
</g>
<path style=" stroke:none;fill-rule:nonzero;fill:rgb(90.196078%,90.196078%,90.196078%);fill-opacity:1;" d="M 85.023438 40.566406 C 84.257812 43.457031 82.8125 46.089844 81.304688 48.6875 C 79.582031 51.660156 76.464844 53.445312 73.808594 55.480469 C 71.171875 57.507812 69.5625 60.15625 67.398438 62.613281 C 66.503906 63.628906 65.574219 64.601562 64.703125 65.636719 C 64.53125 65.84375 64.445312 65.863281 64.46875 65.898438 C 64.304688 65.75 64.148438 65.589844 63.988281 65.433594 C 63.714844 65.164062 63.414062 64.96875 63.109375 64.769531 C 63.679688 63.699219 64.597656 62.882812 65.484375 62.070312 C 66.601562 61.054688 67.621094 59.941406 68.660156 58.84375 C 70.875 56.503906 73.050781 54.210938 75.621094 52.257812 C 79.738281 49.140625 82.699219 45.089844 85.023438 40.566406 "/>
<path style=" stroke:none;fill-rule:nonzero;fill:rgb(50.196078%,50.196078%,50.196078%);fill-opacity:1;" d="M 62.335938 58.902344 C 62.867188 58.300781 63.222656 57.742188 63.128906 57.660156 C 63.039062 57.570312 62.535156 57.996094 62 58.601562 C 61.464844 59.207031 61.113281 59.765625 61.207031 59.847656 C 61.296875 59.929688 61.804688 59.507812 62.335938 58.902344 Z M 66.570312 55.175781 C 67.765625 54.042969 68.765625 53.171875 68.683594 53.058594 C 68.621094 52.964844 67.46875 53.703125 66.257812 54.84375 C 65.066406 55.984375 64.117188 56.9375 64.207031 57.035156 C 64.285156 57.121094 65.367188 56.324219 66.570312 55.175781 Z M 74.792969 48.296875 C 76.929688 46.769531 78.480469 45.277344 78.402344 45.199219 C 78.304688 45.097656 76.65625 46.40625 74.523438 47.933594 C 72.371094 49.476562 70.855469 50.964844 70.921875 51.050781 C 71.015625 51.160156 72.675781 49.816406 74.792969 48.296875 Z M 84.871094 39.855469 C 84.484375 40.683594 84.09375 41.511719 83.636719 42.308594 C 82.878906 43.628906 81.886719 44.859375 81.023438 46.113281 C 79.25 48.710938 77.074219 50.519531 74.609375 52.429688 C 72.160156 54.328125 70.09375 56.628906 67.96875 58.875 C 66.953125 59.949219 65.933594 61.007812 64.839844 62.007812 C 64.027344 62.746094 63.230469 63.519531 62.710938 64.488281 C 62.707031 64.484375 62.703125 64.484375 62.699219 64.480469 C 62.691406 64.417969 62.671875 64.359375 62.628906 64.300781 C 62.625 64.289062 62.621094 64.28125 62.617188 64.265625 C 62.328125 63.632812 61.398438 60.929688 60.304688 59.839844 C 61.644531 57.8125 63.828125 56.425781 65.609375 54.816406 C 67.855469 52.785156 69.976562 50.722656 72.5 49.019531 C 74.652344 47.566406 76.824219 46.160156 78.824219 44.5 C 80.765625 42.886719 82.707031 41.1875 84.871094 39.855469 "/>
<path style=" stroke:none;fill-rule:nonzero;fill:rgb(75.686275%,15.294118%,17.647059%);fill-opacity:1;" d="M 61.835938 64.480469 C 61.742188 64.59375 61.648438 64.707031 61.554688 64.820312 C 61.425781 63.09375 60.40625 61.628906 59.308594 60.308594 C 59.320312 60.289062 59.332031 60.273438 59.335938 60.253906 C 59.890625 59.953125 61.410156 63.5 61.835938 64.480469 "/>
<path style=" stroke:none;fill-rule:nonzero;fill:rgb(75.686275%,15.294118%,17.647059%);fill-opacity:1;" d="M 58.847656 60.503906 C 59.414062 61.179688 59.964844 61.890625 60.382812 62.65625 C 59.882812 62.003906 59.257812 61.449219 58.542969 61.078125 C 58.546875 60.9375 58.589844 60.796875 58.671875 60.664062 C 58.71875 60.582031 58.78125 60.535156 58.847656 60.503906 "/>
<path style=" stroke:none;fill-rule:nonzero;fill:rgb(75.686275%,15.294118%,17.647059%);fill-opacity:1;" d="M 61.082031 65.113281 C 61.085938 65.171875 61.089844 65.226562 61.085938 65.285156 C 60.261719 63.832031 58.90625 62.714844 57.59375 61.707031 C 57.609375 61.660156 57.640625 61.613281 57.683594 61.574219 C 57.6875 61.574219 57.730469 61.550781 57.746094 61.535156 C 57.746094 61.542969 57.832031 61.507812 57.828125 61.507812 C 57.867188 61.5 57.949219 61.5 57.996094 61.507812 C 58.09375 61.523438 58.191406 61.511719 58.277344 61.472656 C 59.648438 62.152344 60.667969 63.636719 61.0625 65.070312 C 61.066406 65.085938 61.074219 65.097656 61.082031 65.113281 "/>
<path style=" stroke:none;fill-rule:nonzero;fill:rgb(86.666667%,66.666667%,44.705882%);fill-opacity:1;" d="M 59.511719 66.304688 C 59.582031 66.105469 59.613281 65.890625 59.605469 65.6875 C 59.574219 65.277344 59.421875 64.960938 59.328125 64.679688 C 59.273438 64.523438 59.234375 64.375 59.203125 64.234375 C 59.292969 64.300781 59.375 64.359375 59.449219 64.414062 C 59.847656 64.855469 60.199219 65.332031 60.476562 65.855469 C 57.898438 69.3125 54.890625 72.390625 52.683594 76.121094 C 52.359375 76.671875 52.046875 77.230469 51.753906 77.792969 C 51.773438 77.726562 51.789062 77.667969 51.808594 77.597656 C 51.871094 77.363281 51.976562 77.117188 52.0625 76.859375 C 52.277344 76.367188 52.46875 75.796875 52.71875 75.238281 C 52.84375 74.957031 52.984375 74.671875 53.15625 74.410156 C 53.316406 74.148438 53.550781 73.902344 53.777344 73.851562 L 54.015625 73.792969 L 53.933594 73.582031 C 53.878906 73.4375 53.832031 73.285156 53.703125 73.128906 C 53.644531 73.050781 53.542969 72.972656 53.425781 72.9375 C 53.300781 72.90625 53.183594 72.917969 53.097656 72.941406 C 52.917969 72.992188 52.792969 73.058594 52.679688 73.078125 C 52.648438 73.085938 52.625 73.089844 52.597656 73.089844 C 52.699219 72.882812 52.785156 72.664062 52.839844 72.449219 C 52.882812 72.300781 52.925781 72.15625 52.964844 72.007812 C 53.003906 71.878906 53.058594 71.753906 53.125 71.617188 C 53.257812 71.34375 53.40625 71.066406 53.535156 70.761719 C 53.597656 70.605469 53.660156 70.449219 53.695312 70.261719 C 53.714844 70.191406 53.714844 69.992188 53.695312 69.941406 C 53.679688 69.875 53.664062 69.84375 53.652344 69.789062 C 53.625 69.738281 53.605469 69.6875 53.570312 69.632812 C 53.515625 69.5625 53.433594 69.484375 53.332031 69.445312 C 53.226562 69.40625 53.121094 69.40625 53.042969 69.425781 C 52.875 69.457031 52.757812 69.527344 52.652344 69.597656 C 52.441406 69.734375 52.269531 69.890625 52.097656 70.042969 C 51.992188 70.136719 51.894531 70.234375 51.792969 70.328125 C 51.871094 70.136719 51.957031 69.949219 52.042969 69.816406 C 52.277344 69.472656 52.695312 69.265625 53.050781 68.914062 C 53.128906 68.824219 53.195312 68.761719 53.277344 68.648438 C 53.34375 68.546875 53.414062 68.445312 53.476562 68.34375 C 53.519531 68.238281 53.570312 68.136719 53.613281 68.035156 C 53.652344 67.941406 53.691406 67.84375 53.730469 67.75 C 53.765625 67.660156 53.816406 67.5625 53.859375 67.46875 L 53.890625 67.402344 L 53.898438 67.382812 L 53.902344 67.378906 L 53.921875 67.355469 L 53.996094 67.246094 C 54.113281 67.105469 54.25 66.976562 54.394531 66.859375 C 54.683594 66.625 54.996094 66.421875 55.289062 66.214844 C 55.582031 66 55.863281 65.796875 56.074219 65.492188 C 56.136719 65.40625 56.152344 65.371094 56.199219 65.265625 C 56.226562 65.1875 56.257812 65.109375 56.273438 65.027344 C 56.292969 64.949219 56.304688 64.855469 56.285156 64.746094 C 56.269531 64.691406 56.242188 64.636719 56.191406 64.589844 C 56.140625 64.546875 56.078125 64.523438 56.03125 64.515625 C 55.828125 64.5 55.707031 64.5625 55.574219 64.609375 C 55.53125 64.628906 55.484375 64.652344 55.4375 64.671875 C 55.480469 64.519531 55.546875 64.378906 55.605469 64.257812 C 55.699219 64.074219 55.777344 63.917969 55.835938 63.785156 C 55.851562 63.742188 55.867188 63.710938 55.878906 63.675781 C 56.28125 63.21875 56.6875 62.769531 57.183594 62.398438 C 57.492188 62.636719 57.796875 62.878906 58.097656 63.128906 C 58.066406 63.375 58.003906 63.632812 57.898438 63.894531 C 57.777344 64.195312 57.601562 64.515625 57.445312 64.867188 L 57.402344 64.960938 L 57.386719 65 L 57.378906 65.027344 L 57.363281 65.078125 C 57.339844 65.152344 57.316406 65.21875 57.304688 65.292969 C 57.289062 65.367188 57.277344 65.433594 57.269531 65.492188 C 57.265625 65.5 57.265625 65.5 57.265625 65.5 L 57.257812 65.507812 C 57.191406 65.550781 57.058594 65.617188 56.957031 65.671875 C 56.84375 65.730469 56.738281 65.789062 56.628906 65.84375 C 56.199219 66.085938 55.855469 66.394531 55.628906 66.6875 C 55.394531 66.976562 55.261719 67.25 55.183594 67.4375 C 55.113281 67.625 55.085938 67.734375 55.113281 67.753906 C 55.140625 67.769531 55.21875 67.683594 55.339844 67.519531 C 55.460938 67.367188 55.625 67.140625 55.871094 66.898438 C 56.109375 66.660156 56.425781 66.410156 56.828125 66.210938 C 56.933594 66.160156 57.042969 66.109375 57.152344 66.058594 C 57.261719 66 57.367188 65.960938 57.515625 65.867188 L 57.570312 65.828125 C 57.597656 65.800781 57.621094 65.773438 57.644531 65.742188 C 57.691406 65.679688 57.691406 65.625 57.710938 65.570312 C 57.722656 65.5 57.730469 65.4375 57.742188 65.386719 C 57.753906 65.328125 57.777344 65.269531 57.792969 65.214844 L 57.808594 65.171875 L 57.8125 65.152344 L 57.816406 65.140625 L 57.859375 65.050781 C 58.007812 64.714844 58.179688 64.394531 58.304688 64.050781 C 58.378906 63.84375 58.429688 63.640625 58.457031 63.441406 C 58.597656 63.5625 58.734375 63.683594 58.867188 63.808594 L 58.859375 63.902344 C 58.84375 64.171875 58.890625 64.480469 58.980469 64.785156 C 59.0625 65.09375 59.1875 65.398438 59.191406 65.703125 C 59.191406 65.855469 59.167969 66.003906 59.109375 66.15625 C 59.070312 66.226562 59.054688 66.285156 59 66.371094 L 58.925781 66.496094 L 58.84375 66.601562 C 58.613281 66.902344 58.390625 67.234375 58.128906 67.554688 C 57.734375 68.03125 57.355469 68.492188 57.003906 68.921875 C 56.824219 69.132812 56.660156 69.347656 56.507812 69.5625 C 56.398438 69.714844 56.289062 69.855469 56.1875 70 C 56.183594 69.996094 56.179688 69.996094 56.171875 69.988281 L 56.097656 69.9375 C 56.089844 69.925781 56.074219 69.914062 56.058594 69.902344 L 55.882812 69.773438 L 55.792969 69.886719 C 55.441406 70.316406 55.117188 70.660156 54.921875 70.925781 C 54.738281 71.1875 54.652344 71.347656 54.679688 71.371094 C 54.703125 71.390625 54.839844 71.269531 55.066406 71.042969 C 55.273438 70.851562 55.570312 70.585938 55.921875 70.234375 L 55.960938 70.269531 L 56.035156 70.328125 L 56.054688 70.34375 L 56.054688 70.347656 C 56.054688 70.347656 56.054688 70.347656 56.058594 70.34375 L 56.371094 70.371094 C 56.515625 70.191406 56.667969 70.003906 56.828125 69.804688 C 56.984375 69.605469 57.152344 69.402344 57.335938 69.191406 C 57.699219 68.777344 58.085938 68.316406 58.484375 67.835938 C 58.746094 67.511719 58.976562 67.164062 59.214844 66.847656 C 59.242188 66.804688 59.265625 66.777344 59.304688 66.71875 L 59.375 66.59375 C 59.425781 66.519531 59.46875 66.398438 59.511719 66.304688 "/>
<path style=" stroke:none;fill-rule:nonzero;fill:rgb(44.705882%,31.764706%,23.137255%);fill-opacity:1;" d="M 49.347656 71.859375 C 49.714844 71.285156 49.921875 70.90625 49.875 70.867188 C 49.824219 70.828125 49.527344 71.136719 49.082031 71.683594 C 48.882812 71.964844 48.640625 72.304688 48.394531 72.691406 C 48.152344 73.078125 47.886719 73.507812 47.625 73.960938 C 47.492188 74.191406 47.363281 74.414062 47.238281 74.628906 C 47.121094 74.835938 46.988281 75.03125 46.867188 75.21875 C 46.617188 75.597656 46.386719 75.945312 46.214844 76.253906 C 46.042969 76.554688 45.925781 76.835938 45.875 77.019531 C 45.828125 77.210938 45.8125 77.320312 45.84375 77.332031 C 45.871094 77.339844 45.941406 77.257812 46.039062 77.089844 C 46.140625 76.921875 46.285156 76.703125 46.484375 76.421875 C 46.691406 76.148438 46.9375 75.824219 47.207031 75.457031 C 47.34375 75.269531 47.488281 75.074219 47.621094 74.851562 C 47.753906 74.640625 47.878906 74.417969 48.015625 74.191406 C 48.535156 73.28125 49.007812 72.457031 49.347656 71.859375 Z M 50.246094 79.371094 C 50.308594 79.214844 50.332031 79.117188 50.308594 79.105469 C 50.285156 79.09375 50.222656 79.160156 50.113281 79.292969 C 50.007812 79.433594 49.855469 79.605469 49.652344 79.835938 C 49.449219 80.066406 49.191406 80.332031 48.933594 80.679688 C 48.867188 80.765625 48.804688 80.859375 48.742188 80.964844 C 48.570312 81.261719 48.429688 81.351562 48.542969 81.691406 C 48.570312 81.773438 48.601562 81.792969 48.632812 81.835938 C 48.6875 81.890625 48.734375 81.933594 48.75 81.953125 C 48.6875 82.273438 48.5 82.617188 48.289062 82.964844 C 47.894531 83.613281 47.523438 84.253906 47.335938 84.996094 C 47.304688 85.125 47.285156 85.261719 47.289062 85.402344 C 47.269531 85.394531 47.246094 85.390625 47.222656 85.382812 C 47.007812 85.339844 46.917969 85.335938 46.886719 85.320312 C 46.878906 85.316406 46.871094 85.324219 46.828125 85.230469 C 46.800781 85.175781 46.777344 85.105469 46.757812 85.035156 C 46.84375 84.835938 46.925781 84.644531 47.007812 84.460938 C 47.101562 84.234375 47.160156 84.011719 47.234375 83.804688 C 47.375 83.394531 47.46875 83.027344 47.550781 82.726562 C 47.71875 82.125 47.800781 81.769531 47.757812 81.753906 C 47.714844 81.734375 47.550781 82.066406 47.316406 82.648438 C 47.199219 82.9375 47.074219 83.296875 46.910156 83.6875 C 46.828125 83.886719 46.753906 84.101562 46.652344 84.3125 C 46.628906 84.367188 46.597656 84.421875 46.570312 84.476562 L 46.5625 84.457031 L 46.5 84.328125 C 46.464844 84.273438 46.4375 84.21875 46.402344 84.164062 C 46.328125 84.03125 46.238281 83.910156 46.148438 83.800781 C 46.054688 83.542969 46.015625 83.28125 46.089844 83.035156 L 46.148438 82.925781 C 46.308594 82.597656 46.5625 82.246094 46.746094 81.910156 C 46.933594 81.570312 47.109375 81.242188 47.277344 80.929688 C 47.628906 80.316406 47.957031 79.765625 48.214844 79.277344 C 48.488281 78.804688 48.652344 78.402344 48.765625 78.121094 C 48.878906 77.84375 48.929688 77.679688 48.902344 77.667969 C 48.871094 77.652344 48.769531 77.785156 48.609375 78.042969 C 48.445312 78.300781 48.234375 78.683594 47.9375 79.125 C 47.652344 79.570312 47.289062 80.109375 46.917969 80.714844 C 46.738281 81.027344 46.554688 81.351562 46.363281 81.6875 C 46.167969 82.03125 45.941406 82.324219 45.734375 82.734375 C 45.710938 82.777344 45.691406 82.828125 45.664062 82.875 C 45.664062 82.875 45.664062 82.882812 45.660156 82.886719 C 45.636719 83.007812 45.609375 83.125 45.597656 83.238281 C 45.601562 83.285156 45.601562 83.332031 45.605469 83.375 C 45.53125 83.34375 45.453125 83.316406 45.386719 83.304688 C 45.308594 83.289062 45.238281 83.285156 45.171875 83.285156 C 45.296875 83.152344 45.398438 82.953125 45.429688 82.710938 C 45.445312 82.566406 45.4375 82.402344 45.390625 82.230469 C 45.441406 82.191406 45.496094 82.148438 45.542969 82.089844 C 45.6875 81.925781 45.773438 81.703125 45.792969 81.5 C 45.796875 81.453125 45.796875 81.40625 45.796875 81.363281 C 46.183594 80.921875 46.445312 80.449219 46.675781 80.023438 C 46.945312 79.496094 47.15625 79.019531 47.347656 78.636719 C 47.714844 77.859375 48.003906 77.4375 47.960938 77.398438 C 47.925781 77.367188 47.542969 77.742188 47.097656 78.503906 C 46.871094 78.875 46.628906 79.339844 46.335938 79.839844 C 46.152344 80.152344 45.949219 80.484375 45.703125 80.796875 C 45.65625 80.660156 45.597656 80.527344 45.535156 80.40625 C 45.535156 80.398438 45.527344 80.386719 45.527344 80.378906 C 45.535156 80.300781 45.542969 80.21875 45.558594 80.128906 C 45.726562 79.339844 46.160156 78.648438 46.601562 78.066406 C 47.050781 77.480469 47.496094 76.976562 47.855469 76.539062 C 48.21875 76.097656 48.492188 75.71875 48.660156 75.441406 C 48.820312 75.167969 48.890625 75.003906 48.867188 74.988281 C 48.839844 74.96875 48.71875 75.097656 48.515625 75.347656 C 48.308594 75.578125 48.011719 75.921875 47.617188 76.324219 C 47.230469 76.734375 46.753906 77.21875 46.273438 77.8125 C 45.832031 78.359375 45.382812 79.035156 45.164062 79.859375 C 44.980469 79.648438 44.8125 79.496094 44.792969 79.410156 C 44.789062 79.40625 44.785156 79.402344 44.777344 79.402344 C 44.777344 79.398438 44.761719 79.394531 44.761719 79.363281 L 44.75 79.289062 L 44.730469 79.253906 L 44.703125 79.238281 C 44.722656 79.191406 44.765625 79.144531 44.785156 79.082031 C 44.820312 78.949219 44.886719 78.800781 44.941406 78.671875 C 45.0625 78.40625 45.171875 78.183594 45.230469 78.007812 C 45.28125 77.835938 45.28125 77.730469 45.238281 77.699219 C 45.191406 77.667969 45.09375 77.726562 44.960938 77.835938 C 44.832031 77.945312 44.648438 78.121094 44.453125 78.371094 C 44.398438 78.433594 44.347656 78.503906 44.296875 78.582031 C 44.25 78.660156 44.199219 78.742188 44.152344 78.84375 C 44.105469 78.9375 44.070312 79.066406 44.042969 79.203125 L 44.039062 79.214844 L 44.039062 79.261719 L 44.035156 79.277344 L 44.035156 79.390625 C 44.03125 79.40625 44.035156 79.449219 44.046875 79.496094 C 44.054688 79.539062 44.0625 79.585938 44.074219 79.625 C 44.167969 79.949219 44.355469 80.132812 44.488281 80.296875 C 44.550781 80.378906 44.617188 80.457031 44.671875 80.535156 L 44.691406 80.5625 C 44.691406 80.5625 44.695312 80.566406 44.699219 80.574219 L 44.742188 80.644531 L 44.8125 80.773438 C 44.9375 81.015625 45.015625 81.265625 45.007812 81.433594 C 45.007812 81.515625 44.992188 81.570312 44.960938 81.621094 C 44.929688 81.671875 44.867188 81.722656 44.796875 81.769531 L 44.359375 82.058594 L 44.679688 82.324219 C 44.769531 82.398438 44.839844 82.550781 44.855469 82.691406 C 44.878906 82.839844 44.863281 82.96875 44.828125 83.070312 C 44.722656 83.417969 44.558594 83.453125 44.933594 83.675781 C 45.128906 83.792969 45.398438 83.8125 45.539062 84 C 45.636719 84.125 45.722656 84.289062 45.804688 84.476562 C 45.898438 84.679688 45.941406 84.828125 45.988281 85.089844 C 46.015625 85.21875 46.039062 85.351562 46.097656 85.515625 C 46.148438 85.664062 46.289062 85.925781 46.542969 86.039062 C 46.722656 86.121094 46.878906 86.140625 46.972656 86.15625 C 46.972656 86.167969 46.972656 86.183594 46.972656 86.191406 L 47.007812 86.675781 L 47.421875 86.625 C 47.832031 86.574219 48.144531 86.535156 48.363281 86.605469 L 48.886719 86.777344 L 48.886719 86.242188 C 48.886719 85.820312 48.867188 85.425781 48.902344 85.089844 C 48.90625 85.003906 48.910156 84.921875 48.914062 84.835938 C 48.921875 84.757812 48.941406 84.679688 48.953125 84.609375 C 48.976562 84.460938 48.996094 84.324219 49.015625 84.191406 C 49.136719 83.6875 49.183594 83.367188 49.101562 83.324219 C 49.019531 83.289062 48.816406 83.546875 48.550781 84.039062 C 48.496094 84.167969 48.441406 84.3125 48.382812 84.46875 C 48.355469 84.550781 48.316406 84.628906 48.296875 84.71875 C 48.28125 84.808594 48.261719 84.898438 48.242188 84.992188 C 48.183594 85.238281 48.15625 85.5 48.136719 85.773438 C 48.015625 85.765625 47.894531 85.765625 47.785156 85.773438 C 47.734375 85.714844 47.699219 85.65625 47.679688 85.585938 C 47.644531 85.453125 47.667969 85.28125 47.71875 85.097656 C 47.777344 84.917969 47.863281 84.726562 47.957031 84.511719 L 47.960938 84.496094 C 48.105469 84.085938 48.394531 83.664062 48.675781 83.195312 C 48.890625 82.839844 49.101562 82.46875 49.175781 82.042969 C 49.1875 81.976562 49.199219 81.910156 49.179688 81.84375 C 49.167969 81.808594 49.15625 81.773438 49.136719 81.742188 C 49.121094 81.710938 49.101562 81.695312 49.085938 81.675781 C 49.011719 81.597656 48.964844 81.570312 48.941406 81.546875 C 48.941406 81.546875 48.933594 81.542969 48.933594 81.539062 L 48.9375 81.527344 L 48.949219 81.507812 L 48.96875 81.433594 C 48.988281 81.386719 49.003906 81.339844 49.019531 81.292969 C 49.039062 81.246094 49.066406 81.203125 49.09375 81.15625 C 49.136719 81.0625 49.183594 80.976562 49.246094 80.894531 C 49.460938 80.554688 49.691406 80.261719 49.867188 80.003906 C 50.046875 79.753906 50.183594 79.523438 50.246094 79.371094 Z M 52 72.773438 C 52.207031 72.28125 52.316406 71.96875 52.261719 71.9375 C 52.203125 71.90625 51.996094 72.175781 51.71875 72.625 C 51.4375 73.082031 51.085938 73.722656 50.695312 74.425781 C 50.296875 75.121094 49.921875 75.738281 49.628906 76.15625 C 49.5625 76.269531 49.488281 76.363281 49.421875 76.449219 C 49.363281 76.53125 49.308594 76.605469 49.265625 76.667969 C 49.179688 76.796875 49.144531 76.875 49.167969 76.894531 C 49.191406 76.921875 49.269531 76.878906 49.390625 76.789062 C 49.453125 76.742188 49.523438 76.6875 49.605469 76.621094 C 49.6875 76.554688 49.777344 76.476562 49.867188 76.371094 C 50.257812 75.96875 50.683594 75.359375 51.089844 74.644531 C 51.488281 73.933594 51.792969 73.261719 52 72.773438 Z M 52.566406 74.550781 C 52.804688 74.171875 52.945312 73.925781 52.894531 73.882812 C 52.855469 73.84375 52.625 74.015625 52.308594 74.363281 C 52 74.714844 51.640625 75.246094 51.300781 75.855469 C 50.964844 76.464844 50.675781 77.015625 50.46875 77.410156 C 50.25 77.808594 50.121094 78.066406 50.175781 78.101562 C 50.226562 78.136719 50.441406 77.949219 50.730469 77.589844 C 51.023438 77.222656 51.363281 76.683594 51.695312 76.078125 C 52.03125 75.472656 52.335938 74.9375 52.566406 74.550781 Z M 56.019531 64.808594 C 56.023438 64.839844 56.019531 64.902344 56.003906 64.960938 C 55.984375 65.023438 55.960938 65.089844 55.929688 65.15625 C 55.914062 65.1875 55.863281 65.292969 55.824219 65.335938 C 55.664062 65.542969 55.386719 65.746094 55.101562 65.941406 C 54.808594 66.132812 54.488281 66.328125 54.164062 66.574219 C 54.003906 66.703125 53.847656 66.835938 53.703125 67.007812 C 53.667969 67.050781 53.636719 67.097656 53.601562 67.144531 C 53.601562 67.144531 53.578125 67.179688 53.574219 67.179688 C 53.574219 67.179688 53.566406 67.199219 53.5625 67.203125 L 53.558594 67.210938 L 53.550781 67.230469 L 53.515625 67.296875 C 53.46875 67.390625 53.417969 67.480469 53.378906 67.578125 C 53.335938 67.679688 53.292969 67.777344 53.246094 67.878906 C 53.207031 67.96875 53.160156 68.0625 53.117188 68.15625 C 53.066406 68.238281 53.011719 68.316406 52.957031 68.398438 C 52.910156 68.464844 52.8125 68.554688 52.742188 68.632812 C 52.667969 68.722656 52.589844 68.765625 52.507812 68.832031 C 52.4375 68.894531 52.332031 68.964844 52.242188 69.035156 C 52.152344 69.097656 52.054688 69.1875 51.957031 69.265625 L 51.890625 69.328125 C 51.890625 69.328125 51.878906 69.335938 51.871094 69.339844 L 51.839844 69.378906 L 51.8125 69.414062 C 51.777344 69.457031 51.742188 69.5 51.703125 69.550781 C 51.539062 69.792969 51.453125 70.015625 51.355469 70.238281 C 51.261719 70.457031 51.167969 70.667969 51.039062 70.832031 L 50.890625 71.027344 L 51.089844 71.152344 C 51.128906 71.171875 51.175781 71.191406 51.21875 71.203125 C 51.253906 71.203125 51.296875 71.207031 51.332031 71.203125 C 51.382812 71.1875 51.433594 71.171875 51.464844 71.15625 C 51.539062 71.121094 51.59375 71.085938 51.644531 71.050781 C 51.742188 70.980469 51.828125 70.898438 51.910156 70.824219 C 52.074219 70.675781 52.238281 70.523438 52.402344 70.375 C 52.5625 70.226562 52.726562 70.085938 52.894531 69.976562 C 52.976562 69.921875 53.066406 69.882812 53.125 69.871094 C 53.1875 69.867188 53.164062 69.863281 53.195312 69.890625 C 53.207031 69.902344 53.21875 69.929688 53.226562 69.953125 C 53.234375 69.976562 53.246094 70.015625 53.246094 70.027344 L 53.261719 70.085938 C 53.261719 70.101562 53.257812 70.101562 53.257812 70.113281 C 53.257812 70.121094 53.253906 70.152344 53.246094 70.183594 C 53.226562 70.308594 53.175781 70.449219 53.117188 70.585938 C 53.003906 70.867188 52.855469 71.136719 52.71875 71.421875 C 52.652344 71.566406 52.578125 71.722656 52.539062 71.886719 C 52.496094 72.035156 52.457031 72.179688 52.414062 72.324219 C 52.339844 72.609375 52.230469 72.859375 52.105469 73.101562 L 52.003906 73.292969 L 52.164062 73.390625 C 52.210938 73.417969 52.261719 73.445312 52.304688 73.46875 C 52.355469 73.488281 52.410156 73.5 52.464844 73.511719 C 52.574219 73.527344 52.679688 73.519531 52.769531 73.5 C 52.953125 73.457031 53.09375 73.382812 53.199219 73.355469 C 53.316406 73.332031 53.316406 73.335938 53.382812 73.402344 C 53.414062 73.4375 53.441406 73.480469 53.464844 73.535156 C 53.34375 73.597656 53.238281 73.679688 53.15625 73.765625 C 53.089844 73.832031 53.035156 73.902344 52.972656 73.976562 C 52.921875 74.050781 52.871094 74.125 52.820312 74.195312 C 52.636719 74.492188 52.496094 74.792969 52.371094 75.089844 C 52.125 75.679688 51.953125 76.234375 51.753906 76.753906 C 51.671875 77.015625 51.578125 77.257812 51.519531 77.507812 C 51.460938 77.753906 51.40625 77.992188 51.355469 78.21875 C 51.304688 78.433594 51.269531 78.648438 51.214844 78.835938 C 51.191406 78.902344 51.175781 78.960938 51.160156 79.019531 C 50.667969 80.109375 50.273438 81.234375 50.03125 82.425781 C 49.824219 83.417969 49.539062 84.367188 49.503906 85.390625 C 49.488281 85.8125 49.503906 86.269531 49.570312 86.691406 C 49.589844 86.933594 49.636719 87.167969 49.71875 87.394531 C 49.542969 88.078125 49.136719 88.300781 48.515625 88.066406 C 48.496094 88.046875 48.476562 88.03125 48.453125 88.015625 C 48.542969 87.640625 48.421875 87.433594 48.363281 87.445312 C 48.28125 87.453125 48.253906 87.667969 48.058594 87.917969 C 47.96875 88.035156 47.820312 88.171875 47.667969 88.199219 C 47.59375 88.214844 47.542969 88.207031 47.492188 88.171875 C 47.441406 88.136719 47.375 88.066406 47.316406 87.96875 L 47.070312 87.585938 L 46.699219 88.003906 C 46.648438 88.058594 46.582031 88.09375 46.417969 88.09375 C 46.265625 88.09375 46.070312 88.042969 45.886719 87.949219 C 45.703125 87.859375 45.527344 87.726562 45.40625 87.578125 C 45.28125 87.425781 45.238281 87.285156 45.261719 87.148438 C 45.269531 87.117188 45.277344 87.082031 45.289062 87.046875 C 45.351562 86.847656 45.449219 86.640625 45.464844 86.441406 C 45.273438 86.351562 45.070312 86.421875 44.867188 86.425781 C 44.519531 86.433594 44.257812 86.402344 44.160156 86.324219 C 44.0625 86.257812 44.027344 86.199219 44.015625 86.167969 C 43.992188 86.140625 43.992188 86.050781 44.015625 85.90625 C 44.035156 85.753906 44.066406 85.582031 44.035156 85.34375 C 44.027344 85.273438 44.019531 85.261719 44.011719 85.21875 L 43.992188 85.152344 L 43.964844 85.089844 C 43.949219 85.050781 43.9375 85.035156 43.921875 85.003906 C 43.863281 84.917969 43.816406 84.863281 43.769531 84.808594 C 43.546875 84.546875 43.402344 84.175781 43.425781 83.828125 C 43.441406 83.601562 43.628906 83.347656 43.40625 83.160156 C 43.339844 83.101562 43.214844 83.097656 43.09375 83.144531 C 43.105469 83.097656 43.109375 83.054688 43.128906 83 C 43.167969 82.886719 43.210938 82.753906 43.257812 82.609375 C 43.28125 82.53125 43.300781 82.453125 43.320312 82.355469 C 43.332031 82.3125 43.335938 82.246094 43.339844 82.1875 C 43.347656 82.148438 43.339844 82.066406 43.332031 82 L 43.324219 81.953125 C 43.308594 81.882812 43.289062 81.8125 43.269531 81.734375 C 43.242188 81.652344 43.1875 81.574219 43.140625 81.496094 C 42.871094 81.132812 42.496094 81.15625 42.773438 80.671875 C 42.867188 80.515625 43.421875 80.003906 43.289062 79.808594 C 43.25 79.75 43.113281 79.734375 42.910156 79.804688 C 43.082031 79.214844 43.613281 79.082031 43.941406 78.609375 C 44.378906 77.976562 44.832031 77.382812 45.28125 76.761719 C 46.46875 75.152344 47.542969 73.464844 48.667969 71.8125 C 49.898438 70.007812 51.285156 68.398438 52.804688 66.832031 C 53.582031 66.03125 54.386719 65.25 55.171875 64.449219 C 55.292969 64.324219 55.410156 64.199219 55.523438 64.074219 C 55.5 64.109375 55.484375 64.140625 55.457031 64.175781 C 55.355469 64.355469 55.222656 64.566406 55.171875 64.859375 L 55.136719 65.054688 L 55.332031 64.96875 C 55.4375 64.921875 55.546875 64.871094 55.664062 64.832031 C 55.769531 64.796875 55.90625 64.757812 55.988281 64.773438 C 56.023438 64.785156 56.011719 64.777344 56.019531 64.808594 "/>
<g clip-path="url(#clip2)" clip-rule="nonzero">
<path style=" stroke:none;fill-rule:nonzero;fill:rgb(0%,0%,0%);fill-opacity:1;" d="M 56.003906 64.960938 C 56.019531 64.902344 56.023438 64.839844 56.019531 64.808594 C 56.011719 64.777344 56.023438 64.785156 55.988281 64.773438 C 55.90625 64.757812 55.769531 64.796875 55.664062 64.832031 C 55.546875 64.871094 55.4375 64.921875 55.332031 64.96875 L 55.136719 65.054688 L 55.171875 64.859375 C 55.222656 64.566406 55.355469 64.355469 55.457031 64.175781 C 55.484375 64.140625 55.5 64.109375 55.523438 64.074219 C 55.410156 64.199219 55.292969 64.324219 55.171875 64.449219 C 54.386719 65.25 53.582031 66.03125 52.804688 66.832031 C 51.285156 68.398438 49.898438 70.007812 48.667969 71.8125 C 47.542969 73.464844 46.46875 75.152344 45.28125 76.761719 C 44.832031 77.382812 44.378906 77.976562 43.941406 78.609375 C 43.613281 79.082031 43.082031 79.214844 42.910156 79.804688 C 43.113281 79.734375 43.25 79.75 43.289062 79.808594 C 43.421875 80.003906 42.867188 80.515625 42.773438 80.671875 C 42.496094 81.15625 42.871094 81.132812 43.140625 81.496094 C 43.1875 81.574219 43.242188 81.652344 43.269531 81.734375 C 43.289062 81.8125 43.308594 81.882812 43.324219 81.953125 L 43.332031 82 C 43.339844 82.066406 43.347656 82.148438 43.339844 82.1875 C 43.335938 82.246094 43.332031 82.3125 43.320312 82.355469 C 43.300781 82.453125 43.28125 82.53125 43.257812 82.609375 C 43.210938 82.753906 43.167969 82.886719 43.128906 83 C 43.109375 83.054688 43.105469 83.097656 43.09375 83.144531 C 43.214844 83.097656 43.339844 83.101562 43.40625 83.160156 C 43.628906 83.347656 43.441406 83.601562 43.425781 83.828125 C 43.402344 84.175781 43.546875 84.546875 43.769531 84.808594 C 43.816406 84.863281 43.863281 84.917969 43.921875 85.003906 C 43.9375 85.035156 43.949219 85.050781 43.964844 85.089844 L 43.992188 85.152344 L 44.011719 85.21875 C 44.019531 85.261719 44.027344 85.273438 44.035156 85.34375 C 44.066406 85.582031 44.035156 85.753906 44.015625 85.90625 C 43.992188 86.050781 43.992188 86.140625 44.015625 86.167969 C 44.027344 86.199219 44.0625 86.257812 44.160156 86.324219 C 44.257812 86.402344 44.519531 86.433594 44.867188 86.425781 C 45.070312 86.421875 45.273438 86.351562 45.464844 86.441406 C 45.449219 86.640625 45.351562 86.847656 45.289062 87.046875 C 45.277344 87.082031 45.269531 87.117188 45.261719 87.148438 C 45.238281 87.285156 45.28125 87.425781 45.40625 87.578125 C 45.527344 87.726562 45.703125 87.859375 45.886719 87.949219 C 46.070312 88.042969 46.265625 88.09375 46.417969 88.09375 C 46.582031 88.09375 46.648438 88.058594 46.699219 88.003906 L 47.070312 87.585938 L 47.316406 87.96875 C 47.375 88.066406 47.441406 88.136719 47.492188 88.171875 C 47.542969 88.207031 47.59375 88.214844 47.667969 88.199219 C 47.820312 88.171875 47.96875 88.035156 48.058594 87.917969 C 48.253906 87.667969 48.28125 87.453125 48.363281 87.445312 C 48.421875 87.433594 48.542969 87.640625 48.453125 88.015625 C 48.476562 88.03125 48.496094 88.046875 48.515625 88.066406 C 49.136719 88.300781 49.542969 88.078125 49.71875 87.394531 C 49.636719 87.167969 49.589844 86.933594 49.570312 86.691406 C 49.503906 86.269531 49.488281 85.8125 49.503906 85.390625 C 49.539062 84.367188 49.824219 83.417969 50.03125 82.425781 C 50.273438 81.234375 50.667969 80.109375 51.160156 79.019531 C 51.175781 78.960938 51.191406 78.902344 51.214844 78.835938 C 51.269531 78.648438 51.304688 78.433594 51.355469 78.21875 C 51.40625 77.992188 51.460938 77.753906 51.519531 77.507812 C 51.578125 77.257812 51.671875 77.015625 51.753906 76.753906 C 51.953125 76.234375 52.125 75.679688 52.371094 75.089844 C 52.496094 74.792969 52.636719 74.492188 52.820312 74.195312 C 52.871094 74.125 52.921875 74.050781 52.972656 73.976562 C 53.035156 73.902344 53.089844 73.832031 53.15625 73.765625 C 53.238281 73.679688 53.34375 73.597656 53.464844 73.535156 C 53.441406 73.480469 53.414062 73.4375 53.382812 73.402344 C 53.316406 73.335938 53.316406 73.332031 53.199219 73.355469 C 53.09375 73.382812 52.953125 73.457031 52.769531 73.5 C 52.679688 73.519531 52.574219 73.527344 52.464844 73.511719 C 52.410156 73.5 52.355469 73.488281 52.304688 73.46875 C 52.261719 73.445312 52.210938 73.417969 52.164062 73.390625 L 52.003906 73.292969 L 52.105469 73.101562 C 52.230469 72.859375 52.339844 72.609375 52.414062 72.324219 C 52.457031 72.179688 52.496094 72.035156 52.539062 71.886719 C 52.578125 71.722656 52.652344 71.566406 52.71875 71.421875 C 52.855469 71.136719 53.003906 70.867188 53.117188 70.585938 C 53.175781 70.449219 53.226562 70.308594 53.246094 70.183594 C 53.253906 70.152344 53.257812 70.121094 53.257812 70.113281 C 53.257812 70.101562 53.261719 70.101562 53.261719 70.085938 L 53.246094 70.027344 C 53.246094 70.015625 53.234375 69.976562 53.226562 69.953125 C 53.21875 69.929688 53.207031 69.902344 53.195312 69.890625 C 53.164062 69.863281 53.1875 69.867188 53.125 69.871094 C 53.066406 69.882812 52.976562 69.921875 52.894531 69.976562 C 52.726562 70.085938 52.5625 70.226562 52.402344 70.375 C 52.238281 70.523438 52.074219 70.675781 51.910156 70.824219 C 51.828125 70.898438 51.742188 70.980469 51.644531 71.050781 C 51.59375 71.085938 51.539062 71.121094 51.464844 71.15625 C 51.433594 71.171875 51.382812 71.1875 51.332031 71.203125 C 51.296875 71.207031 51.253906 71.203125 51.21875 71.203125 C 51.175781 71.191406 51.128906 71.171875 51.089844 71.152344 L 50.890625 71.027344 L 51.039062 70.832031 C 51.167969 70.667969 51.261719 70.457031 51.355469 70.238281 C 51.453125 70.015625 51.539062 69.792969 51.703125 69.550781 C 51.742188 69.5 51.777344 69.457031 51.8125 69.414062 L 51.839844 69.378906 L 51.871094 69.339844 C 51.878906 69.335938 51.890625 69.328125 51.890625 69.328125 L 51.957031 69.265625 C 52.054688 69.1875 52.152344 69.097656 52.242188 69.035156 C 52.332031 68.964844 52.4375 68.894531 52.507812 68.832031 C 52.589844 68.765625 52.667969 68.722656 52.742188 68.632812 C 52.8125 68.554688 52.910156 68.464844 52.957031 68.398438 C 53.011719 68.316406 53.066406 68.238281 53.117188 68.15625 C 53.160156 68.0625 53.207031 67.96875 53.246094 67.878906 C 53.292969 67.777344 53.335938 67.679688 53.378906 67.578125 C 53.417969 67.480469 53.46875 67.390625 53.515625 67.296875 L 53.550781 67.230469 L 53.558594 67.210938 L 53.5625 67.203125 C 53.566406 67.199219 53.574219 67.179688 53.574219 67.179688 C 53.578125 67.179688 53.601562 67.144531 53.601562 67.144531 C 53.636719 67.097656 53.667969 67.050781 53.703125 67.007812 C 53.847656 66.835938 54.003906 66.703125 54.164062 66.574219 C 54.488281 66.328125 54.808594 66.132812 55.101562 65.941406 C 55.386719 65.746094 55.664062 65.542969 55.824219 65.335938 C 55.863281 65.292969 55.914062 65.1875 55.929688 65.15625 C 55.960938 65.089844 55.984375 65.023438 56.003906 64.960938 Z M 60.382812 62.65625 C 59.964844 61.890625 59.414062 61.179688 58.847656 60.503906 C 58.78125 60.535156 58.71875 60.582031 58.671875 60.664062 C 58.589844 60.796875 58.546875 60.9375 58.542969 61.078125 C 59.257812 61.449219 59.882812 62.003906 60.382812 62.65625 Z M 59.605469 65.6875 C 59.613281 65.890625 59.582031 66.105469 59.511719 66.304688 C 59.46875 66.398438 59.425781 66.519531 59.375 66.59375 L 59.304688 66.71875 C 59.265625 66.777344 59.242188 66.804688 59.214844 66.847656 C 58.976562 67.164062 58.746094 67.511719 58.484375 67.835938 C 58.085938 68.316406 57.699219 68.777344 57.335938 69.191406 C 57.152344 69.402344 56.984375 69.605469 56.828125 69.804688 C 56.667969 70.003906 56.515625 70.191406 56.371094 70.371094 L 56.058594 70.34375 C 56.054688 70.347656 56.054688 70.347656 56.054688 70.347656 L 56.054688 70.34375 L 56.035156 70.328125 L 55.960938 70.269531 L 55.921875 70.234375 C 55.570312 70.585938 55.273438 70.851562 55.066406 71.042969 C 54.839844 71.269531 54.703125 71.390625 54.679688 71.371094 C 54.652344 71.347656 54.738281 71.1875 54.921875 70.925781 C 55.117188 70.660156 55.441406 70.316406 55.792969 69.886719 L 55.882812 69.773438 L 56.058594 69.902344 C 56.074219 69.914062 56.089844 69.925781 56.097656 69.9375 L 56.171875 69.988281 C 56.179688 69.996094 56.183594 69.996094 56.1875 70 C 56.289062 69.855469 56.398438 69.714844 56.507812 69.5625 C 56.660156 69.347656 56.824219 69.132812 57.003906 68.921875 C 57.355469 68.492188 57.734375 68.03125 58.128906 67.554688 C 58.390625 67.234375 58.613281 66.902344 58.84375 66.601562 L 58.925781 66.496094 L 59 66.371094 C 59.054688 66.285156 59.070312 66.226562 59.109375 66.15625 C 59.167969 66.003906 59.191406 65.855469 59.191406 65.703125 C 59.1875 65.398438 59.0625 65.09375 58.980469 64.785156 C 58.890625 64.480469 58.84375 64.171875 58.859375 63.902344 L 58.867188 63.808594 C 58.734375 63.683594 58.597656 63.5625 58.457031 63.441406 C 58.429688 63.640625 58.378906 63.84375 58.304688 64.050781 C 58.179688 64.394531 58.007812 64.714844 57.859375 65.050781 L 57.816406 65.140625 L 57.8125 65.152344 L 57.808594 65.171875 L 57.792969 65.214844 C 57.777344 65.269531 57.753906 65.328125 57.742188 65.386719 C 57.730469 65.4375 57.722656 65.5 57.710938 65.570312 C 57.691406 65.625 57.691406 65.679688 57.644531 65.742188 C 57.621094 65.773438 57.597656 65.800781 57.570312 65.828125 L 57.515625 65.867188 C 57.367188 65.960938 57.261719 66 57.152344 66.058594 C 57.042969 66.109375 56.933594 66.160156 56.828125 66.210938 C 56.425781 66.410156 56.109375 66.660156 55.871094 66.898438 C 55.625 67.140625 55.460938 67.367188 55.339844 67.519531 C 55.21875 67.683594 55.140625 67.769531 55.113281 67.753906 C 55.085938 67.734375 55.113281 67.625 55.183594 67.4375 C 55.261719 67.25 55.394531 66.976562 55.628906 66.6875 C 55.855469 66.394531 56.199219 66.085938 56.628906 65.84375 C 56.738281 65.789062 56.84375 65.730469 56.957031 65.671875 C 57.058594 65.617188 57.191406 65.550781 57.257812 65.507812 L 57.265625 65.5 C 57.265625 65.5 57.265625 65.5 57.269531 65.492188 C 57.277344 65.433594 57.289062 65.367188 57.304688 65.292969 C 57.316406 65.21875 57.339844 65.152344 57.363281 65.078125 L 57.378906 65.027344 L 57.386719 65 L 57.402344 64.960938 L 57.445312 64.867188 C 57.601562 64.515625 57.777344 64.195312 57.898438 63.894531 C 58.003906 63.632812 58.066406 63.375 58.097656 63.128906 C 57.796875 62.878906 57.492188 62.636719 57.183594 62.398438 C 56.6875 62.769531 56.28125 63.21875 55.878906 63.675781 C 55.867188 63.710938 55.851562 63.742188 55.835938 63.785156 C 55.777344 63.917969 55.699219 64.074219 55.605469 64.257812 C 55.546875 64.378906 55.480469 64.519531 55.4375 64.671875 C 55.484375 64.652344 55.53125 64.628906 55.574219 64.609375 C 55.707031 64.5625 55.828125 64.5 56.03125 64.515625 C 56.078125 64.523438 56.140625 64.546875 56.191406 64.589844 C 56.242188 64.636719 56.269531 64.691406 56.285156 64.746094 C 56.304688 64.855469 56.292969 64.949219 56.273438 65.027344 C 56.257812 65.109375 56.226562 65.1875 56.199219 65.265625 C 56.152344 65.371094 56.136719 65.40625 56.074219 65.492188 C 55.863281 65.796875 55.582031 66 55.289062 66.214844 C 54.996094 66.421875 54.683594 66.625 54.394531 66.859375 C 54.25 66.976562 54.113281 67.105469 53.996094 67.246094 L 53.921875 67.355469 L 53.902344 67.378906 L 53.898438 67.382812 L 53.890625 67.402344 L 53.859375 67.46875 C 53.816406 67.5625 53.765625 67.660156 53.730469 67.75 C 53.691406 67.84375 53.652344 67.941406 53.613281 68.035156 C 53.570312 68.136719 53.519531 68.238281 53.476562 68.34375 C 53.414062 68.445312 53.34375 68.546875 53.277344 68.648438 C 53.195312 68.761719 53.128906 68.824219 53.050781 68.914062 C 52.695312 69.265625 52.277344 69.472656 52.042969 69.816406 C 51.957031 69.949219 51.871094 70.136719 51.792969 70.328125 C 51.894531 70.234375 51.992188 70.136719 52.097656 70.042969 C 52.269531 69.890625 52.441406 69.734375 52.652344 69.597656 C 52.757812 69.527344 52.875 69.457031 53.042969 69.425781 C 53.121094 69.40625 53.226562 69.40625 53.332031 69.445312 C 53.433594 69.484375 53.515625 69.5625 53.570312 69.632812 C 53.605469 69.6875 53.625 69.738281 53.652344 69.789062 C 53.664062 69.84375 53.679688 69.875 53.695312 69.941406 C 53.714844 69.992188 53.714844 70.191406 53.695312 70.261719 C 53.660156 70.449219 53.597656 70.605469 53.535156 70.761719 C 53.40625 71.066406 53.257812 71.34375 53.125 71.617188 C 53.058594 71.753906 53.003906 71.878906 52.964844 72.007812 C 52.925781 72.15625 52.882812 72.300781 52.839844 72.449219 C 52.785156 72.664062 52.699219 72.882812 52.597656 73.089844 C 52.625 73.089844 52.648438 73.085938 52.679688 73.078125 C 52.792969 73.058594 52.917969 72.992188 53.097656 72.941406 C 53.183594 72.917969 53.300781 72.90625 53.425781 72.9375 C 53.542969 72.972656 53.644531 73.050781 53.703125 73.128906 C 53.832031 73.285156 53.878906 73.4375 53.933594 73.582031 L 54.015625 73.792969 L 53.777344 73.851562 C 53.550781 73.902344 53.316406 74.148438 53.15625 74.410156 C 52.984375 74.671875 52.84375 74.957031 52.71875 75.238281 C 52.46875 75.796875 52.277344 76.367188 52.0625 76.859375 C 51.976562 77.117188 51.871094 77.363281 51.808594 77.597656 C 51.789062 77.667969 51.773438 77.726562 51.753906 77.792969 C 52.046875 77.230469 52.359375 76.671875 52.683594 76.121094 C 54.890625 72.390625 57.898438 69.3125 60.476562 65.855469 C 60.199219 65.332031 59.847656 64.855469 59.449219 64.414062 C 59.375 64.359375 59.292969 64.300781 59.203125 64.234375 C 59.234375 64.375 59.273438 64.523438 59.328125 64.679688 C 59.421875 64.960938 59.574219 65.277344 59.605469 65.6875 Z M 61.554688 64.820312 C 61.648438 64.707031 61.742188 64.59375 61.835938 64.480469 C 61.410156 63.5 59.890625 59.953125 59.335938 60.253906 C 59.332031 60.273438 59.320312 60.289062 59.308594 60.308594 C 60.40625 61.628906 61.425781 63.09375 61.554688 64.820312 Z M 81.304688 48.6875 C 82.8125 46.089844 84.257812 43.457031 85.023438 40.566406 C 82.699219 45.089844 79.738281 49.140625 75.621094 52.257812 C 73.050781 54.210938 70.875 56.503906 68.660156 58.84375 C 67.621094 59.941406 66.601562 61.054688 65.484375 62.070312 C 64.597656 62.882812 63.679688 63.699219 63.109375 64.769531 C 63.414062 64.96875 63.714844 65.164062 63.988281 65.433594 C 64.148438 65.589844 64.304688 65.75 64.46875 65.898438 C 64.445312 65.863281 64.53125 65.84375 64.703125 65.636719 C 65.574219 64.601562 66.503906 63.628906 67.398438 62.613281 C 69.5625 60.15625 71.171875 57.507812 73.808594 55.480469 C 76.464844 53.445312 79.582031 51.660156 81.304688 48.6875 Z M 83.636719 42.308594 C 84.09375 41.511719 84.484375 40.683594 84.871094 39.855469 C 82.707031 41.1875 80.765625 42.886719 78.824219 44.5 C 76.824219 46.160156 74.652344 47.566406 72.5 49.019531 C 69.976562 50.722656 67.855469 52.785156 65.609375 54.816406 C 63.828125 56.425781 61.644531 57.8125 60.304688 59.839844 C 61.398438 60.929688 62.328125 63.632812 62.617188 64.265625 C 62.621094 64.28125 62.625 64.289062 62.628906 64.300781 C 62.671875 64.359375 62.691406 64.417969 62.699219 64.480469 C 62.703125 64.484375 62.707031 64.484375 62.710938 64.488281 C 63.230469 63.519531 64.027344 62.746094 64.839844 62.007812 C 65.933594 61.007812 66.953125 59.949219 67.96875 58.875 C 70.09375 56.628906 72.160156 54.328125 74.609375 52.429688 C 77.074219 50.519531 79.25 48.710938 81.023438 46.113281 C 81.886719 44.859375 82.878906 43.628906 83.636719 42.308594 Z M 85.714844 38.476562 C 86.253906 42.4375 83.800781 46.683594 81.554688 49.792969 C 79.449219 52.703125 76.332031 54.375 73.632812 56.644531 C 72.046875 57.984375 70.828125 59.507812 69.59375 61.164062 C 68.449219 62.699219 67.070312 64.003906 65.871094 65.480469 C 65.59375 65.824219 64.871094 67.089844 64.273438 66.761719 C 63.941406 66.582031 63.683594 66.261719 63.421875 66.003906 C 63.082031 65.671875 62.6875 65.4375 62.304688 65.175781 C 62.03125 65.511719 61.742188 65.839844 61.410156 66.128906 C 61.34375 66.183594 61.273438 66.214844 61.199219 66.226562 C 59.71875 68.238281 58.144531 70.289062 56.476562 72.140625 C 54.546875 74.28125 52.964844 76.871094 51.800781 79.511719 C 51.160156 80.964844 50.796875 82.5 50.476562 84.050781 C 50.308594 84.875 50.160156 86.011719 50.402344 86.855469 C 50.457031 87.054688 50.621094 87.429688 50.535156 87.65625 C 50.175781 88.625 48.890625 89.601562 47.996094 88.683594 C 47.960938 88.707031 47.925781 88.726562 47.886719 88.746094 C 47.71875 88.832031 47.46875 88.871094 47.246094 88.789062 C 47.175781 88.761719 47.113281 88.726562 47.050781 88.691406 C 47.019531 88.714844 46.988281 88.734375 46.957031 88.753906 C 46.796875 88.84375 46.625 88.882812 46.460938 88.894531 C 46.132812 88.921875 45.824219 88.851562 45.53125 88.734375 C 45.238281 88.609375 44.957031 88.429688 44.71875 88.152344 C 44.601562 88.015625 44.496094 87.847656 44.425781 87.652344 C 44.386719 87.542969 44.363281 87.421875 44.351562 87.300781 C 44.328125 87.296875 44.308594 87.296875 44.285156 87.292969 C 44.171875 87.277344 44.066406 87.25 43.949219 87.203125 C 43.882812 87.175781 43.808594 87.140625 43.757812 87.113281 L 43.703125 87.078125 L 43.675781 87.0625 L 43.664062 87.054688 L 43.621094 87.023438 L 43.613281 87.015625 C 43.453125 86.886719 43.269531 86.683594 43.191406 86.414062 C 43.117188 86.132812 43.175781 85.90625 43.207031 85.761719 C 43.21875 85.6875 43.234375 85.621094 43.242188 85.570312 C 43.253906 85.515625 43.253906 85.464844 43.257812 85.449219 C 43.261719 85.449219 43.253906 85.390625 43.25 85.363281 C 43.234375 85.328125 43.207031 85.289062 43.179688 85.25 C 43.125 85.160156 43.0625 85.074219 43 84.984375 C 42.957031 84.960938 42.910156 84.9375 42.867188 84.902344 C 42.703125 84.738281 42.503906 84.46875 42.503906 84.058594 C 42.507812 83.996094 42.519531 83.933594 42.527344 83.871094 C 42.484375 83.820312 42.445312 83.765625 42.414062 83.703125 C 42.28125 83.417969 42.292969 83.101562 42.339844 82.820312 C 42.359375 82.671875 42.386719 82.53125 42.414062 82.394531 C 42.429688 82.332031 42.4375 82.265625 42.441406 82.214844 C 42.449219 82.183594 42.441406 82.175781 42.445312 82.15625 C 42.449219 82.15625 42.464844 82.152344 42.464844 82.152344 L 42.441406 82.109375 C 42.429688 82.09375 42.425781 82.078125 42.421875 82.058594 C 42.417969 82.039062 42.398438 82.03125 42.394531 82.007812 C 42.359375 81.949219 42.230469 81.839844 42.070312 81.648438 C 42.035156 81.59375 42 81.535156 41.964844 81.480469 C 41.824219 81.238281 41.828125 80.804688 41.96875 80.5625 C 42.015625 80.488281 42.054688 80.40625 42.105469 80.347656 C 42.066406 80.289062 42.039062 80.210938 42.046875 80.109375 C 42.085938 79.570312 42.097656 78.796875 42.617188 78.457031 C 42.984375 78.214844 43.335938 78.082031 43.554688 77.675781 C 43.730469 77.347656 43.941406 77.0625 44.199219 76.789062 C 45.777344 75.085938 46.898438 72.921875 48.234375 71.027344 C 49.539062 69.179688 50.996094 67.527344 52.578125 65.910156 C 53.910156 64.550781 55.203125 62.820312 56.773438 61.710938 C 56.8125 61.386719 56.964844 61.097656 57.238281 60.902344 C 57.410156 60.785156 57.59375 60.730469 57.789062 60.714844 C 57.914062 60.214844 58.277344 59.765625 58.792969 59.691406 C 58.824219 59.648438 58.859375 59.605469 58.90625 59.566406 C 59.148438 59.386719 59.390625 59.347656 59.628906 59.40625 C 61.015625 57.320312 63.214844 55.921875 65.035156 54.246094 C 67.066406 52.386719 69.011719 50.421875 71.296875 48.867188 C 73.925781 47.074219 76.566406 45.363281 78.992188 43.292969 C 80.917969 41.644531 83.285156 39.277344 85.710938 38.398438 C 85.710938 38.425781 85.714844 38.449219 85.714844 38.476562 Z M 57.683594 61.574219 C 57.640625 61.613281 57.609375 61.660156 57.59375 61.707031 C 58.90625 62.714844 60.261719 63.832031 61.085938 65.285156 C 61.089844 65.226562 61.085938 65.171875 61.082031 65.113281 C 61.074219 65.097656 61.066406 65.085938 61.0625 65.070312 C 60.667969 63.636719 59.648438 62.152344 58.277344 61.472656 C 58.191406 61.511719 58.09375 61.523438 57.996094 61.507812 C 57.949219 61.5 57.867188 61.5 57.828125 61.507812 C 57.832031 61.507812 57.746094 61.542969 57.746094 61.535156 C 57.730469 61.550781 57.6875 61.574219 57.683594 61.574219 "/>
</g>
<path style=" stroke:none;fill-rule:nonzero;fill:rgb(0%,0%,0%);fill-opacity:1;" d="M 78.402344 45.199219 C 78.480469 45.277344 76.929688 46.769531 74.792969 48.296875 C 72.675781 49.816406 71.015625 51.160156 70.921875 51.050781 C 70.855469 50.964844 72.371094 49.476562 74.523438 47.933594 C 76.65625 46.40625 78.304688 45.097656 78.402344 45.199219 "/>
<path style=" stroke:none;fill-rule:nonzero;fill:rgb(0%,0%,0%);fill-opacity:1;" d="M 68.683594 53.058594 C 68.765625 53.171875 67.765625 54.042969 66.570312 55.175781 C 65.367188 56.324219 64.285156 57.121094 64.207031 57.035156 C 64.117188 56.9375 65.066406 55.984375 66.257812 54.84375 C 67.46875 53.703125 68.621094 52.964844 68.683594 53.058594 "/>
<path style=" stroke:none;fill-rule:nonzero;fill:rgb(0%,0%,0%);fill-opacity:1;" d="M 63.128906 57.660156 C 63.222656 57.742188 62.867188 58.300781 62.335938 58.902344 C 61.804688 59.507812 61.296875 59.929688 61.207031 59.847656 C 61.113281 59.765625 61.464844 59.207031 62 58.601562 C 62.535156 57.996094 63.039062 57.570312 63.128906 57.660156 "/>
<path style=" stroke:none;fill-rule:nonzero;fill:rgb(0%,0%,0%);fill-opacity:1;" d="M 52.894531 73.882812 C 52.945312 73.925781 52.804688 74.171875 52.566406 74.550781 C 52.335938 74.9375 52.03125 75.472656 51.695312 76.078125 C 51.363281 76.683594 51.023438 77.222656 50.730469 77.589844 C 50.441406 77.949219 50.226562 78.136719 50.175781 78.101562 C 50.121094 78.066406 50.25 77.808594 50.46875 77.410156 C 50.675781 77.015625 50.964844 76.464844 51.300781 75.855469 C 51.640625 75.246094 52 74.714844 52.308594 74.363281 C 52.625 74.015625 52.855469 73.84375 52.894531 73.882812 "/>
<path style=" stroke:none;fill-rule:nonzero;fill:rgb(0%,0%,0%);fill-opacity:1;" d="M 52.261719 71.9375 C 52.316406 71.96875 52.207031 72.28125 52 72.773438 C 51.792969 73.261719 51.488281 73.933594 51.089844 74.644531 C 50.683594 75.359375 50.257812 75.96875 49.867188 76.371094 C 49.777344 76.476562 49.6875 76.554688 49.605469 76.621094 C 49.523438 76.6875 49.453125 76.742188 49.390625 76.789062 C 49.269531 76.878906 49.191406 76.921875 49.167969 76.894531 C 49.144531 76.875 49.179688 76.796875 49.265625 76.667969 C 49.308594 76.605469 49.363281 76.53125 49.421875 76.449219 C 49.488281 76.363281 49.5625 76.269531 49.628906 76.15625 C 49.921875 75.738281 50.296875 75.121094 50.695312 74.425781 C 51.085938 73.722656 51.4375 73.082031 51.71875 72.625 C 51.996094 72.175781 52.203125 71.90625 52.261719 71.9375 "/>
<path style=" stroke:none;fill-rule:nonzero;fill:rgb(0%,0%,0%);fill-opacity:1;" d="M 50.308594 79.105469 C 50.332031 79.117188 50.308594 79.214844 50.246094 79.371094 C 50.183594 79.523438 50.046875 79.753906 49.867188 80.003906 C 49.691406 80.261719 49.460938 80.554688 49.246094 80.894531 C 49.183594 80.976562 49.136719 81.0625 49.09375 81.15625 C 49.066406 81.203125 49.039062 81.246094 49.019531 81.292969 C 49.003906 81.339844 48.988281 81.386719 48.96875 81.433594 L 48.949219 81.507812 L 48.9375 81.527344 L 48.933594 81.539062 C 48.933594 81.542969 48.941406 81.546875 48.941406 81.546875 C 48.964844 81.570312 49.011719 81.597656 49.085938 81.675781 C 49.101562 81.695312 49.121094 81.710938 49.136719 81.742188 C 49.15625 81.773438 49.167969 81.808594 49.179688 81.84375 C 49.199219 81.910156 49.1875 81.976562 49.175781 82.042969 C 49.101562 82.46875 48.890625 82.839844 48.675781 83.195312 C 48.394531 83.664062 48.105469 84.085938 47.960938 84.496094 L 47.957031 84.511719 C 47.863281 84.726562 47.777344 84.917969 47.71875 85.097656 C 47.667969 85.28125 47.644531 85.453125 47.679688 85.585938 C 47.699219 85.65625 47.734375 85.714844 47.785156 85.773438 C 47.894531 85.765625 48.015625 85.765625 48.136719 85.773438 C 48.15625 85.5 48.183594 85.238281 48.242188 84.992188 C 48.261719 84.898438 48.28125 84.808594 48.296875 84.71875 C 48.316406 84.628906 48.355469 84.550781 48.382812 84.46875 C 48.441406 84.3125 48.496094 84.167969 48.550781 84.039062 C 48.816406 83.546875 49.019531 83.289062 49.101562 83.324219 C 49.183594 83.367188 49.136719 83.6875 49.015625 84.191406 C 48.996094 84.324219 48.976562 84.460938 48.953125 84.609375 C 48.941406 84.679688 48.921875 84.757812 48.914062 84.835938 C 48.910156 84.921875 48.90625 85.003906 48.902344 85.089844 C 48.867188 85.425781 48.886719 85.820312 48.886719 86.242188 L 48.886719 86.777344 L 48.363281 86.605469 C 48.144531 86.535156 47.832031 86.574219 47.421875 86.625 L 47.007812 86.675781 L 46.972656 86.191406 C 46.972656 86.183594 46.972656 86.167969 46.972656 86.15625 C 46.878906 86.140625 46.722656 86.121094 46.542969 86.039062 C 46.289062 85.925781 46.148438 85.664062 46.097656 85.515625 C 46.039062 85.351562 46.015625 85.21875 45.988281 85.089844 C 45.941406 84.828125 45.898438 84.679688 45.804688 84.476562 C 45.722656 84.289062 45.636719 84.125 45.539062 84 C 45.398438 83.8125 45.128906 83.792969 44.933594 83.675781 C 44.558594 83.453125 44.722656 83.417969 44.828125 83.070312 C 44.863281 82.96875 44.878906 82.839844 44.855469 82.691406 C 44.839844 82.550781 44.769531 82.398438 44.679688 82.324219 L 44.359375 82.058594 L 44.796875 81.769531 C 44.867188 81.722656 44.929688 81.671875 44.960938 81.621094 C 44.992188 81.570312 45.007812 81.515625 45.007812 81.433594 C 45.015625 81.265625 44.9375 81.015625 44.8125 80.773438 L 44.742188 80.644531 L 44.699219 80.574219 C 44.695312 80.566406 44.691406 80.5625 44.691406 80.5625 L 44.671875 80.535156 C 44.617188 80.457031 44.550781 80.378906 44.488281 80.296875 C 44.355469 80.132812 44.167969 79.949219 44.074219 79.625 C 44.0625 79.585938 44.054688 79.539062 44.046875 79.496094 C 44.035156 79.449219 44.03125 79.40625 44.035156 79.390625 L 44.035156 79.277344 L 44.039062 79.261719 L 44.039062 79.214844 L 44.042969 79.203125 C 44.070312 79.066406 44.105469 78.9375 44.152344 78.84375 C 44.199219 78.742188 44.25 78.660156 44.296875 78.582031 C 44.347656 78.503906 44.398438 78.433594 44.453125 78.371094 C 44.648438 78.121094 44.832031 77.945312 44.960938 77.835938 C 45.09375 77.726562 45.191406 77.667969 45.238281 77.699219 C 45.28125 77.730469 45.28125 77.835938 45.230469 78.007812 C 45.171875 78.183594 45.0625 78.40625 44.941406 78.671875 C 44.886719 78.800781 44.820312 78.949219 44.785156 79.082031 C 44.765625 79.144531 44.722656 79.191406 44.703125 79.238281 L 44.730469 79.253906 L 44.75 79.289062 L 44.761719 79.363281 C 44.761719 79.394531 44.777344 79.398438 44.777344 79.402344 C 44.785156 79.402344 44.789062 79.40625 44.792969 79.410156 C 44.8125 79.496094 44.980469 79.648438 45.164062 79.859375 C 45.382812 79.035156 45.832031 78.359375 46.273438 77.8125 C 46.753906 77.21875 47.230469 76.734375 47.617188 76.324219 C 48.011719 75.921875 48.308594 75.578125 48.515625 75.347656 C 48.71875 75.097656 48.839844 74.96875 48.867188 74.988281 C 48.890625 75.003906 48.820312 75.167969 48.660156 75.441406 C 48.492188 75.71875 48.21875 76.097656 47.855469 76.539062 C 47.496094 76.976562 47.050781 77.480469 46.601562 78.066406 C 46.160156 78.648438 45.726562 79.339844 45.558594 80.128906 C 45.542969 80.21875 45.535156 80.300781 45.527344 80.378906 C 45.527344 80.386719 45.535156 80.398438 45.535156 80.40625 C 45.597656 80.527344 45.65625 80.660156 45.703125 80.796875 C 45.949219 80.484375 46.152344 80.152344 46.335938 79.839844 C 46.628906 79.339844 46.871094 78.875 47.097656 78.503906 C 47.542969 77.742188 47.925781 77.367188 47.960938 77.398438 C 48.003906 77.4375 47.714844 77.859375 47.347656 78.636719 C 47.15625 79.019531 46.945312 79.496094 46.675781 80.023438 C 46.445312 80.449219 46.183594 80.921875 45.796875 81.363281 C 45.796875 81.40625 45.796875 81.453125 45.792969 81.5 C 45.773438 81.703125 45.6875 81.925781 45.542969 82.089844 C 45.496094 82.148438 45.441406 82.191406 45.390625 82.230469 C 45.4375 82.402344 45.445312 82.566406 45.429688 82.710938 C 45.398438 82.953125 45.296875 83.152344 45.171875 83.285156 C 45.238281 83.285156 45.308594 83.289062 45.386719 83.304688 C 45.453125 83.316406 45.53125 83.34375 45.605469 83.375 C 45.601562 83.332031 45.601562 83.285156 45.597656 83.238281 C 45.609375 83.125 45.636719 83.007812 45.660156 82.886719 C 45.664062 82.882812 45.664062 82.875 45.664062 82.875 C 45.691406 82.828125 45.710938 82.777344 45.734375 82.734375 C 45.941406 82.324219 46.167969 82.03125 46.363281 81.6875 C 46.554688 81.351562 46.738281 81.027344 46.917969 80.714844 C 47.289062 80.109375 47.652344 79.570312 47.9375 79.125 C 48.234375 78.683594 48.445312 78.300781 48.609375 78.042969 C 48.769531 77.785156 48.871094 77.652344 48.902344 77.667969 C 48.929688 77.679688 48.878906 77.84375 48.765625 78.121094 C 48.652344 78.402344 48.488281 78.804688 48.214844 79.277344 C 47.957031 79.765625 47.628906 80.316406 47.277344 80.929688 C 47.109375 81.242188 46.933594 81.570312 46.746094 81.910156 C 46.5625 82.246094 46.308594 82.597656 46.148438 82.925781 L 46.089844 83.035156 C 46.015625 83.28125 46.054688 83.542969 46.148438 83.800781 C 46.238281 83.910156 46.328125 84.03125 46.402344 84.164062 C 46.4375 84.21875 46.464844 84.273438 46.5 84.328125 L 46.5625 84.457031 L 46.570312 84.476562 C 46.597656 84.421875 46.628906 84.367188 46.652344 84.3125 C 46.753906 84.101562 46.828125 83.886719 46.910156 83.6875 C 47.074219 83.296875 47.199219 82.9375 47.316406 82.648438 C 47.550781 82.066406 47.714844 81.734375 47.757812 81.753906 C 47.800781 81.769531 47.71875 82.125 47.550781 82.726562 C 47.46875 83.027344 47.375 83.394531 47.234375 83.804688 C 47.160156 84.011719 47.101562 84.234375 47.007812 84.460938 C 46.925781 84.644531 46.84375 84.835938 46.757812 85.035156 C 46.777344 85.105469 46.800781 85.175781 46.828125 85.230469 C 46.871094 85.324219 46.878906 85.316406 46.886719 85.320312 C 46.917969 85.335938 47.007812 85.339844 47.222656 85.382812 C 47.246094 85.390625 47.269531 85.394531 47.289062 85.402344 C 47.285156 85.261719 47.304688 85.125 47.335938 84.996094 C 47.523438 84.253906 47.894531 83.613281 48.289062 82.964844 C 48.5 82.617188 48.6875 82.273438 48.75 81.953125 C 48.734375 81.933594 48.6875 81.890625 48.632812 81.835938 C 48.601562 81.792969 48.570312 81.773438 48.542969 81.691406 C 48.429688 81.351562 48.570312 81.261719 48.742188 80.964844 C 48.804688 80.859375 48.867188 80.765625 48.933594 80.679688 C 49.191406 80.332031 49.449219 80.066406 49.652344 79.835938 C 49.855469 79.605469 50.007812 79.433594 50.113281 79.292969 C 50.222656 79.160156 50.285156 79.09375 50.308594 79.105469 "/>
<path style=" stroke:none;fill-rule:nonzero;fill:rgb(0%,0%,0%);fill-opacity:1;" d="M 49.875 70.867188 C 49.921875 70.90625 49.714844 71.285156 49.347656 71.859375 C 49.007812 72.457031 48.535156 73.28125 48.015625 74.191406 C 47.878906 74.417969 47.753906 74.640625 47.621094 74.851562 C 47.488281 75.074219 47.34375 75.269531 47.207031 75.457031 C 46.9375 75.824219 46.691406 76.148438 46.484375 76.421875 C 46.285156 76.703125 46.140625 76.921875 46.039062 77.089844 C 45.941406 77.257812 45.871094 77.339844 45.84375 77.332031 C 45.8125 77.320312 45.828125 77.210938 45.875 77.019531 C 45.925781 76.835938 46.042969 76.554688 46.214844 76.253906 C 46.386719 75.945312 46.617188 75.597656 46.867188 75.21875 C 46.988281 75.03125 47.121094 74.835938 47.238281 74.628906 C 47.363281 74.414062 47.492188 74.191406 47.625 73.960938 C 47.886719 73.507812 48.152344 73.078125 48.394531 72.691406 C 48.640625 72.304688 48.882812 71.964844 49.082031 71.683594 C 49.527344 71.136719 49.824219 70.828125 49.875 70.867188 "/>
<g clip-path="url(#clip3)" clip-rule="nonzero">
<g clip-path="url(#clip4)" clip-rule="nonzero">
<path style=" stroke:none;fill-rule:nonzero;fill:rgb(100%,100%,100%);fill-opacity:1;" d="M 65.742188 60.648438 L 68.273438 60.648438 L 68.273438 63.128906 L 65.742188 63.128906 Z M 65.742188 60.648438 "/>
</g>
</g>
</g>
</svg>
