<svg xmlns="http://www.w3.org/2000/svg" xmlns:xlink="http://www.w3.org/1999/xlink" width="500" zoomAndPan="magnify" viewBox="0 0 375 374.999991" height="500" preserveAspectRatio="xMidYMid meet" version="1.0"><path fill="#d7ded1" d="M 194.917969 120.105469 C 186.667969 120.105469 179.257812 112.511719 179.257812 118.503906 C 179.257812 119.582031 175.558594 119.910156 175.964844 120.894531 C 153.511719 124.585938 136.015625 137.730469 125.855469 157.214844 C 116.632812 158.109375 121.238281 163.542969 121.238281 170.980469 C 121.238281 176.128906 112.921875 181.359375 118.089844 183.953125 C 117.917969 185.960938 117.835938 187.988281 117.835938 190.035156 C 117.835938 229.316406 149.726562 261.191406 189.023438 261.191406 C 192.722656 261.191406 196.355469 260.902344 199.902344 260.359375 C 199.902344 260.390625 199.902344 260.425781 199.902344 260.460938 C 199.902344 262.519531 202.804688 259.214844 205.0625 259.214844 C 207.324219 259.214844 208.089844 262.519531 208.089844 260.460938 C 208.089844 259.835938 207.929688 259.242188 207.632812 258.722656 C 213.5 257.140625 217.820312 255.1875 222.984375 252.242188 C 227.84375 253.648438 228.476562 253.695312 230.335938 252.453125 C 234.78125 249.480469 228.121094 245.464844 236.921875 248.007812 C 239.214844 248.667969 236.234375 245.992188 234.628906 244.660156 C 236.710938 242.921875 238.691406 241.070312 240.558594 239.113281 C 241.472656 240.710938 241.308594 236.445312 243.152344 236.445312 C 246 236.445312 245.109375 235.316406 245.109375 232.175781 C 245.109375 229.945312 248.925781 231.929688 247.234375 230.996094 C 254.070312 221.3125 258.550781 209.847656 259.835938 197.441406 C 262.183594 196.261719 261.839844 190.992188 259.703125 184.144531 C 257.304688 176.457031 261.742188 168.488281 258.992188 168.488281 C 258.351562 168.488281 257.75 168.839844 257.1875 169.480469 C 249.917969 145.394531 232.355469 127.75 207.691406 121.882812 C 208.402344 120.617188 205.597656 119.953125 205.597656 118.503906 C 205.597656 112.511719 203.171875 120.101562 194.921875 120.101562 Z M 194.917969 120.105469 " fill-opacity="0.976" fill-rule="nonzero"/><path fill="#eef0ec" d="M 185.296875 120.640625 C 183.539062 120.707031 182.621094 122.730469 181.328125 123.996094 C 175.480469 124.269531 169.558594 125.757812 163.839844 129.011719 C 149.414062 137.21875 139.429688 150.386719 132.863281 162.121094 C 130.152344 162.023438 127.457031 161.339844 124.785156 161.433594 C 121.804688 162.292969 123.003906 165.617188 124.21875 167.457031 C 125.550781 170.269531 124.859375 173.851562 122.539062 175.941406 C 120.117188 177.273438 120.886719 180.269531 123.617188 180.320312 C 123.914062 180.433594 124.195312 180.492188 124.464844 180.511719 C 122.984375 184.589844 122.316406 187.125 122.316406 187.125 C 122.316406 187.125 199.335938 119.453125 231.550781 145.363281 C 231.550781 145.363281 219.648438 134.363281 203.6875 128.132812 C 203.894531 126.179688 204.953125 123.105469 202.773438 122.003906 C 200.628906 123.042969 198.199219 123.015625 195.878906 123.148438 C 192.453125 123.738281 189.53125 121.601562 186.34375 120.816406 C 185.964844 120.683594 185.621094 120.625 185.300781 120.636719 Z M 185.296875 120.640625 " fill-opacity="0.976" fill-rule="evenodd"/><path fill="#c4ccbd" d="M 252.4375 205.492188 C 213.425781 226.625 188.257812 251.277344 148.488281 243.226562 C 148.488281 243.226562 173.152344 259.34375 199.648438 256.746094 C 200.300781 257.367188 200.90625 258.046875 201.738281 258.378906 C 203.386719 258.625 204.863281 257.429688 206.007812 256.390625 C 206.246094 256.164062 206.386719 255.90625 206.464844 255.644531 C 212.742188 254.21875 219.019531 251.597656 224.984375 247.304688 C 226.15625 248.34375 227.296875 249.5 228.589844 249.21875 C 229.949219 247.457031 231.574219 245.796875 232.792969 244.082031 C 232.695312 243.367188 232.5 242.191406 232.136719 241.167969 C 234.078125 239.210938 235.960938 237.042969 237.789062 234.632812 C 239.261719 233.6875 240.605469 232.523438 241.792969 231.242188 C 242.546875 230.347656 243.691406 229.234375 243.050781 227.972656 C 242.9375 227.8125 242.765625 227.644531 242.59375 227.472656 C 246.25 221.359375 249.570312 214.09375 252.4375 205.492188 Z M 252.4375 205.492188 " fill-opacity="0.976" fill-rule="evenodd"/><path fill="#c4ccbe" d="M 195.074219 191.804688 C 195.074219 192.515625 195.039062 193.226562 194.96875 193.933594 C 194.898438 194.640625 194.792969 195.34375 194.65625 196.042969 C 194.515625 196.742188 194.34375 197.429688 194.136719 198.113281 C 193.929688 198.792969 193.691406 199.464844 193.417969 200.121094 C 193.144531 200.777344 192.839844 201.421875 192.503906 202.050781 C 192.167969 202.675781 191.804688 203.285156 191.40625 203.878906 C 191.011719 204.46875 190.589844 205.042969 190.136719 205.589844 C 189.683594 206.140625 189.207031 206.667969 188.703125 207.171875 C 188.199219 207.675781 187.671875 208.152344 187.121094 208.605469 C 186.574219 209.054688 186 209.480469 185.410156 209.875 C 184.816406 210.269531 184.207031 210.636719 183.578125 210.972656 C 182.949219 211.308594 182.308594 211.609375 181.648438 211.882812 C 180.992188 212.15625 180.320312 212.394531 179.640625 212.601562 C 178.957031 212.808594 178.269531 212.980469 177.570312 213.121094 C 176.871094 213.257812 176.167969 213.363281 175.460938 213.433594 C 174.75 213.503906 174.039062 213.539062 173.328125 213.539062 C 172.617188 213.539062 171.90625 213.503906 171.195312 213.433594 C 170.488281 213.363281 169.785156 213.257812 169.085938 213.121094 C 168.386719 212.980469 167.699219 212.808594 167.015625 212.601562 C 166.335938 212.394531 165.664062 212.15625 165.007812 211.882812 C 164.347656 211.609375 163.707031 211.308594 163.078125 210.972656 C 162.449219 210.636719 161.839844 210.269531 161.246094 209.875 C 160.65625 209.480469 160.085938 209.054688 159.535156 208.605469 C 158.984375 208.152344 158.457031 207.675781 157.953125 207.171875 C 157.449219 206.667969 156.972656 206.140625 156.519531 205.589844 C 156.066406 205.042969 155.644531 204.46875 155.25 203.878906 C 154.851562 203.285156 154.488281 202.675781 154.152344 202.050781 C 153.816406 201.421875 153.511719 200.777344 153.238281 200.121094 C 152.964844 199.464844 152.726562 198.792969 152.519531 198.113281 C 152.3125 197.429688 152.140625 196.742188 152 196.042969 C 151.863281 195.34375 151.757812 194.640625 151.6875 193.933594 C 151.617188 193.226562 151.585938 192.515625 151.585938 191.804688 C 151.585938 191.09375 151.617188 190.382812 151.6875 189.671875 C 151.757812 188.964844 151.863281 188.261719 152 187.5625 C 152.140625 186.867188 152.3125 186.175781 152.519531 185.496094 C 152.726562 184.8125 152.964844 184.144531 153.238281 183.488281 C 153.511719 182.828125 153.816406 182.1875 154.152344 181.558594 C 154.488281 180.929688 154.851562 180.320312 155.25 179.730469 C 155.644531 179.136719 156.066406 178.566406 156.519531 178.015625 C 156.972656 177.464844 157.449219 176.9375 157.953125 176.433594 C 158.457031 175.933594 158.984375 175.453125 159.535156 175.003906 C 160.085938 174.550781 160.65625 174.128906 161.246094 173.734375 C 161.839844 173.335938 162.449219 172.972656 163.078125 172.636719 C 163.707031 172.300781 164.347656 171.996094 165.007812 171.722656 C 165.664062 171.453125 166.335938 171.210938 167.015625 171.003906 C 167.699219 170.800781 168.386719 170.625 169.085938 170.488281 C 169.785156 170.347656 170.488281 170.242188 171.195312 170.175781 C 171.90625 170.105469 172.617188 170.070312 173.328125 170.070312 C 174.039062 170.070312 174.75 170.105469 175.460938 170.175781 C 176.167969 170.242188 176.871094 170.347656 177.570312 170.488281 C 178.269531 170.625 178.957031 170.800781 179.640625 171.003906 C 180.320312 171.210938 180.992188 171.453125 181.648438 171.722656 C 182.308594 171.996094 182.949219 172.300781 183.578125 172.636719 C 184.207031 172.972656 184.816406 173.335938 185.410156 173.734375 C 186 174.128906 186.574219 174.550781 187.121094 175.003906 C 187.671875 175.453125 188.199219 175.933594 188.703125 176.433594 C 189.207031 176.9375 189.683594 177.464844 190.136719 178.015625 C 190.589844 178.566406 191.011719 179.136719 191.40625 179.730469 C 191.804688 180.320312 192.167969 180.929688 192.503906 181.558594 C 192.839844 182.1875 193.144531 182.828125 193.417969 183.488281 C 193.691406 184.144531 193.929688 184.8125 194.136719 185.496094 C 194.34375 186.175781 194.515625 186.867188 194.65625 187.5625 C 194.792969 188.261719 194.898438 188.964844 194.96875 189.671875 C 195.039062 190.382812 195.074219 191.09375 195.074219 191.804688 Z M 195.074219 191.804688 " fill-opacity="1" fill-rule="nonzero"/><path fill="#a2ae98" d="M 170.53125 172.246094 C 160.492188 173.714844 153.261719 182.34375 153.261719 192.191406 C 155.554688 183.695312 162.847656 178.019531 172.109375 176.667969 C 178.941406 175.667969 185.355469 176.734375 190.1875 180.9375 C 185.984375 174.71875 178.453125 171.089844 170.53125 172.246094 Z M 170.53125 172.246094 " fill-opacity="1" fill-rule="nonzero"/><path fill="#ececec" d="M 169.375 168.765625 C 159.335938 170.234375 151.488281 177.464844 151.492188 187.316406 C 153.777344 178.816406 160.917969 172.054688 170.179688 170.699219 C 177.007812 169.699219 183.578125 171.851562 188.414062 176.050781 C 184.207031 169.832031 177.296875 167.605469 169.375 168.765625 Z M 169.375 168.765625 " fill-opacity="1" fill-rule="nonzero"/><path fill="#a2ae98" d="M 195.164062 191.308594 C 195.082031 193.496094 194.675781 195.648438 193.988281 197.699219 C 194.515625 197.375 195.089844 197.117188 195.699219 196.945312 C 195.757812 195.042969 195.585938 193.144531 195.164062 191.308594 Z M 199.59375 198.957031 C 199.484375 201.796875 197.71875 204.445312 194.898438 205.539062 C 192.742188 206.230469 190.84375 206.660156 190.617188 204.105469 C 190.257812 204.582031 189.878906 205.042969 189.480469 205.492188 C 189.238281 205.394531 188.988281 205.285156 188.757812 205.160156 C 188.941406 205.332031 189.144531 205.492188 189.347656 205.648438 C 187.035156 208.226562 184.089844 210.316406 180.636719 211.652344 C 174.199219 214.144531 167.320312 213.519531 161.671875 210.496094 C 167.160156 215.625 175.929688 218.882812 183.398438 215.988281 C 187.246094 214.5 190.273438 211.722656 192.363281 208.308594 C 192.660156 207.117188 193.210938 207.675781 195.789062 206.9375 C 198.847656 205.753906 200.300781 202.058594 199.59375 198.957031 Z M 199.59375 198.957031 " fill-opacity="1" fill-rule="nonzero"/><path fill="#c4ccbe" d="M 186.15625 244.035156 C 186.15625 244.648438 186.097656 245.253906 185.976562 245.855469 C 185.859375 246.457031 185.679688 247.039062 185.445312 247.605469 C 185.210938 248.171875 184.925781 248.710938 184.582031 249.21875 C 184.242188 249.730469 183.855469 250.199219 183.421875 250.632812 C 182.988281 251.066406 182.515625 251.453125 182.007812 251.796875 C 181.496094 252.136719 180.957031 252.421875 180.390625 252.65625 C 179.824219 252.894531 179.242188 253.070312 178.640625 253.1875 C 178.039062 253.308594 177.429688 253.367188 176.816406 253.367188 C 176.203125 253.367188 175.597656 253.308594 174.996094 253.1875 C 174.394531 253.070312 173.808594 252.894531 173.242188 252.65625 C 172.675781 252.421875 172.140625 252.136719 171.628906 251.796875 C 171.121094 251.453125 170.648438 251.066406 170.214844 250.632812 C 169.78125 250.199219 169.394531 249.730469 169.050781 249.21875 C 168.710938 248.710938 168.425781 248.171875 168.1875 247.605469 C 167.953125 247.039062 167.777344 246.457031 167.65625 245.855469 C 167.539062 245.253906 167.476562 244.648438 167.476562 244.035156 C 167.476562 243.421875 167.539062 242.8125 167.65625 242.210938 C 167.777344 241.609375 167.953125 241.027344 168.1875 240.460938 C 168.425781 239.894531 168.710938 239.355469 169.050781 238.847656 C 169.394531 238.335938 169.78125 237.867188 170.214844 237.433594 C 170.648438 237 171.121094 236.613281 171.628906 236.273438 C 172.140625 235.929688 172.675781 235.644531 173.242188 235.410156 C 173.808594 235.175781 174.394531 234.996094 174.996094 234.878906 C 175.597656 234.757812 176.203125 234.699219 176.816406 234.699219 C 177.429688 234.699219 178.039062 234.757812 178.640625 234.878906 C 179.242188 234.996094 179.824219 235.175781 180.390625 235.410156 C 180.957031 235.644531 181.496094 235.929688 182.007812 236.273438 C 182.515625 236.613281 182.988281 237 183.421875 237.433594 C 183.855469 237.867188 184.242188 238.335938 184.582031 238.847656 C 184.925781 239.355469 185.210938 239.894531 185.445312 240.460938 C 185.679688 241.027344 185.859375 241.609375 185.976562 242.210938 C 186.097656 242.8125 186.15625 243.421875 186.15625 244.035156 Z M 186.15625 244.035156 " fill-opacity="1" fill-rule="nonzero"/><path fill="#a2ae98" d="M 175.617188 235.632812 C 171.304688 236.261719 168.199219 239.96875 168.199219 244.199219 C 169.183594 240.550781 172.316406 238.113281 176.296875 237.53125 C 179.230469 237.101562 181.984375 237.5625 184.058594 239.367188 C 182.253906 236.695312 179.019531 235.136719 175.617188 235.632812 Z M 175.617188 235.632812 " fill-opacity="1" fill-rule="nonzero"/><path fill="#ececec" d="M 175.121094 234.136719 C 170.8125 234.765625 167.441406 237.875 167.441406 242.105469 C 168.425781 238.453125 171.488281 235.550781 175.46875 234.96875 C 178.402344 234.539062 181.222656 235.460938 183.300781 237.265625 C 181.492188 234.59375 178.527344 233.636719 175.121094 234.136719 Z M 175.121094 234.136719 " fill-opacity="1" fill-rule="nonzero"/><path fill="#a2ae98" d="M 181.21875 254.496094 C 185.28125 252.925781 187.21875 248.019531 186.273438 243.894531 C 186.128906 247.671875 183.785156 251.1875 180.035156 252.636719 C 177.273438 253.707031 174.316406 253.433594 171.890625 252.136719 C 174.246094 254.339844 178.011719 255.738281 181.21875 254.496094 Z M 181.21875 254.496094 " fill-opacity="1" fill-rule="nonzero"/><path fill="#ececec" d="M 178.761719 252.425781 C 182.988281 251.382812 185.71875 247.390625 185.308594 243.179688 C 184.683594 246.910156 182.179688 249.695312 178.277344 250.660156 C 175.398438 251.371094 172.234375 251.125 169.996094 249.53125 C 172.050781 252.015625 175.421875 253.25 178.761719 252.425781 Z M 178.761719 252.425781 " fill-opacity="1" fill-rule="nonzero"/><path fill="#c4ccbe" d="M 146.832031 208.832031 C 146.832031 209.121094 146.804688 209.414062 146.746094 209.699219 C 146.6875 209.988281 146.605469 210.265625 146.492188 210.535156 C 146.378906 210.804688 146.242188 211.0625 146.078125 211.304688 C 145.917969 211.550781 145.734375 211.773438 145.527344 211.980469 C 145.320312 212.1875 145.09375 212.371094 144.851562 212.535156 C 144.605469 212.699219 144.351562 212.835938 144.078125 212.945312 C 143.808594 213.058594 143.53125 213.144531 143.242188 213.199219 C 142.957031 213.257812 142.667969 213.285156 142.375 213.285156 C 142.082031 213.285156 141.789062 213.257812 141.503906 213.199219 C 141.214844 213.144531 140.9375 213.058594 140.667969 212.945312 C 140.398438 212.835938 140.140625 212.699219 139.898438 212.535156 C 139.652344 212.371094 139.429688 212.1875 139.222656 211.980469 C 139.015625 211.773438 138.828125 211.550781 138.667969 211.304688 C 138.503906 211.0625 138.367188 210.804688 138.253906 210.535156 C 138.144531 210.265625 138.058594 209.988281 138 209.699219 C 137.945312 209.414062 137.914062 209.121094 137.914062 208.832031 C 137.914062 208.539062 137.945312 208.246094 138 207.960938 C 138.058594 207.675781 138.144531 207.394531 138.253906 207.125 C 138.367188 206.855469 138.503906 206.597656 138.667969 206.355469 C 138.828125 206.113281 139.015625 205.886719 139.222656 205.679688 C 139.429688 205.472656 139.652344 205.289062 139.898438 205.125 C 140.140625 204.964844 140.398438 204.824219 140.667969 204.714844 C 140.9375 204.601562 141.214844 204.515625 141.503906 204.460938 C 141.789062 204.402344 142.082031 204.375 142.375 204.375 C 142.667969 204.375 142.957031 204.402344 143.242188 204.460938 C 143.53125 204.515625 143.808594 204.601562 144.078125 204.714844 C 144.351562 204.824219 144.605469 204.964844 144.851562 205.125 C 145.09375 205.289062 145.320312 205.472656 145.527344 205.679688 C 145.734375 205.886719 145.917969 206.113281 146.078125 206.355469 C 146.242188 206.597656 146.378906 206.855469 146.492188 207.125 C 146.605469 207.394531 146.6875 207.675781 146.746094 207.960938 C 146.804688 208.246094 146.832031 208.539062 146.832031 208.832031 Z M 146.832031 208.832031 " fill-opacity="1" fill-rule="nonzero"/><path fill="#808080" d="M 141.796875 204.820312 C 139.738281 205.121094 138.257812 206.890625 138.257812 208.910156 C 138.726562 207.167969 140.222656 206.003906 142.121094 205.726562 C 143.523438 205.519531 144.835938 205.738281 145.828125 206.601562 C 144.964844 205.324219 143.421875 204.582031 141.796875 204.820312 Z M 141.796875 204.820312 " fill-opacity="1" fill-rule="nonzero"/><path fill="#ececec" d="M 141.5625 204.109375 C 139.503906 204.410156 137.894531 205.890625 137.898438 207.910156 C 138.367188 206.167969 139.828125 204.78125 141.726562 204.503906 C 143.128906 204.300781 144.476562 204.742188 145.464844 205.601562 C 144.605469 204.328125 143.1875 203.871094 141.5625 204.109375 Z M 141.5625 204.109375 " fill-opacity="1" fill-rule="nonzero"/><path fill="#808080" d="M 144.472656 213.824219 C 146.410156 213.074219 147.332031 210.730469 146.882812 208.765625 C 146.8125 210.566406 145.695312 212.242188 143.90625 212.9375 C 142.585938 213.449219 141.175781 213.316406 140.019531 212.699219 C 141.140625 213.75 142.941406 214.417969 144.472656 213.824219 Z M 144.472656 213.824219 " fill-opacity="1" fill-rule="nonzero"/><path fill="#ececec" d="M 143.300781 212.839844 C 145.320312 212.339844 146.621094 210.4375 146.425781 208.425781 C 146.128906 210.207031 144.933594 211.535156 143.070312 211.996094 C 141.695312 212.335938 140.1875 212.21875 139.117188 211.457031 C 140.097656 212.640625 141.707031 213.230469 143.300781 212.839844 Z M 143.300781 212.839844 " fill-opacity="1" fill-rule="nonzero"/><path fill="#daded5" d="M 165.8125 154.738281 C 165.8125 155.292969 165.757812 155.839844 165.652344 156.382812 C 165.542969 156.921875 165.382812 157.449219 165.171875 157.960938 C 164.960938 158.472656 164.699219 158.957031 164.394531 159.414062 C 164.085938 159.875 163.734375 160.300781 163.34375 160.691406 C 162.953125 161.082031 162.527344 161.433594 162.070312 161.738281 C 161.609375 162.046875 161.125 162.304688 160.613281 162.515625 C 160.101562 162.726562 159.574219 162.886719 159.03125 162.996094 C 158.488281 163.105469 157.941406 163.15625 157.390625 163.15625 C 156.835938 163.15625 156.289062 163.105469 155.746094 162.996094 C 155.203125 162.886719 154.675781 162.726562 154.164062 162.515625 C 153.65625 162.304688 153.167969 162.046875 152.710938 161.738281 C 152.25 161.433594 151.824219 161.082031 151.433594 160.691406 C 151.042969 160.300781 150.691406 159.875 150.386719 159.414062 C 150.078125 158.957031 149.820312 158.472656 149.605469 157.960938 C 149.394531 157.449219 149.234375 156.921875 149.128906 156.382812 C 149.019531 155.839844 148.964844 155.292969 148.964844 154.738281 C 148.964844 154.1875 149.019531 153.636719 149.128906 153.097656 C 149.234375 152.554688 149.394531 152.027344 149.605469 151.515625 C 149.820312 151.007812 150.078125 150.519531 150.386719 150.0625 C 150.691406 149.601562 151.042969 149.175781 151.433594 148.785156 C 151.824219 148.394531 152.25 148.046875 152.710938 147.738281 C 153.167969 147.429688 153.65625 147.171875 154.164062 146.960938 C 154.675781 146.75 155.203125 146.589844 155.746094 146.480469 C 156.289062 146.375 156.835938 146.320312 157.390625 146.320312 C 157.941406 146.320312 158.488281 146.375 159.03125 146.480469 C 159.574219 146.589844 160.101562 146.75 160.613281 146.960938 C 161.125 147.171875 161.609375 147.429688 162.070312 147.738281 C 162.527344 148.046875 162.953125 148.394531 163.34375 148.785156 C 163.734375 149.175781 164.085938 149.601562 164.394531 150.0625 C 164.699219 150.519531 164.960938 151.007812 165.171875 151.515625 C 165.382812 152.027344 165.542969 152.554688 165.652344 153.097656 C 165.757812 153.636719 165.8125 154.1875 165.8125 154.738281 Z M 165.8125 154.738281 " fill-opacity="1" fill-rule="nonzero"/><path fill="#808080" d="M 156.304688 147.160156 C 152.417969 147.730469 149.617188 151.070312 149.617188 154.886719 C 150.503906 151.59375 153.332031 149.398438 156.917969 148.875 C 159.566406 148.488281 162.046875 148.898438 163.921875 150.527344 C 162.292969 148.117188 159.375 146.714844 156.304688 147.160156 Z M 156.304688 147.160156 " fill-opacity="1" fill-rule="nonzero"/><path fill="#ececec" d="M 155.859375 145.8125 C 151.96875 146.382812 148.929688 149.183594 148.929688 153 C 149.816406 149.707031 152.582031 147.085938 156.167969 146.5625 C 158.816406 146.175781 161.359375 147.007812 163.234375 148.636719 C 161.601562 146.226562 158.925781 145.363281 155.859375 145.8125 Z M 155.859375 145.8125 " fill-opacity="1" fill-rule="nonzero"/><path fill="#808080" d="M 161.359375 164.175781 C 165.023438 162.757812 166.765625 158.332031 165.917969 154.613281 C 165.785156 158.019531 163.671875 161.1875 160.292969 162.5 C 157.796875 163.464844 155.132812 163.21875 152.941406 162.046875 C 155.066406 164.03125 158.464844 165.296875 161.359375 164.175781 Z M 161.359375 164.175781 " fill-opacity="1" fill-rule="nonzero"/><path fill="#ececec" d="M 159.140625 162.308594 C 162.953125 161.363281 165.417969 157.765625 165.046875 153.96875 C 164.484375 157.332031 162.226562 159.84375 158.707031 160.714844 C 156.109375 161.355469 153.253906 161.132812 151.234375 159.695312 C 153.089844 161.933594 156.128906 163.050781 159.140625 162.308594 Z M 159.140625 162.308594 " fill-opacity="1" fill-rule="nonzero"/><path fill="#daded5" d="M 211.96875 141.941406 C 211.96875 142.234375 211.941406 142.527344 211.882812 142.8125 C 211.828125 143.097656 211.742188 143.378906 211.632812 143.648438 C 211.519531 143.917969 211.382812 144.175781 211.21875 144.417969 C 211.054688 144.660156 210.871094 144.886719 210.664062 145.09375 C 210.457031 145.300781 210.230469 145.484375 209.988281 145.648438 C 209.746094 145.8125 209.488281 145.949219 209.21875 146.058594 C 208.949219 146.171875 208.667969 146.257812 208.382812 146.3125 C 208.09375 146.371094 207.804688 146.398438 207.511719 146.398438 C 207.21875 146.398438 206.929688 146.371094 206.644531 146.3125 C 206.355469 146.257812 206.078125 146.171875 205.804688 146.058594 C 205.535156 145.949219 205.277344 145.8125 205.035156 145.648438 C 204.792969 145.484375 204.566406 145.300781 204.359375 145.09375 C 204.152344 144.886719 203.96875 144.660156 203.804688 144.417969 C 203.644531 144.175781 203.503906 143.917969 203.394531 143.648438 C 203.28125 143.378906 203.195312 143.097656 203.140625 142.8125 C 203.082031 142.527344 203.054688 142.234375 203.054688 141.941406 C 203.054688 141.652344 203.082031 141.359375 203.140625 141.074219 C 203.195312 140.785156 203.28125 140.507812 203.394531 140.238281 C 203.503906 139.96875 203.644531 139.710938 203.804688 139.46875 C 203.96875 139.222656 204.152344 139 204.359375 138.792969 C 204.566406 138.585938 204.792969 138.402344 205.035156 138.238281 C 205.277344 138.074219 205.535156 137.9375 205.804688 137.828125 C 206.078125 137.714844 206.355469 137.628906 206.644531 137.574219 C 206.929688 137.515625 207.21875 137.488281 207.511719 137.488281 C 207.804688 137.488281 208.09375 137.515625 208.382812 137.574219 C 208.667969 137.628906 208.949219 137.714844 209.21875 137.828125 C 209.488281 137.9375 209.746094 138.074219 209.988281 138.238281 C 210.230469 138.402344 210.457031 138.585938 210.664062 138.792969 C 210.871094 139 211.054688 139.222656 211.21875 139.46875 C 211.382812 139.710938 211.519531 139.96875 211.632812 140.238281 C 211.742188 140.507812 211.828125 140.785156 211.882812 141.074219 C 211.941406 141.359375 211.96875 141.652344 211.96875 141.941406 Z M 211.96875 141.941406 " fill-opacity="1" fill-rule="nonzero"/><path fill="#808080" d="M 206.9375 137.933594 C 204.878906 138.234375 203.398438 140 203.398438 142.019531 C 203.867188 140.277344 205.363281 139.117188 207.261719 138.839844 C 208.660156 138.632812 209.976562 138.851562 210.96875 139.714844 C 210.105469 138.4375 208.5625 137.695312 206.9375 137.933594 Z M 206.9375 137.933594 " fill-opacity="1" fill-rule="nonzero"/><path fill="#ececec" d="M 206.703125 137.222656 C 204.644531 137.523438 203.035156 139.003906 203.035156 141.023438 C 203.503906 139.28125 204.96875 137.894531 206.867188 137.617188 C 208.265625 137.414062 209.613281 137.851562 210.605469 138.714844 C 209.742188 137.441406 208.328125 136.984375 206.703125 137.21875 Z M 206.703125 137.222656 " fill-opacity="1" fill-rule="nonzero"/><path fill="#808080" d="M 209.609375 146.9375 C 211.550781 146.1875 212.472656 143.84375 212.023438 141.875 C 211.953125 143.679688 210.835938 145.355469 209.046875 146.050781 C 207.726562 146.5625 206.316406 146.429688 205.15625 145.8125 C 206.28125 146.863281 208.078125 147.53125 209.609375 146.9375 Z M 209.609375 146.9375 " fill-opacity="1" fill-rule="nonzero"/><path fill="#ececec" d="M 208.4375 145.953125 C 210.457031 145.453125 211.761719 143.546875 211.566406 141.539062 C 211.265625 143.316406 210.070312 144.648438 208.210938 145.109375 C 206.835938 145.449219 205.324219 145.332031 204.253906 144.570312 C 205.238281 145.753906 206.84375 146.34375 208.4375 145.953125 Z M 208.4375 145.953125 " fill-opacity="1" fill-rule="nonzero"/><path fill="#c4ccbe" d="M 247.007812 217.082031 C 246.917969 217.550781 246.785156 218.003906 246.617188 218.445312 C 246.453125 218.886719 246.25 219.308594 246.015625 219.710938 C 245.777344 220.109375 245.511719 220.484375 245.21875 220.828125 C 244.921875 221.171875 244.605469 221.480469 244.261719 221.757812 C 243.917969 222.03125 243.558594 222.265625 243.183594 222.460938 C 242.804688 222.65625 242.417969 222.804688 242.019531 222.910156 C 241.621094 223.015625 241.222656 223.078125 240.820312 223.09375 C 240.417969 223.105469 240.023438 223.074219 239.628906 222.996094 C 239.238281 222.917969 238.859375 222.796875 238.492188 222.628906 C 238.128906 222.460938 237.78125 222.253906 237.457031 222 C 237.128906 221.75 236.828125 221.464844 236.554688 221.140625 C 236.28125 220.816406 236.039062 220.460938 235.828125 220.078125 C 235.617188 219.691406 235.441406 219.285156 235.300781 218.851562 C 235.160156 218.421875 235.058594 217.976562 234.996094 217.515625 C 234.929688 217.054688 234.90625 216.585938 234.921875 216.113281 C 234.9375 215.640625 234.988281 215.171875 235.082031 214.707031 C 235.175781 214.238281 235.304688 213.785156 235.472656 213.34375 C 235.640625 212.902344 235.84375 212.480469 236.078125 212.078125 C 236.3125 211.675781 236.578125 211.304688 236.875 210.960938 C 237.167969 210.617188 237.488281 210.304688 237.832031 210.03125 C 238.171875 209.757812 238.53125 209.523438 238.910156 209.328125 C 239.289062 209.132812 239.675781 208.984375 240.070312 208.878906 C 240.46875 208.769531 240.871094 208.710938 241.269531 208.695312 C 241.671875 208.679688 242.070312 208.714844 242.460938 208.792969 C 242.855469 208.871094 243.230469 208.992188 243.597656 209.160156 C 243.964844 209.328125 244.308594 209.535156 244.636719 209.785156 C 244.960938 210.039062 245.261719 210.324219 245.535156 210.648438 C 245.808594 210.972656 246.054688 211.328125 246.265625 211.710938 C 246.476562 212.097656 246.652344 212.503906 246.792969 212.9375 C 246.929688 213.367188 247.035156 213.8125 247.097656 214.273438 C 247.160156 214.734375 247.1875 215.203125 247.171875 215.675781 C 247.15625 216.148438 247.101562 216.617188 247.007812 217.082031 Z M 247.007812 217.082031 " fill-opacity="1" fill-rule="nonzero"/><path fill="#a2ae98" d="M 241.554688 209.347656 C 238.707031 209.277344 236.160156 211.703125 235.519531 214.921875 C 236.703125 212.269531 239.070312 210.8125 241.699219 210.878906 C 243.636719 210.925781 245.328125 211.625 246.378906 213.261719 C 245.632812 211 243.804688 209.402344 241.554688 209.347656 Z M 241.554688 209.347656 " fill-opacity="1" fill-rule="nonzero"/><path fill="#ececec" d="M 241.464844 208.148438 C 238.613281 208.078125 235.992188 210.011719 235.351562 213.234375 C 236.53125 210.582031 238.929688 208.761719 241.558594 208.824219 C 243.496094 208.871094 245.15625 209.929688 246.210938 211.566406 C 245.460938 209.304688 243.710938 208.199219 241.464844 208.148438 Z M 241.464844 208.148438 " fill-opacity="1" fill-rule="nonzero"/><path fill="#a2ae98" d="M 242.269531 224.414062 C 245.101562 223.730469 247.082031 220.246094 247.105469 216.988281 C 246.4375 219.84375 244.410156 222.21875 241.796875 222.847656 C 239.867188 223.3125 238.023438 222.726562 236.667969 221.429688 C 237.839844 223.40625 240.03125 224.949219 242.269531 224.414062 Z M 242.269531 224.414062 " fill-opacity="1" fill-rule="nonzero"/><path fill="#ececec" d="M 241.011719 222.523438 C 243.871094 222.265625 246.222656 219.578125 246.597656 216.324219 C 245.632812 219.078125 243.613281 220.882812 240.972656 221.121094 C 239.027344 221.292969 237.042969 220.703125 235.855469 219.207031 C 236.792969 221.359375 238.753906 222.726562 241.011719 222.523438 Z M 241.011719 222.523438 " fill-opacity="1" fill-rule="nonzero"/><path fill="#c4ccbe" d="M 199.679688 199.242188 C 199.679688 199.703125 199.632812 200.160156 199.542969 200.613281 C 199.453125 201.066406 199.320312 201.503906 199.144531 201.929688 C 198.964844 202.355469 198.75 202.761719 198.492188 203.144531 C 198.238281 203.527344 197.945312 203.882812 197.621094 204.210938 C 197.292969 204.535156 196.9375 204.828125 196.554688 205.082031 C 196.171875 205.339844 195.765625 205.554688 195.339844 205.730469 C 194.914062 205.910156 194.472656 206.042969 194.019531 206.132812 C 193.570312 206.222656 193.113281 206.265625 192.648438 206.265625 C 192.1875 206.265625 191.730469 206.222656 191.277344 206.132812 C 190.828125 206.042969 190.386719 205.910156 189.960938 205.730469 C 189.535156 205.554688 189.128906 205.339844 188.746094 205.082031 C 188.363281 204.828125 188.007812 204.535156 187.679688 204.210938 C 187.355469 203.882812 187.0625 203.527344 186.808594 203.144531 C 186.550781 202.761719 186.332031 202.355469 186.15625 201.929688 C 185.980469 201.503906 185.847656 201.066406 185.757812 200.613281 C 185.667969 200.160156 185.621094 199.703125 185.621094 199.242188 C 185.621094 198.78125 185.667969 198.324219 185.757812 197.871094 C 185.847656 197.417969 185.980469 196.980469 186.15625 196.554688 C 186.332031 196.128906 186.550781 195.722656 186.808594 195.339844 C 187.0625 194.957031 187.355469 194.601562 187.679688 194.273438 C 188.007812 193.949219 188.363281 193.65625 188.746094 193.402344 C 189.128906 193.144531 189.535156 192.929688 189.960938 192.753906 C 190.386719 192.574219 190.828125 192.441406 191.277344 192.351562 C 191.730469 192.261719 192.1875 192.21875 192.648438 192.21875 C 193.113281 192.21875 193.570312 192.261719 194.019531 192.351562 C 194.472656 192.441406 194.914062 192.574219 195.339844 192.753906 C 195.765625 192.929688 196.171875 193.144531 196.554688 193.402344 C 196.9375 193.65625 197.292969 193.949219 197.621094 194.273438 C 197.945312 194.601562 198.238281 194.957031 198.492188 195.339844 C 198.75 195.722656 198.964844 196.128906 199.144531 196.554688 C 199.320312 196.980469 199.453125 197.417969 199.542969 197.871094 C 199.632812 198.324219 199.679688 198.78125 199.679688 199.242188 Z M 199.679688 199.242188 " fill-opacity="1" fill-rule="nonzero"/><path fill="#ececec" d="M 197.277344 200.378906 C 197.167969 203.222656 192.46875 204.445312 189.113281 203.9375 C 185.152344 206.691406 182.828125 207.410156 177.433594 209.609375 C 169.75 211.121094 163.402344 208.894531 157.753906 205.871094 C 163.238281 211 172.011719 214.257812 179.480469 211.363281 C 183.328125 209.875 187.066406 208.34375 189.15625 204.925781 C 190.257812 205.070312 190.980469 205.628906 192.9375 205.515625 C 194.214844 205.667969 197.273438 205.972656 197.277344 200.378906 Z M 197.277344 200.378906 " fill-opacity="1" fill-rule="nonzero"/><path fill="#c4ccbe" d="M 210.027344 220.808594 C 210.027344 221.386719 209.96875 221.960938 209.855469 222.527344 C 209.742188 223.09375 209.578125 223.648438 209.355469 224.179688 C 209.132812 224.714844 208.863281 225.222656 208.539062 225.703125 C 208.21875 226.1875 207.851562 226.628906 207.445312 227.039062 C 207.035156 227.449219 206.589844 227.8125 206.109375 228.136719 C 205.625 228.457031 205.117188 228.730469 204.582031 228.949219 C 204.050781 229.171875 203.496094 229.339844 202.929688 229.453125 C 202.363281 229.566406 201.789062 229.621094 201.210938 229.621094 C 200.632812 229.621094 200.058594 229.566406 199.488281 229.453125 C 198.921875 229.339844 198.371094 229.171875 197.835938 228.949219 C 197.300781 228.730469 196.792969 228.457031 196.3125 228.136719 C 195.832031 227.8125 195.386719 227.449219 194.976562 227.039062 C 194.566406 226.628906 194.203125 226.1875 193.878906 225.703125 C 193.558594 225.222656 193.285156 224.714844 193.066406 224.179688 C 192.84375 223.648438 192.675781 223.09375 192.5625 222.527344 C 192.449219 221.960938 192.394531 221.386719 192.394531 220.808594 C 192.394531 220.230469 192.449219 219.65625 192.5625 219.089844 C 192.675781 218.523438 192.84375 217.972656 193.066406 217.4375 C 193.285156 216.902344 193.558594 216.394531 193.878906 215.914062 C 194.203125 215.433594 194.566406 214.988281 194.976562 214.578125 C 195.386719 214.167969 195.832031 213.804688 196.3125 213.480469 C 196.792969 213.160156 197.300781 212.890625 197.835938 212.667969 C 198.371094 212.445312 198.921875 212.277344 199.488281 212.167969 C 200.058594 212.054688 200.632812 211.996094 201.210938 211.996094 C 201.789062 211.996094 202.363281 212.054688 202.929688 212.167969 C 203.496094 212.277344 204.050781 212.445312 204.582031 212.667969 C 205.117188 212.890625 205.625 213.160156 206.109375 213.480469 C 206.589844 213.804688 207.035156 214.167969 207.445312 214.578125 C 207.851562 214.988281 208.21875 215.433594 208.539062 215.914062 C 208.863281 216.394531 209.132812 216.902344 209.355469 217.4375 C 209.578125 217.972656 209.742188 218.523438 209.855469 219.089844 C 209.96875 219.65625 210.027344 220.230469 210.027344 220.808594 Z M 210.027344 220.808594 " fill-opacity="1" fill-rule="nonzero"/><path fill="#a2ae98" d="M 200.074219 212.878906 C 196.003906 213.472656 193.074219 216.972656 193.074219 220.964844 C 194 217.519531 196.960938 215.21875 200.714844 214.671875 C 203.484375 214.265625 206.085938 214.699219 208.046875 216.402344 C 206.339844 213.878906 203.289062 212.410156 200.074219 212.878906 Z M 200.074219 212.878906 " fill-opacity="1" fill-rule="nonzero"/><path fill="#ececec" d="M 199.609375 211.464844 C 195.539062 212.0625 192.355469 214.992188 192.355469 218.988281 C 193.285156 215.542969 196.179688 212.800781 199.933594 212.25 C 202.703125 211.84375 205.367188 212.71875 207.328125 214.421875 C 205.621094 211.898438 202.820312 210.996094 199.609375 211.464844 Z M 199.609375 211.464844 " fill-opacity="1" fill-rule="nonzero"/><path fill="#a2ae98" d="M 205.363281 230.683594 C 209.199219 229.199219 211.023438 224.570312 210.136719 220.675781 C 209.996094 224.242188 207.785156 227.558594 204.246094 228.929688 C 201.636719 229.941406 198.847656 229.683594 196.554688 228.457031 C 198.78125 230.535156 202.335938 231.859375 205.363281 230.683594 Z M 205.363281 230.683594 " fill-opacity="1" fill-rule="nonzero"/><path fill="#ececec" d="M 203.042969 228.730469 C 207.035156 227.746094 209.613281 223.980469 209.226562 220.003906 C 208.636719 223.523438 206.273438 226.15625 202.589844 227.066406 C 199.871094 227.738281 196.882812 227.503906 194.769531 225.996094 C 196.710938 228.34375 199.890625 229.511719 203.042969 228.730469 Z M 203.042969 228.730469 " fill-opacity="1" fill-rule="nonzero"/><path fill="#e2e4df" d="M 179.253906 130.820312 C 179.292969 131.023438 179.285156 131.238281 179.234375 131.457031 C 179.179688 131.671875 179.085938 131.894531 178.945312 132.113281 C 178.804688 132.335938 178.625 132.554688 178.402344 132.773438 C 178.183594 132.988281 177.925781 133.199219 177.628906 133.402344 C 177.335938 133.605469 177.007812 133.800781 176.652344 133.980469 C 176.292969 134.164062 175.914062 134.332031 175.507812 134.488281 C 175.101562 134.640625 174.679688 134.777344 174.242188 134.898438 C 173.804688 135.019531 173.359375 135.121094 172.902344 135.203125 C 172.449219 135.285156 171.996094 135.34375 171.542969 135.386719 C 171.089844 135.425781 170.648438 135.445312 170.214844 135.441406 C 169.78125 135.4375 169.363281 135.414062 168.964844 135.367188 C 168.566406 135.320312 168.195312 135.253906 167.847656 135.164062 C 167.5 135.078125 167.183594 134.96875 166.902344 134.84375 C 166.617188 134.71875 166.371094 134.574219 166.164062 134.417969 C 165.957031 134.257812 165.789062 134.085938 165.664062 133.898438 C 165.539062 133.714844 165.457031 133.515625 165.421875 133.3125 C 165.382812 133.105469 165.390625 132.894531 165.445312 132.675781 C 165.496094 132.457031 165.59375 132.238281 165.730469 132.015625 C 165.871094 131.792969 166.050781 131.574219 166.273438 131.359375 C 166.496094 131.140625 166.753906 130.929688 167.046875 130.726562 C 167.34375 130.523438 167.667969 130.332031 168.023438 130.148438 C 168.382812 129.964844 168.761719 129.796875 169.167969 129.644531 C 169.574219 129.488281 169.996094 129.351562 170.433594 129.230469 C 170.871094 129.109375 171.316406 129.007812 171.773438 128.929688 C 172.226562 128.847656 172.679688 128.785156 173.132812 128.746094 C 173.585938 128.703125 174.027344 128.6875 174.460938 128.691406 C 174.894531 128.691406 175.3125 128.71875 175.710938 128.765625 C 176.109375 128.8125 176.480469 128.878906 176.828125 128.964844 C 177.175781 129.054688 177.492188 129.160156 177.773438 129.285156 C 178.058594 129.410156 178.304688 129.554688 178.511719 129.714844 C 178.71875 129.871094 178.886719 130.046875 179.011719 130.230469 C 179.136719 130.417969 179.21875 130.613281 179.253906 130.820312 Z M 179.253906 130.820312 " fill-opacity="0.976" fill-rule="nonzero"/><path fill="#808080" d="M 170.9375 129.402344 C 167.78125 130.191406 165.707031 131.851562 165.960938 133.273438 C 166.46875 131.914062 168.644531 130.675781 171.554688 129.953125 C 173.703125 129.417969 175.769531 129.203125 177.414062 129.53125 C 175.914062 128.875 173.425781 128.78125 170.9375 129.402344 Z M 170.9375 129.402344 " fill-opacity="1" fill-rule="nonzero"/><path fill="#ececec" d="M 170.480469 128.964844 C 167.324219 129.753906 165.019531 131.246094 165.273438 132.667969 C 165.78125 131.3125 167.875 129.925781 170.785156 129.199219 C 172.933594 128.664062 175.078125 128.597656 176.726562 128.925781 C 175.226562 128.269531 172.972656 128.34375 170.480469 128.964844 Z M 170.480469 128.964844 " fill-opacity="1" fill-rule="nonzero"/><path fill="#808080" d="M 176.230469 134.996094 C 179.144531 133.925781 180.277344 132.019531 179.332031 130.761719 C 179.449219 132.046875 177.929688 133.542969 175.242188 134.53125 C 173.257812 135.257812 171.050781 135.5625 169.175781 135.449219 C 171.054688 135.875 173.929688 135.84375 176.230469 134.996094 Z M 176.230469 134.996094 " fill-opacity="1" fill-rule="nonzero"/><path fill="#ececec" d="M 174.28125 134.628906 C 177.351562 133.710938 179.132812 132.007812 178.574219 130.644531 C 178.335938 131.980469 176.652344 133.253906 173.820312 134.097656 C 171.730469 134.722656 169.371094 135.058594 167.613281 134.824219 C 169.289062 135.382812 171.859375 135.351562 174.28125 134.628906 Z M 174.28125 134.628906 " fill-opacity="1" fill-rule="nonzero"/><path fill="#c4ccbe" d="M 145.367188 236.207031 C 145.574219 236.683594 145.761719 237.160156 145.925781 237.644531 C 146.089844 238.128906 146.230469 238.609375 146.34375 239.082031 C 146.457031 239.554688 146.542969 240.015625 146.605469 240.460938 C 146.664062 240.90625 146.695312 241.328125 146.695312 241.730469 C 146.699219 242.128906 146.671875 242.496094 146.617188 242.835938 C 146.5625 243.175781 146.480469 243.476562 146.371094 243.742188 C 146.261719 244.007812 146.125 244.230469 145.964844 244.410156 C 145.804688 244.59375 145.621094 244.726562 145.417969 244.816406 C 145.210938 244.90625 144.988281 244.949219 144.746094 244.945312 C 144.503906 244.941406 144.25 244.890625 143.980469 244.789062 C 143.710938 244.691406 143.433594 244.546875 143.144531 244.359375 C 142.859375 244.167969 142.570312 243.9375 142.277344 243.664062 C 141.984375 243.390625 141.695312 243.082031 141.40625 242.738281 C 141.121094 242.390625 140.839844 242.015625 140.570312 241.613281 C 140.296875 241.207031 140.039062 240.78125 139.796875 240.332031 C 139.550781 239.882812 139.324219 239.417969 139.117188 238.945312 C 138.90625 238.46875 138.71875 237.988281 138.554688 237.503906 C 138.390625 237.019531 138.253906 236.542969 138.136719 236.066406 C 138.023438 235.59375 137.9375 235.136719 137.878906 234.691406 C 137.816406 234.242188 137.789062 233.820312 137.785156 233.421875 C 137.78125 233.023438 137.808594 232.652344 137.863281 232.3125 C 137.917969 231.972656 138 231.671875 138.109375 231.40625 C 138.21875 231.140625 138.355469 230.917969 138.515625 230.738281 C 138.675781 230.558594 138.859375 230.421875 139.066406 230.332031 C 139.269531 230.242188 139.492188 230.199219 139.734375 230.203125 C 139.976562 230.207031 140.234375 230.261719 140.503906 230.359375 C 140.773438 230.457031 141.050781 230.601562 141.335938 230.792969 C 141.621094 230.980469 141.914062 231.210938 142.203125 231.484375 C 142.496094 231.757812 142.789062 232.066406 143.074219 232.414062 C 143.363281 232.757812 143.640625 233.132812 143.914062 233.539062 C 144.183594 233.945312 144.441406 234.371094 144.6875 234.820312 C 144.929688 235.269531 145.15625 235.730469 145.367188 236.207031 Z M 145.367188 236.207031 " fill-opacity="1" fill-rule="nonzero"/><path fill="#a2ae98" d="M 138.980469 231.234375 C 137.75 232.351562 137.972656 235.683594 139.414062 238.964844 C 138.5 235.992188 138.71875 233.640625 139.851562 232.605469 C 140.6875 231.84375 141.765625 231.796875 143.074219 232.890625 C 141.5625 231.082031 139.949219 230.347656 138.980469 231.234375 Z M 138.980469 231.234375 " fill-opacity="1" fill-rule="nonzero"/><path fill="#ececec" d="M 138.304688 230.148438 C 137.078125 231.269531 137.007812 234.171875 138.449219 237.457031 C 137.535156 234.480469 137.570312 231.777344 138.703125 230.742188 C 139.539062 229.980469 140.796875 230.28125 142.105469 231.378906 C 140.59375 229.570312 139.277344 229.261719 138.304688 230.148438 Z M 138.304688 230.148438 " fill-opacity="1" fill-rule="nonzero"/><path fill="#a2ae98" d="M 147.273438 245.046875 C 148.097656 243.230469 147.074219 239.140625 145.355469 236.082031 C 146.59375 239.03125 147.003906 242.101562 146.246094 243.777344 C 145.683594 245.015625 144.601562 245.234375 143.347656 244.585938 C 144.886719 245.949219 146.621094 246.480469 147.273438 245.046875 Z M 147.273438 245.046875 " fill-opacity="1" fill-rule="nonzero"/><path fill="#ececec" d="M 145.746094 243.800781 C 146.804688 242.371094 146.359375 238.875 144.792969 235.667969 C 145.851562 238.652344 145.960938 241.183594 144.984375 242.503906 C 144.261719 243.476562 143.121094 243.75 141.828125 242.839844 C 143.359375 244.464844 144.910156 244.933594 145.746094 243.804688 Z M 145.746094 243.800781 " fill-opacity="1" fill-rule="nonzero"/><path fill="#c4ccbe" d="M 235.980469 162.179688 C 236.15625 162.839844 236.257812 163.511719 236.28125 164.199219 C 236.304688 164.886719 236.25 165.574219 236.117188 166.261719 C 235.988281 166.949219 235.785156 167.625 235.503906 168.285156 C 235.226562 168.949219 234.875 169.585938 234.460938 170.195312 C 234.042969 170.804688 233.5625 171.378906 233.023438 171.917969 C 232.484375 172.453125 231.894531 172.941406 231.253906 173.382812 C 230.613281 173.824219 229.933594 174.210938 229.214844 174.539062 C 228.5 174.871094 227.757812 175.136719 226.988281 175.339844 C 226.222656 175.546875 225.445312 175.683594 224.660156 175.757812 C 223.875 175.828125 223.09375 175.832031 222.316406 175.769531 C 221.542969 175.707031 220.785156 175.578125 220.050781 175.378906 C 219.316406 175.183594 218.613281 174.925781 217.949219 174.605469 C 217.28125 174.28125 216.660156 173.902344 216.089844 173.46875 C 215.515625 173.035156 215.003906 172.550781 214.546875 172.019531 C 214.089844 171.488281 213.699219 170.921875 213.378906 170.3125 C 213.054688 169.707031 212.804688 169.074219 212.628906 168.414062 C 212.453125 167.753906 212.351562 167.082031 212.328125 166.394531 C 212.308594 165.707031 212.359375 165.019531 212.492188 164.332031 C 212.621094 163.644531 212.824219 162.96875 213.105469 162.308594 C 213.382812 161.644531 213.734375 161.007812 214.148438 160.398438 C 214.566406 159.785156 215.046875 159.210938 215.585938 158.675781 C 216.125 158.140625 216.714844 157.648438 217.355469 157.207031 C 217.996094 156.765625 218.675781 156.382812 219.394531 156.050781 C 220.109375 155.722656 220.851562 155.457031 221.621094 155.25 C 222.386719 155.046875 223.164062 154.90625 223.949219 154.835938 C 224.734375 154.765625 225.515625 154.757812 226.292969 154.824219 C 227.066406 154.886719 227.824219 155.015625 228.558594 155.210938 C 229.292969 155.410156 229.996094 155.667969 230.660156 155.988281 C 231.328125 156.3125 231.949219 156.6875 232.519531 157.125 C 233.09375 157.558594 233.605469 158.042969 234.0625 158.570312 C 234.519531 159.101562 234.910156 159.671875 235.230469 160.277344 C 235.554688 160.886719 235.804688 161.519531 235.980469 162.179688 Z M 235.980469 162.179688 " fill-opacity="1" fill-rule="nonzero"/><path fill="#a2ae98" d="M 220.382812 156.660156 C 215.175781 158.777344 212.359375 163.800781 213.578125 168.355469 C 213.757812 164.097656 216.972656 160.429688 221.777344 158.476562 C 225.324219 157.035156 228.898438 156.609375 232.011719 157.859375 C 228.984375 155.585938 224.496094 154.988281 220.382812 156.660156 Z M 220.382812 156.660156 " fill-opacity="1" fill-rule="nonzero"/><path fill="#ececec" d="M 219.332031 155.214844 C 214.125 157.332031 210.804688 161.800781 212.023438 166.351562 C 212.199219 162.097656 215.199219 157.949219 220.003906 155.992188 C 223.546875 154.550781 227.339844 154.605469 230.453125 155.851562 C 227.425781 153.582031 223.441406 153.542969 219.332031 155.214844 Z M 219.332031 155.214844 " fill-opacity="1" fill-rule="nonzero"/><path fill="#a2ae98" d="M 232.808594 175.089844 C 237.433594 172.039062 238.441406 166.117188 236.078125 161.992188 C 236.980469 166.105469 235.0625 170.667969 230.796875 173.484375 C 227.648438 175.558594 223.875 176.25 220.46875 175.664062 C 224.046875 177.25 229.15625 177.496094 232.808594 175.089844 Z M 232.808594 175.089844 " fill-opacity="1" fill-rule="nonzero"/><path fill="#ececec" d="M 229.144531 173.683594 C 234.132812 171.144531 236.398438 165.941406 234.671875 161.546875 C 234.964844 165.765625 232.636719 169.601562 228.035156 171.941406 C 224.640625 173.667969 220.613281 174.460938 217.355469 173.492188 C 220.640625 175.476562 225.207031 175.683594 229.144531 173.683594 Z M 229.144531 173.683594 " fill-opacity="1" fill-rule="nonzero"/><path fill="#a2ae98" d="M 219.441406 165.253906 C 218.421875 165.667969 217.875 166.648438 218.109375 167.539062 C 218.144531 166.707031 218.773438 165.988281 219.710938 165.609375 C 220.40625 165.328125 221.101562 165.246094 221.710938 165.488281 C 221.121094 165.042969 220.242188 164.929688 219.441406 165.253906 Z M 219.441406 165.253906 " fill-opacity="1" fill-rule="nonzero"/><path fill="#ececec" d="M 219.234375 164.972656 C 218.21875 165.386719 217.570312 166.257812 217.808594 167.148438 C 217.84375 166.316406 218.425781 165.503906 219.367188 165.125 C 220.058594 164.84375 220.796875 164.851562 221.40625 165.097656 C 220.816406 164.652344 220.039062 164.644531 219.234375 164.972656 Z M 219.234375 164.972656 " fill-opacity="1" fill-rule="nonzero"/><path fill="#a2ae98" d="M 221.867188 168.851562 C 222.769531 168.257812 222.964844 167.101562 222.503906 166.296875 C 222.679688 167.097656 222.308594 167.988281 221.472656 168.539062 C 220.859375 168.945312 220.121094 169.078125 219.457031 168.964844 C 220.15625 169.273438 221.152344 169.324219 221.867188 168.851562 Z M 221.867188 168.851562 " fill-opacity="1" fill-rule="nonzero"/><path fill="#ececec" d="M 221.148438 168.578125 C 222.125 168.082031 222.566406 167.066406 222.230469 166.207031 C 222.285156 167.03125 221.832031 167.78125 220.933594 168.238281 C 220.269531 168.574219 219.484375 168.730469 218.847656 168.539062 C 219.488281 168.929688 220.382812 168.96875 221.148438 168.578125 Z M 221.148438 168.578125 " fill-opacity="1" fill-rule="nonzero"/><path fill="#a2ae98" d="M 224.417969 160.289062 C 223.683594 160.585938 223.289062 161.292969 223.460938 161.933594 C 223.484375 161.332031 223.9375 160.816406 224.613281 160.542969 C 225.113281 160.339844 225.613281 160.28125 226.050781 160.457031 C 225.625 160.136719 224.996094 160.050781 224.417969 160.289062 Z M 224.417969 160.289062 " fill-opacity="1" fill-rule="nonzero"/><path fill="#ececec" d="M 224.269531 160.085938 C 223.535156 160.382812 223.070312 161.011719 223.242188 161.652344 C 223.265625 161.050781 223.6875 160.46875 224.363281 160.195312 C 224.863281 159.992188 225.394531 160 225.832031 160.175781 C 225.40625 159.855469 224.847656 159.847656 224.269531 160.085938 Z M 224.269531 160.085938 " fill-opacity="1" fill-rule="nonzero"/><path fill="#a2ae98" d="M 226.164062 162.878906 C 226.816406 162.453125 226.957031 161.617188 226.625 161.039062 C 226.75 161.617188 226.480469 162.257812 225.882812 162.652344 C 225.4375 162.945312 224.910156 163.042969 224.429688 162.960938 C 224.933594 163.183594 225.652344 163.21875 226.164062 162.878906 Z M 226.164062 162.878906 " fill-opacity="1" fill-rule="nonzero"/><path fill="#ececec" d="M 225.648438 162.683594 C 226.351562 162.324219 226.667969 161.59375 226.425781 160.976562 C 226.46875 161.570312 226.140625 162.109375 225.492188 162.4375 C 225.015625 162.679688 224.449219 162.792969 223.992188 162.65625 C 224.453125 162.933594 225.09375 162.964844 225.648438 162.683594 Z M 225.648438 162.683594 " fill-opacity="1" fill-rule="nonzero"/><path fill="#c4ccbe" d="M 179.53125 184.066406 C 179.53125 184.410156 179.496094 184.753906 179.425781 185.089844 C 179.351562 185.429688 179.242188 185.757812 179.101562 186.074219 C 178.957031 186.394531 178.785156 186.695312 178.574219 186.980469 C 178.367188 187.269531 178.132812 187.535156 177.871094 187.777344 C 177.605469 188.019531 177.320312 188.238281 177.007812 188.429688 C 176.699219 188.621094 176.371094 188.78125 176.027344 188.914062 C 175.683594 189.046875 175.328125 189.144531 174.960938 189.214844 C 174.597656 189.28125 174.226562 189.316406 173.855469 189.316406 C 173.480469 189.316406 173.113281 189.28125 172.746094 189.214844 C 172.382812 189.144531 172.027344 189.046875 171.683594 188.914062 C 171.335938 188.78125 171.011719 188.621094 170.699219 188.429688 C 170.390625 188.238281 170.105469 188.019531 169.839844 187.777344 C 169.578125 187.535156 169.339844 187.269531 169.132812 186.980469 C 168.925781 186.695312 168.75 186.394531 168.609375 186.074219 C 168.464844 185.757812 168.359375 185.429688 168.285156 185.089844 C 168.214844 184.753906 168.175781 184.410156 168.175781 184.066406 C 168.175781 183.722656 168.214844 183.378906 168.285156 183.042969 C 168.359375 182.703125 168.464844 182.375 168.609375 182.058594 C 168.75 181.738281 168.925781 181.4375 169.132812 181.148438 C 169.339844 180.863281 169.578125 180.597656 169.839844 180.355469 C 170.105469 180.109375 170.390625 179.894531 170.699219 179.703125 C 171.011719 179.511719 171.335938 179.347656 171.683594 179.21875 C 172.027344 179.085938 172.382812 178.984375 172.746094 178.917969 C 173.113281 178.851562 173.480469 178.816406 173.855469 178.816406 C 174.226562 178.816406 174.597656 178.851562 174.960938 178.917969 C 175.328125 178.984375 175.683594 179.085938 176.027344 179.21875 C 176.371094 179.347656 176.699219 179.511719 177.007812 179.703125 C 177.320312 179.894531 177.605469 180.109375 177.871094 180.355469 C 178.132812 180.597656 178.367188 180.863281 178.574219 181.148438 C 178.785156 181.4375 178.957031 181.738281 179.101562 182.058594 C 179.242188 182.375 179.351562 182.703125 179.425781 183.042969 C 179.496094 183.378906 179.53125 183.722656 179.53125 184.066406 Z M 179.53125 184.066406 " fill-opacity="1" fill-rule="nonzero"/><path fill="#a2ae98" d="M 173.121094 179.34375 C 170.5 179.695312 168.613281 181.78125 168.613281 184.15625 C 169.210938 182.105469 171.117188 180.734375 173.535156 180.410156 C 175.320312 180.167969 176.992188 180.425781 178.253906 181.441406 C 177.15625 179.9375 175.191406 179.0625 173.121094 179.339844 Z M 173.121094 179.34375 " fill-opacity="1" fill-rule="nonzero"/><path fill="#ececec" d="M 172.824219 178.503906 C 170.203125 178.855469 168.152344 180.605469 168.152344 182.980469 C 168.75 180.929688 170.613281 179.296875 173.03125 178.96875 C 174.816406 178.726562 176.53125 179.246094 177.792969 180.261719 C 176.695312 178.761719 174.890625 178.222656 172.824219 178.503906 Z M 172.824219 178.503906 " fill-opacity="1" fill-rule="nonzero"/><path fill="#a2ae98" d="M 176.527344 189.949219 C 179 189.0625 180.175781 186.304688 179.601562 183.988281 C 179.511719 186.109375 178.089844 188.085938 175.808594 188.902344 C 174.128906 189.503906 172.332031 189.351562 170.855469 188.621094 C 172.289062 189.859375 174.578125 190.644531 176.527344 189.949219 Z M 176.527344 189.949219 " fill-opacity="1" fill-rule="nonzero"/><path fill="#ececec" d="M 175.035156 188.785156 C 177.609375 188.195312 179.269531 185.953125 179.019531 183.585938 C 178.640625 185.683594 177.117188 187.25 174.742188 187.792969 C 172.992188 188.191406 171.070312 188.054688 169.707031 187.15625 C 170.957031 188.550781 173.007812 189.25 175.035156 188.785156 Z M 175.035156 188.785156 " fill-opacity="1" fill-rule="nonzero"/><path fill="#c4ccbe" d="M 201.878906 237.769531 C 201.878906 238.25 201.789062 238.710938 201.605469 239.15625 C 201.421875 239.597656 201.160156 239.992188 200.820312 240.328125 C 200.480469 240.667969 200.089844 240.929688 199.644531 241.113281 C 199.203125 241.296875 198.738281 241.390625 198.257812 241.390625 C 197.78125 241.390625 197.316406 241.296875 196.875 241.113281 C 196.429688 240.929688 196.039062 240.667969 195.699219 240.328125 C 195.359375 239.992188 195.097656 239.597656 194.914062 239.15625 C 194.730469 238.710938 194.640625 238.25 194.640625 237.769531 C 194.640625 237.292969 194.730469 236.828125 194.914062 236.386719 C 195.097656 235.941406 195.359375 235.550781 195.699219 235.210938 C 196.039062 234.875 196.429688 234.613281 196.875 234.429688 C 197.316406 234.246094 197.78125 234.152344 198.257812 234.152344 C 198.738281 234.152344 199.203125 234.246094 199.644531 234.429688 C 200.089844 234.613281 200.480469 234.875 200.820312 235.210938 C 201.160156 235.550781 201.421875 235.941406 201.605469 236.386719 C 201.789062 236.828125 201.878906 237.292969 201.878906 237.769531 Z M 201.878906 237.769531 " fill-opacity="1" fill-rule="nonzero"/><path fill="#a2ae98" d="M 197.792969 234.515625 C 196.121094 234.757812 194.917969 236.195312 194.917969 237.835938 C 195.300781 236.421875 196.515625 235.476562 198.058594 235.25 C 199.195312 235.085938 200.261719 235.261719 201.066406 235.960938 C 200.367188 234.925781 199.113281 234.324219 197.792969 234.515625 Z M 197.792969 234.515625 " fill-opacity="1" fill-rule="nonzero"/><path fill="#ececec" d="M 197.601562 233.933594 C 195.929688 234.179688 194.625 235.382812 194.625 237.023438 C 195.007812 235.609375 196.195312 234.484375 197.734375 234.257812 C 198.875 234.089844 199.96875 234.449219 200.773438 235.148438 C 200.070312 234.113281 198.921875 233.742188 197.601562 233.933594 Z M 197.601562 233.933594 " fill-opacity="1" fill-rule="nonzero"/><path fill="#a2ae98" d="M 199.964844 241.828125 C 201.539062 241.21875 202.289062 239.316406 201.925781 237.71875 C 201.867188 239.179688 200.960938 240.542969 199.507812 241.105469 C 198.433594 241.519531 197.289062 241.414062 196.347656 240.910156 C 197.261719 241.765625 198.722656 242.308594 199.964844 241.828125 Z M 199.964844 241.828125 " fill-opacity="1" fill-rule="nonzero"/><path fill="#ececec" d="M 199.011719 241.023438 C 200.652344 240.621094 201.710938 239.074219 201.550781 237.441406 C 201.308594 238.886719 200.339844 239.964844 198.824219 240.339844 C 197.710938 240.617188 196.484375 240.519531 195.613281 239.902344 C 196.410156 240.863281 197.71875 241.34375 199.011719 241.023438 Z M 199.011719 241.023438 " fill-opacity="1" fill-rule="nonzero"/><path fill="#c4ccbe" d="M 176.867188 241.675781 C 176.867188 242.039062 176.796875 242.390625 176.660156 242.730469 C 176.519531 243.066406 176.320312 243.367188 176.0625 243.625 C 175.800781 243.882812 175.503906 244.082031 175.167969 244.222656 C 174.828125 244.359375 174.476562 244.429688 174.109375 244.429688 C 173.746094 244.429688 173.394531 244.359375 173.054688 244.222656 C 172.71875 244.082031 172.421875 243.882812 172.160156 243.625 C 171.902344 243.367188 171.703125 243.066406 171.5625 242.730469 C 171.425781 242.390625 171.355469 242.039062 171.355469 241.675781 C 171.355469 241.308594 171.425781 240.957031 171.5625 240.621094 C 171.703125 240.28125 171.902344 239.984375 172.160156 239.726562 C 172.421875 239.46875 172.71875 239.269531 173.054688 239.128906 C 173.394531 238.988281 173.746094 238.917969 174.109375 238.917969 C 174.476562 238.917969 174.828125 238.988281 175.167969 239.128906 C 175.503906 239.269531 175.800781 239.46875 176.0625 239.726562 C 176.320312 239.984375 176.519531 240.28125 176.660156 240.621094 C 176.796875 240.957031 176.867188 241.308594 176.867188 241.675781 Z M 176.867188 241.675781 " fill-opacity="1" fill-rule="nonzero"/><path fill="#a2ae98" d="M 173.757812 239.195312 C 172.484375 239.378906 171.566406 240.476562 171.566406 241.722656 C 171.855469 240.644531 172.78125 239.925781 173.957031 239.753906 C 174.824219 239.628906 175.636719 239.765625 176.25 240.296875 C 175.714844 239.507812 174.761719 239.046875 173.757812 239.195312 Z M 173.757812 239.195312 " fill-opacity="1" fill-rule="nonzero"/><path fill="#ececec" d="M 173.609375 238.753906 C 172.335938 238.9375 171.34375 239.855469 171.34375 241.105469 C 171.632812 240.027344 172.539062 239.167969 173.710938 239 C 174.578125 238.871094 175.410156 239.144531 176.023438 239.675781 C 175.492188 238.886719 174.613281 238.605469 173.609375 238.753906 Z M 173.609375 238.753906 " fill-opacity="1" fill-rule="nonzero"/><path fill="#a2ae98" d="M 175.410156 244.761719 C 176.609375 244.300781 177.179688 242.851562 176.902344 241.632812 C 176.859375 242.75 176.167969 243.785156 175.0625 244.214844 C 174.246094 244.53125 173.371094 244.449219 172.65625 244.066406 C 173.351562 244.71875 174.464844 245.128906 175.410156 244.761719 Z M 175.410156 244.761719 " fill-opacity="1" fill-rule="nonzero"/><path fill="#ececec" d="M 174.683594 244.152344 C 175.933594 243.84375 176.738281 242.664062 176.617188 241.421875 C 176.433594 242.523438 175.695312 243.347656 174.542969 243.628906 C 173.691406 243.839844 172.757812 243.769531 172.097656 243.296875 C 172.703125 244.03125 173.699219 244.394531 174.683594 244.152344 Z M 174.683594 244.152344 " fill-opacity="1" fill-rule="nonzero"/><path fill="#c4ccbe" d="M 191.488281 236.734375 C 191.488281 237.015625 191.433594 237.289062 191.324219 237.550781 C 191.214844 237.816406 191.0625 238.046875 190.859375 238.246094 C 190.660156 238.445312 190.429688 238.601562 190.164062 238.710938 C 189.902344 238.820312 189.628906 238.875 189.347656 238.875 C 189.0625 238.875 188.789062 238.820312 188.527344 238.710938 C 188.265625 238.601562 188.035156 238.445312 187.832031 238.246094 C 187.632812 238.046875 187.476562 237.816406 187.367188 237.550781 C 187.261719 237.289062 187.207031 237.015625 187.207031 236.734375 C 187.207031 236.449219 187.261719 236.175781 187.367188 235.914062 C 187.476562 235.652344 187.632812 235.421875 187.832031 235.21875 C 188.035156 235.019531 188.265625 234.867188 188.527344 234.757812 C 188.789062 234.648438 189.0625 234.59375 189.347656 234.59375 C 189.628906 234.59375 189.902344 234.648438 190.164062 234.757812 C 190.429688 234.867188 190.660156 235.019531 190.859375 235.21875 C 191.0625 235.421875 191.214844 235.652344 191.324219 235.914062 C 191.433594 236.175781 191.488281 236.449219 191.488281 236.734375 Z M 191.488281 236.734375 " fill-opacity="1" fill-rule="nonzero"/><path fill="#a2ae98" d="M 189.070312 234.808594 C 188.082031 234.953125 187.371094 235.800781 187.371094 236.773438 C 187.597656 235.933594 188.316406 235.375 189.226562 235.242188 C 189.898438 235.144531 190.53125 235.25 191.007812 235.664062 C 190.59375 235.050781 189.851562 234.695312 189.070312 234.808594 Z M 189.070312 234.808594 " fill-opacity="1" fill-rule="nonzero"/><path fill="#ececec" d="M 188.957031 234.464844 C 187.96875 234.609375 187.195312 235.320312 187.199219 236.292969 C 187.421875 235.453125 188.125 234.789062 189.039062 234.65625 C 189.710938 234.558594 190.355469 234.769531 190.832031 235.183594 C 190.417969 234.570312 189.738281 234.351562 188.957031 234.464844 Z M 188.957031 234.464844 " fill-opacity="1" fill-rule="nonzero"/><path fill="#a2ae98" d="M 190.355469 239.132812 C 191.285156 238.769531 191.730469 237.648438 191.515625 236.703125 C 191.480469 237.566406 190.945312 238.371094 190.085938 238.707031 C 189.449219 238.949219 188.773438 238.886719 188.21875 238.589844 C 188.757812 239.09375 189.621094 239.417969 190.355469 239.132812 Z M 190.355469 239.132812 " fill-opacity="1" fill-rule="nonzero"/><path fill="#ececec" d="M 189.792969 238.65625 C 190.761719 238.417969 191.386719 237.503906 191.292969 236.539062 C 191.148438 237.390625 190.574219 238.03125 189.679688 238.253906 C 189.023438 238.414062 188.296875 238.359375 187.78125 237.992188 C 188.253906 238.5625 189.027344 238.847656 189.792969 238.65625 Z M 189.792969 238.65625 " fill-opacity="1" fill-rule="nonzero"/><path fill="#c4ccbe" d="M 229.15625 241.261719 C 229.226562 241.496094 229.265625 241.734375 229.277344 241.980469 C 229.289062 242.226562 229.269531 242.476562 229.222656 242.726562 C 229.171875 242.976562 229.097656 243.222656 228.992188 243.464844 C 228.886719 243.707031 228.753906 243.941406 228.597656 244.167969 C 228.4375 244.394531 228.257812 244.609375 228.050781 244.8125 C 227.847656 245.015625 227.621094 245.203125 227.375 245.375 C 227.132812 245.542969 226.871094 245.695312 226.597656 245.824219 C 226.324219 245.957031 226.039062 246.066406 225.746094 246.15625 C 225.453125 246.242188 225.152344 246.304688 224.851562 246.347656 C 224.550781 246.386719 224.25 246.402344 223.953125 246.394531 C 223.65625 246.386719 223.363281 246.355469 223.082031 246.296875 C 222.796875 246.238281 222.527344 246.160156 222.269531 246.058594 C 222.015625 245.953125 221.773438 245.828125 221.554688 245.683594 C 221.332031 245.539062 221.132812 245.375 220.957031 245.191406 C 220.78125 245.007812 220.628906 244.8125 220.503906 244.601562 C 220.378906 244.386719 220.28125 244.164062 220.210938 243.933594 C 220.140625 243.699219 220.097656 243.457031 220.089844 243.210938 C 220.078125 242.964844 220.09375 242.71875 220.144531 242.46875 C 220.191406 242.21875 220.269531 241.972656 220.371094 241.730469 C 220.476562 241.488281 220.609375 241.253906 220.769531 241.023438 C 220.925781 240.796875 221.109375 240.582031 221.3125 240.378906 C 221.519531 240.179688 221.746094 239.992188 221.988281 239.820312 C 222.234375 239.652344 222.492188 239.5 222.765625 239.367188 C 223.042969 239.238281 223.324219 239.125 223.621094 239.039062 C 223.914062 238.953125 224.210938 238.886719 224.511719 238.847656 C 224.8125 238.808594 225.113281 238.789062 225.414062 238.800781 C 225.710938 238.808594 226 238.839844 226.285156 238.898438 C 226.566406 238.953125 226.835938 239.035156 227.09375 239.136719 C 227.351562 239.242188 227.589844 239.363281 227.8125 239.511719 C 228.03125 239.65625 228.230469 239.820312 228.40625 240.003906 C 228.585938 240.183594 228.738281 240.382812 228.863281 240.59375 C 228.988281 240.804688 229.085938 241.027344 229.15625 241.261719 Z M 229.15625 241.261719 " fill-opacity="1" fill-rule="nonzero"/><path fill="#a2ae98" d="M 223.152344 239.566406 C 221.15625 240.421875 220.09375 242.277344 220.574219 243.890625 C 220.628906 242.359375 221.851562 240.984375 223.691406 240.191406 C 225.046875 239.609375 226.417969 239.390625 227.621094 239.78125 C 226.449219 239.023438 224.722656 238.890625 223.152344 239.566406 Z M 223.152344 239.566406 " fill-opacity="1" fill-rule="nonzero"/><path fill="#ececec" d="M 222.742188 239.066406 C 220.75 239.921875 219.488281 241.589844 219.972656 243.203125 C 220.027344 241.667969 221.164062 240.125 223.003906 239.332031 C 224.359375 238.75 225.816406 238.699219 227.015625 239.089844 C 225.847656 238.332031 224.316406 238.390625 222.742188 239.066406 Z M 222.742188 239.066406 " fill-opacity="1" fill-rule="nonzero"/><path fill="#a2ae98" d="M 227.980469 245.953125 C 229.75 244.773438 230.117188 242.628906 229.195312 241.191406 C 229.554688 242.652344 228.832031 244.324219 227.203125 245.414062 C 226 246.21875 224.554688 246.535156 223.246094 246.390625 C 224.625 246.890625 226.585938 246.886719 227.980469 245.953125 Z M 227.980469 245.953125 " fill-opacity="1" fill-rule="nonzero"/><path fill="#ececec" d="M 226.566406 245.515625 C 228.476562 244.515625 229.328125 242.601562 228.652344 241.058594 C 228.777344 242.566406 227.894531 243.988281 226.136719 244.914062 C 224.839844 245.59375 223.296875 245.953125 222.039062 245.667969 C 223.308594 246.320312 225.0625 246.308594 226.566406 245.515625 Z M 226.566406 245.515625 " fill-opacity="1" fill-rule="nonzero"/><path fill="#c4ccbe" d="M 251.554688 185.214844 C 251.554688 185.589844 251.523438 185.964844 251.464844 186.335938 C 251.410156 186.707031 251.324219 187.066406 251.210938 187.414062 C 251.09375 187.761719 250.957031 188.09375 250.792969 188.40625 C 250.625 188.722656 250.441406 189.011719 250.230469 189.277344 C 250.019531 189.546875 249.792969 189.785156 249.546875 189.992188 C 249.296875 190.203125 249.039062 190.378906 248.765625 190.523438 C 248.488281 190.667969 248.207031 190.777344 247.917969 190.851562 C 247.625 190.925781 247.332031 190.960938 247.035156 190.960938 C 246.738281 190.960938 246.445312 190.925781 246.152344 190.851562 C 245.863281 190.777344 245.582031 190.667969 245.304688 190.523438 C 245.03125 190.378906 244.773438 190.203125 244.527344 189.992188 C 244.277344 189.785156 244.050781 189.546875 243.839844 189.277344 C 243.632812 189.011719 243.445312 188.722656 243.277344 188.40625 C 243.113281 188.09375 242.976562 187.761719 242.863281 187.414062 C 242.746094 187.066406 242.664062 186.707031 242.605469 186.335938 C 242.546875 185.964844 242.519531 185.589844 242.519531 185.214844 C 242.519531 184.835938 242.546875 184.460938 242.605469 184.09375 C 242.664062 183.722656 242.746094 183.363281 242.863281 183.015625 C 242.976562 182.664062 243.113281 182.335938 243.277344 182.019531 C 243.445312 181.707031 243.632812 181.417969 243.839844 181.148438 C 244.050781 180.882812 244.277344 180.644531 244.527344 180.433594 C 244.773438 180.226562 245.03125 180.046875 245.304688 179.902344 C 245.582031 179.757812 245.863281 179.648438 246.152344 179.574219 C 246.445312 179.503906 246.738281 179.464844 247.035156 179.464844 C 247.332031 179.464844 247.625 179.503906 247.917969 179.574219 C 248.207031 179.648438 248.488281 179.757812 248.765625 179.902344 C 249.039062 180.046875 249.296875 180.226562 249.546875 180.433594 C 249.792969 180.644531 250.019531 180.882812 250.230469 181.148438 C 250.441406 181.417969 250.625 181.707031 250.792969 182.019531 C 250.957031 182.335938 251.09375 182.664062 251.210938 183.015625 C 251.324219 183.363281 251.410156 183.722656 251.464844 184.09375 C 251.523438 184.460938 251.554688 184.835938 251.554688 185.214844 Z M 251.554688 185.214844 " fill-opacity="1" fill-rule="nonzero"/><path fill="#a2ae98" d="M 246.453125 180.042969 C 244.371094 180.429688 242.867188 182.710938 242.867188 185.316406 C 243.34375 183.070312 244.859375 181.570312 246.785156 181.210938 C 248.203125 180.945312 249.535156 181.230469 250.539062 182.339844 C 249.664062 180.695312 248.101562 179.734375 246.453125 180.042969 Z M 246.453125 180.042969 " fill-opacity="1" fill-rule="nonzero"/><path fill="#ececec" d="M 246.214844 179.121094 C 244.128906 179.507812 242.5 181.421875 242.5 184.027344 C 242.976562 181.777344 244.457031 179.988281 246.382812 179.632812 C 247.800781 179.367188 249.167969 179.9375 250.171875 181.046875 C 249.296875 179.402344 247.863281 178.8125 246.214844 179.121094 Z M 246.214844 179.121094 " fill-opacity="1" fill-rule="nonzero"/><path fill="#a2ae98" d="M 249.164062 191.65625 C 251.128906 190.6875 252.066406 187.667969 251.609375 185.128906 C 251.539062 187.453125 250.40625 189.617188 248.59375 190.511719 C 247.253906 191.171875 245.824219 191.003906 244.652344 190.203125 C 245.792969 191.558594 247.613281 192.421875 249.164062 191.65625 Z M 249.164062 191.65625 " fill-opacity="1" fill-rule="nonzero"/><path fill="#ececec" d="M 247.976562 190.382812 C 250.023438 189.738281 251.34375 187.28125 251.144531 184.6875 C 250.839844 186.984375 249.628906 188.703125 247.742188 189.292969 C 246.351562 189.734375 244.820312 189.582031 243.734375 188.597656 C 244.730469 190.128906 246.359375 190.890625 247.976562 190.382812 Z M 247.976562 190.382812 " fill-opacity="1" fill-rule="nonzero"/><path fill="#a2ae98" d="M 189.070312 195.21875 C 186.894531 196.722656 186.160156 199.4375 187.238281 201.558594 C 186.839844 199.457031 187.917969 197.371094 189.925781 195.984375 C 191.40625 194.960938 193.015625 194.433594 194.597656 194.765625 C 192.9375 193.921875 190.789062 194.035156 189.070312 195.21875 Z M 189.070312 195.21875 " fill-opacity="1" fill-rule="nonzero"/><path fill="#ececec" d="M 189.339844 193.914062 C 186.898438 194.9375 185.375 197.15625 185.992188 199.453125 C 186.035156 197.316406 187.414062 195.253906 189.664062 194.3125 C 191.324219 193.617188 193.113281 193.671875 194.597656 194.324219 C 193.144531 193.160156 191.265625 193.109375 189.339844 193.914062 Z M 189.339844 193.914062 " fill-opacity="1" fill-rule="nonzero"/></svg>