<svg xmlns="http://www.w3.org/2000/svg" xmlns:xlink="http://www.w3.org/1999/xlink" width="500" zoomAndPan="magnify" viewBox="0 0 375 374.999991" height="500" preserveAspectRatio="xMidYMid meet" version="1.0"><defs><clipPath id="4dfd882e5b"><path d="M 206.402344 214 L 207.851562 214 L 207.851562 215.199219 L 206.402344 215.199219 Z M 206.402344 214 " clip-rule="nonzero"/></clipPath><clipPath id="d0a7a2970d"><path d="M 207.824219 214.425781 C 207.226562 215.398438 206.625 215.25 206.476562 215.023438 C 206.324219 214.800781 206.476562 214.199219 206.625 214.050781 C 206.851562 213.898438 207.675781 214.125 207.675781 214.125 " clip-rule="nonzero"/></clipPath><clipPath id="7d44a46da1"><path d="M 256.53125 248.851562 L 257.953125 248.851562 L 257.953125 250.074219 L 256.53125 250.074219 Z M 256.53125 248.851562 " clip-rule="nonzero"/></clipPath><clipPath id="1c127caa2b"><path d="M 257.925781 249.300781 C 257.324219 250.273438 256.726562 250.125 256.574219 249.898438 C 256.5 249.675781 256.574219 249.074219 256.800781 248.925781 C 256.949219 248.773438 257.773438 249 257.773438 249 " clip-rule="nonzero"/></clipPath><clipPath id="5421f946ef"><path d="M 117.90625 112.5 L 257.40625 112.5 L 257.40625 262.5 L 117.90625 262.5 Z M 117.90625 112.5 " clip-rule="nonzero"/></clipPath></defs><g clip-path="url(#4dfd882e5b)"><g clip-path="url(#d0a7a2970d)"><path fill="#ffffff" d="M 203.476562 211.050781 L 210.890625 211.050781 L 210.890625 218.324219 L 203.476562 218.324219 Z M 203.476562 211.050781 " fill-opacity="1" fill-rule="nonzero"/></g></g><g clip-path="url(#7d44a46da1)"><g clip-path="url(#1c127caa2b)"><path fill="#ffffff" d="M 253.574219 245.925781 L 260.992188 245.925781 L 260.992188 253.199219 L 253.574219 253.199219 Z M 253.574219 245.925781 " fill-opacity="1" fill-rule="nonzero"/></g></g><g clip-path="url(#5421f946ef)"><path fill="#64dd17" d="M 185.121094 262.109375 C 185.058594 261.941406 185.144531 261.753906 185.3125 261.691406 C 185.480469 261.628906 185.664062 261.714844 185.726562 261.882812 C 185.789062 262.046875 185.707031 262.234375 185.539062 262.296875 C 185.371094 262.359375 185.183594 262.273438 185.121094 262.109375 Z M 188.53125 261.050781 C 188.507812 260.988281 188.65625 260.660156 188.863281 260.324219 C 189.203125 259.769531 189.21875 259.773438 189.019531 260.394531 C 188.8125 261.046875 188.625 261.300781 188.53125 261.050781 Z M 182.78125 261.753906 C 182.289062 261.195312 182.289062 261.195312 182.710938 260.824219 C 183.203125 260.386719 183.777344 261.078125 183.429688 261.6875 C 183.21875 262.050781 183.058594 262.066406 182.78125 261.753906 Z M 184.1875 260.539062 C 184.089844 260.277344 184.179688 260.097656 184.382812 260.140625 C 184.589844 260.179688 184.804688 260.34375 184.863281 260.5 C 184.921875 260.65625 184.835938 260.835938 184.667969 260.898438 C 184.5 260.960938 184.285156 260.796875 184.1875 260.539062 Z M 188.734375 258.304688 C 188.792969 258.019531 188.644531 257.394531 188.40625 256.914062 C 188.082031 256.253906 188.09375 256.09375 188.457031 256.25 C 189.089844 256.523438 189.476562 258.144531 189.003906 258.523438 C 188.746094 258.726562 188.664062 258.660156 188.734375 258.304688 Z M 183.734375 259.332031 C 183.703125 259.242188 183.746094 258.535156 183.835938 257.757812 C 184.019531 256.175781 183.972656 255.839844 183.628906 256.28125 C 183.5 256.445312 183.347656 256.445312 183.285156 256.277344 C 183.109375 255.816406 183.5625 255.386719 183.851562 255.742188 C 184.210938 256.1875 185.023438 255.382812 184.804688 254.796875 C 184.671875 254.449219 184.46875 254.429688 184.085938 254.730469 C 183.4375 255.238281 183.285156 254.953125 183.679688 253.960938 C 183.886719 253.441406 183.859375 253.261719 183.589844 253.363281 C 183.351562 253.453125 183.175781 253.25 183.132812 252.84375 C 183.097656 252.476562 182.976562 252.292969 182.867188 252.433594 C 182.757812 252.574219 182.414062 252.273438 182.101562 251.757812 C 181.507812 250.78125 180.65625 250.578125 178.664062 250.945312 C 177.90625 251.082031 177.59375 251.328125 177.359375 251.972656 C 177.070312 252.765625 177.015625 252.792969 176.464844 252.433594 C 175.921875 252.074219 175.882812 252.09375 175.917969 252.75 C 175.9375 253.136719 175.824219 253.5 175.667969 253.554688 C 175.515625 253.613281 175.46875 253.882812 175.570312 254.152344 C 175.722656 254.554688 175.8125 254.542969 176.066406 254.101562 C 176.238281 253.804688 176.632812 253.5625 176.945312 253.566406 C 177.257812 253.566406 177.660156 253.316406 177.835938 253.011719 C 178.105469 252.550781 178.164062 252.542969 178.183594 252.964844 C 178.195312 253.246094 177.90625 253.789062 177.539062 254.171875 C 176.96875 254.773438 176.890625 255.363281 177.289062 256.109375 C 177.511719 256.527344 176.089844 256.390625 175.824219 255.964844 C 175.253906 255.058594 175.015625 257.601562 175.507812 259.339844 C 175.855469 260.5625 175.863281 261.074219 175.535156 261.199219 C 175.183594 261.328125 175.039062 261.113281 174.886719 260.230469 C 174.742188 259.410156 174.578125 259.136719 174.292969 259.238281 C 174.023438 259.335938 173.976562 259.273438 174.148438 259.035156 C 174.597656 258.414062 174.628906 257.003906 174.207031 256.394531 C 173.90625 255.960938 173.976562 255.363281 174.460938 254.222656 C 175.234375 252.386719 174.796875 251.710938 173.113281 252.15625 C 171.980469 252.457031 171.363281 253.355469 171.167969 254.976562 C 171.015625 256.238281 169.882812 256.789062 169.648438 255.714844 C 169.546875 255.257812 169.679688 254.960938 170.015625 254.894531 C 170.304688 254.835938 170.546875 254.554688 170.546875 254.265625 C 170.550781 253.886719 170.351562 253.8125 169.839844 254.003906 C 169.105469 254.277344 167.730469 253.535156 167.417969 252.699219 C 167.171875 252.042969 166.515625 252.015625 166.15625 252.644531 C 165.9375 253.023438 165.710938 253.128906 165.40625 252.992188 C 165.105469 252.855469 165.046875 252.699219 165.214844 252.480469 C 165.347656 252.308594 165.296875 251.984375 165.097656 251.757812 C 164.898438 251.535156 164.875 251.175781 165.039062 250.964844 C 165.277344 250.65625 164.960938 250.082031 163.511719 248.203125 C 162.503906 246.902344 161.46875 245.601562 161.203125 245.320312 C 160.40625 244.464844 156.582031 239.632812 151.085938 232.535156 C 147.542969 227.960938 146.703125 227.082031 147.566406 228.84375 C 148.105469 229.945312 148.113281 230.066406 147.621094 229.597656 C 147.300781 229.292969 146.921875 229.082031 146.78125 229.136719 C 146.40625 229.273438 146.863281 230.320312 148.128906 232.234375 C 151.011719 236.585938 152.316406 238.964844 150.339844 236.261719 C 148.441406 233.664062 145.265625 228.46875 143.730469 225.441406 C 142.882812 223.765625 141.746094 221.628906 141.203125 220.691406 C 140.664062 219.753906 139.871094 218.1875 139.445312 217.207031 C 138.238281 214.4375 136.910156 211.972656 136.515625 211.78125 C 136.003906 211.53125 135.523438 212.777344 135.804688 213.621094 C 135.9375 214.015625 135.914062 214.191406 135.753906 214.015625 C 135.050781 213.25 134.636719 215.96875 135.21875 217.519531 C 135.386719 217.972656 135.449219 218.675781 135.351562 219.089844 C 135.164062 219.875 135.828125 221.769531 136.949219 223.65625 L 137.621094 224.789062 L 136.855469 224.039062 C 135.800781 223.007812 133.914062 217.242188 133.957031 215.175781 C 133.964844 214.640625 133.9375 214.105469 133.894531 213.992188 C 133.738281 213.570312 133.988281 209.207031 134.226562 208.230469 C 134.5 207.109375 134.382812 206.5 133.921875 206.671875 C 133.753906 206.734375 133.667969 206.921875 133.730469 207.089844 C 133.792969 207.253906 133.640625 207.46875 133.390625 207.5625 C 133.140625 207.652344 132.84375 207.492188 132.734375 207.199219 C 132.625 206.90625 132.199219 206.597656 131.789062 206.511719 C 131.375 206.429688 130.960938 206.148438 130.863281 205.890625 C 130.746094 205.578125 130.527344 205.542969 130.214844 205.78125 C 129.894531 206.035156 129.496094 205.9375 128.933594 205.46875 C 128.1875 204.851562 128.136719 204.714844 128.304688 203.816406 C 128.476562 202.925781 128.433594 202.8125 127.832031 202.539062 C 127.234375 202.265625 127.136719 202.347656 126.738281 203.460938 C 126.5 204.132812 126.226562 204.710938 126.132812 204.746094 C 125.746094 204.890625 125.773438 204.167969 126.199219 203.136719 C 126.449219 202.53125 126.558594 201.785156 126.441406 201.476562 C 126.324219 201.167969 126.367188 200.863281 126.535156 200.800781 C 126.703125 200.738281 126.902344 200.855469 126.984375 201.066406 C 127.085938 201.328125 127.164062 201.285156 127.242188 200.910156 C 127.316406 200.5625 127.082031 200.179688 126.5625 199.800781 C 125.816406 199.253906 125.804688 199.222656 126.394531 199.226562 C 126.808594 199.230469 126.90625 199.144531 126.6875 198.976562 C 126.507812 198.835938 126.496094 198.542969 126.664062 198.324219 C 126.894531 198.03125 126.847656 197.859375 126.476562 197.648438 C 126.207031 197.492188 125.6875 196.792969 125.324219 196.097656 C 124.964844 195.398438 124.515625 194.792969 124.332031 194.75 C 123.792969 194.628906 122.824219 193.664062 122.578125 193.007812 C 122.453125 192.671875 122.046875 192.074219 121.679688 191.679688 C 121.308594 191.28125 120.988281 190.828125 120.96875 190.671875 C 120.949219 190.511719 120.742188 190.550781 120.511719 190.757812 C 120.277344 190.960938 120.03125 191.148438 119.960938 191.175781 C 119.890625 191.203125 119.910156 191.429688 120.003906 191.675781 C 120.097656 191.929688 119.90625 192.230469 119.566406 192.359375 C 119.234375 192.484375 118.902344 192.429688 118.832031 192.246094 C 118.746094 192.007812 118.609375 192.074219 118.390625 192.453125 C 118.21875 192.757812 118.027344 192.863281 117.964844 192.695312 C 117.902344 192.527344 118 192.132812 118.179688 191.816406 C 118.453125 191.34375 118.585938 191.300781 118.949219 191.574219 C 119.3125 191.851562 119.355469 191.820312 119.203125 191.394531 C 119.097656 191.109375 118.84375 190.847656 118.632812 190.804688 C 118.078125 190.695312 118.300781 190.070312 118.980469 189.816406 C 119.3125 189.691406 119.648438 189.804688 119.746094 190.070312 C 119.84375 190.328125 120.011719 190.429688 120.117188 190.289062 C 120.226562 190.152344 120.097656 189.648438 119.832031 189.167969 C 119.285156 188.175781 119.484375 187.988281 120.617188 188.429688 C 121.394531 188.734375 121.390625 188.707031 120.367188 186.625 C 119.519531 184.90625 119.40625 184.484375 119.75 184.355469 C 120.339844 184.132812 121.136719 184.542969 121.378906 185.195312 C 121.492188 185.496094 121.679688 185.679688 121.792969 185.605469 C 122.449219 185.1875 123.804688 185.605469 124.144531 186.328125 C 124.351562 186.765625 124.644531 187.21875 124.792969 187.335938 C 125.285156 187.714844 125.644531 187.347656 125.40625 186.707031 C 125.277344 186.363281 125.214844 185.746094 125.273438 185.335938 C 125.34375 184.792969 125.300781 184.679688 125.117188 184.917969 C 124.976562 185.101562 124.800781 185.097656 124.734375 184.910156 C 124.664062 184.726562 124.5 184.707031 124.371094 184.871094 C 124.242188 185.039062 124.078125 185.015625 124.007812 184.820312 C 123.933594 184.625 124.117188 184.46875 124.421875 184.472656 C 124.71875 184.472656 125.175781 184.238281 125.433594 183.945312 C 125.964844 183.34375 125.773438 182.375 125.21875 182.863281 C 124.972656 183.082031 124.769531 182.933594 124.5625 182.382812 C 124.371094 181.871094 124.40625 181.648438 124.664062 181.765625 C 124.921875 181.882812 125.535156 181.277344 126.375 180.078125 C 127.09375 179.050781 127.871094 178.203125 128.105469 178.195312 C 128.335938 178.183594 127.890625 179.019531 127.113281 180.046875 C 125.652344 181.980469 125.492188 182.480469 126.65625 181.460938 C 127.023438 181.136719 128.34375 180.417969 129.59375 179.859375 C 132.058594 178.757812 132.640625 178 131.941406 176.789062 C 131.609375 176.207031 131.839844 175.875 132.726562 175.664062 C 132.835938 175.640625 133.433594 175.464844 134.054688 175.28125 C 134.753906 175.070312 135.234375 175.101562 135.332031 175.355469 C 135.417969 175.582031 135.316406 175.734375 135.113281 175.691406 C 134.882812 175.648438 134.941406 176.15625 135.253906 177 C 135.539062 177.757812 135.800781 178.476562 135.835938 178.59375 C 135.867188 178.714844 136.472656 178.773438 137.179688 178.726562 C 139.132812 178.597656 142.691406 179.074219 143.664062 179.597656 L 144.53125 180.058594 L 143.835938 180.046875 C 143.449219 180.039062 142.933594 180.109375 142.679688 180.199219 C 142.425781 180.285156 141.796875 180.261719 141.277344 180.140625 C 139.828125 179.808594 138.378906 179.796875 138.5 180.117188 C 138.558594 180.277344 138.375 180.402344 138.089844 180.402344 C 137.804688 180.398438 137.59375 180.273438 137.625 180.125 C 137.65625 179.976562 137.511719 179.910156 137.308594 179.976562 C 137.105469 180.046875 136.761719 180.109375 136.546875 180.117188 C 136.332031 180.125 136.179688 180.242188 136.210938 180.371094 C 136.238281 180.503906 136.332031 180.582031 136.417969 180.546875 C 137.207031 180.214844 144.328125 182.089844 147.082031 183.351562 C 148.726562 184.109375 149.136719 184.449219 149.359375 185.246094 C 149.507812 185.78125 149.96875 186.46875 150.378906 186.769531 C 151.222656 187.386719 151.726562 188.710938 151.261719 189.085938 C 151.09375 189.222656 150.664062 189.042969 150.308594 188.6875 C 149.8125 188.191406 149.597656 188.152344 149.386719 188.519531 C 149.160156 188.914062 149.253906 189.152344 149.925781 189.867188 C 150.375 190.347656 150.613281 190.785156 150.457031 190.84375 C 150.296875 190.902344 150.109375 190.792969 150.035156 190.597656 C 149.964844 190.40625 149.851562 190.359375 149.789062 190.5 C 149.613281 190.882812 151.558594 193.53125 151.792969 193.230469 C 151.90625 193.082031 151.765625 192.601562 151.476562 192.15625 C 151.1875 191.714844 151.070312 191.304688 151.214844 191.253906 C 151.359375 191.199219 151.640625 191.503906 151.84375 191.933594 C 152.046875 192.363281 152.558594 192.800781 152.976562 192.910156 C 153.398438 193.019531 153.851562 193.398438 153.980469 193.746094 C 154.328125 194.667969 154.519531 194.003906 154.195312 193.023438 C 153.933594 192.242188 154.4375 191.269531 154.714844 192.011719 C 154.789062 192.207031 155.128906 192.492188 155.472656 192.648438 C 155.816406 192.804688 156.15625 193.09375 156.226562 193.289062 C 156.3125 193.53125 156.21875 193.546875 155.949219 193.339844 C 155.054688 192.667969 155.898438 195.019531 157.253906 196.976562 C 158.414062 198.660156 162.09375 203.515625 163.074219 204.667969 C 163.230469 204.847656 163.140625 204.980469 162.863281 204.976562 C 162.597656 204.976562 162.382812 204.753906 162.386719 204.484375 C 162.386719 204.210938 162.253906 204.042969 162.089844 204.101562 C 161.929688 204.164062 161.664062 203.867188 161.507812 203.449219 C 161.347656 203.027344 160.90625 202.519531 160.523438 202.320312 C 160.140625 202.121094 159.640625 201.46875 159.417969 200.867188 C 159.089844 199.992188 158.898438 199.824219 158.460938 200.027344 C 158.003906 200.238281 158.011719 200.421875 158.496094 201.160156 C 158.8125 201.644531 159.464844 202.40625 159.941406 202.847656 C 160.414062 203.292969 160.875 203.839844 160.960938 204.070312 C 161.195312 204.6875 159.4375 205.007812 159.074219 204.414062 C 158.914062 204.152344 158.90625 203.914062 159.050781 203.890625 C 159.792969 203.75 159.769531 203.515625 158.976562 203.109375 C 158.148438 202.683594 157.699219 202.152344 156.492188 200.152344 C 156.207031 199.6875 155.78125 199.191406 155.539062 199.046875 C 154.90625 198.667969 154.585938 199.230469 155.148438 199.726562 C 155.40625 199.949219 155.640625 200.203125 155.671875 200.285156 C 155.746094 200.488281 157.964844 203.566406 161.160156 207.902344 C 162.957031 210.339844 163.433594 210.949219 164.191406 211.773438 C 164.449219 212.058594 165.003906 212.675781 165.417969 213.152344 C 165.984375 213.800781 166.304688 213.929688 166.683594 213.664062 C 166.960938 213.46875 167.234375 213.394531 167.285156 213.5 C 167.773438 214.457031 168.273438 215.046875 168.796875 215.285156 C 169.574219 215.636719 169.777344 216.113281 169.144531 216.105469 C 168.550781 216.101562 168.507812 217.226562 169.089844 217.492188 C 169.386719 217.625 169.480469 217.574219 169.386719 217.324219 C 169.308594 217.125 169.503906 216.867188 169.816406 216.75 C 170.222656 216.597656 170.46875 216.753906 170.667969 217.289062 C 170.824219 217.703125 170.820312 218.015625 170.664062 217.984375 C 170.507812 217.953125 170.300781 218.152344 170.207031 218.425781 C 170.082031 218.785156 170.324219 219.210938 171.050781 219.917969 C 171.609375 220.464844 171.9375 220.652344 171.777344 220.332031 C 171.617188 220.011719 171.300781 219.609375 171.078125 219.441406 C 170.847656 219.261719 170.761719 218.941406 170.875 218.691406 C 171.015625 218.378906 171.238281 218.488281 171.617188 219.046875 C 172.378906 220.179688 173.039062 220.546875 173.171875 219.914062 C 173.230469 219.644531 173.332031 219.570312 173.398438 219.746094 C 173.46875 219.921875 173.421875 220.40625 173.300781 220.820312 C 173.078125 221.5625 173.070312 221.566406 172.828125 220.976562 C 172.59375 220.40625 172.578125 220.410156 172.464844 221.058594 C 172.402344 221.433594 172.507812 221.804688 172.703125 221.890625 C 173.726562 222.332031 174.21875 221.667969 175.914062 217.582031 C 176.890625 215.226562 177.289062 214.074219 176.800781 215.019531 C 176.3125 215.96875 175.667969 217.136719 175.375 217.617188 C 174.878906 218.417969 174.878906 218.390625 175.332031 217.246094 C 175.605469 216.5625 175.683594 215.835938 175.503906 215.636719 C 175.296875 215.402344 175.777344 214.183594 176.824219 212.296875 C 178.457031 209.34375 181.042969 203.359375 181.746094 200.894531 C 181.957031 200.164062 181.960938 199.40625 181.757812 199.148438 C 181.105469 198.320312 181.773438 198.164062 182.488281 198.976562 C 183.125 199.703125 183.136719 199.875 182.621094 201 C 182.3125 201.679688 182.101562 202.339844 182.152344 202.472656 C 182.199219 202.609375 181.152344 205.109375 179.824219 208.03125 C 178.492188 210.953125 177.546875 213.226562 177.722656 213.082031 C 178.070312 212.796875 180.757812 207.144531 183.609375 200.695312 C 184.601562 198.453125 186.289062 194.890625 187.359375 192.785156 C 188.433594 190.675781 189.800781 187.914062 190.402344 186.644531 C 191.554688 184.214844 192.34375 182.707031 194.324219 179.144531 C 195.824219 176.445312 197.777344 172.800781 197.890625 172.488281 C 197.9375 172.355469 198.308594 171.683594 198.714844 170.988281 C 199.121094 170.296875 200.046875 168.613281 200.769531 167.25 C 201.496094 165.886719 202.570312 163.96875 203.152344 162.992188 C 203.738281 162.015625 204.574219 160.503906 205.007812 159.632812 C 205.441406 158.765625 206.269531 157.234375 206.847656 156.238281 C 207.425781 155.242188 207.941406 154.328125 207.992188 154.214844 C 208.042969 154.097656 208.261719 153.78125 208.476562 153.507812 C 209.785156 151.871094 211.378906 149.410156 211.289062 149.164062 C 211.230469 149.007812 211.320312 148.828125 211.492188 148.761719 C 211.664062 148.699219 212.378906 147.804688 213.082031 146.777344 C 213.785156 145.75 215.234375 143.707031 216.300781 142.234375 C 217.367188 140.765625 218.28125 139.34375 218.332031 139.074219 C 218.382812 138.804688 218.566406 138.535156 218.734375 138.46875 C 219.082031 138.339844 220.953125 135.757812 221.542969 134.589844 C 221.753906 134.171875 222.082031 133.773438 222.269531 133.703125 C 222.457031 133.632812 222.792969 133.234375 223.015625 132.820312 C 223.417969 132.066406 223.917969 131.417969 224.851562 130.441406 C 225.125 130.15625 226.039062 129.171875 226.886719 128.257812 C 228.71875 126.277344 229.09375 126.449219 227.417969 128.5 C 226.769531 129.292969 226.3125 129.972656 226.402344 130.015625 C 226.78125 130.1875 229.144531 126.617188 228.816406 126.363281 C 228.582031 126.183594 228.664062 126.097656 229.066406 126.101562 C 229.394531 126.105469 229.535156 126.011719 229.382812 125.894531 C 229.230469 125.777344 229.214844 125.542969 229.34375 125.375 C 229.472656 125.207031 229.632812 125.210938 229.699219 125.382812 C 229.765625 125.558594 230.273438 125.152344 230.832031 124.484375 C 231.390625 123.816406 231.75 123.128906 231.636719 122.957031 C 231.519531 122.785156 231.59375 122.679688 231.804688 122.722656 C 232.015625 122.761719 232.148438 122.6875 232.101562 122.550781 C 232.050781 122.417969 232.535156 121.800781 233.171875 121.183594 C 233.8125 120.566406 234.367188 119.851562 234.40625 119.59375 C 234.449219 119.339844 234.746094 118.96875 235.066406 118.769531 C 235.390625 118.574219 235.859375 118.179688 236.105469 117.898438 C 236.355469 117.613281 236.769531 117.21875 237.027344 117.019531 C 237.316406 116.796875 237.386719 116.328125 237.214844 115.804688 C 237.046875 115.285156 237.070312 115.136719 237.273438 115.425781 C 237.6875 116.011719 238.03125 115.914062 238.304688 115.132812 C 238.515625 114.53125 239.238281 114.410156 239.121094 114.996094 C 239.085938 115.171875 239.222656 115.347656 239.425781 115.390625 C 239.628906 115.429688 239.863281 115.121094 239.949219 114.699219 C 240.128906 113.820312 240.492188 113.578125 240.722656 114.191406 C 240.808594 114.425781 240.566406 115.03125 240.179688 115.539062 L 239.480469 116.460938 L 240.421875 116.585938 C 241.171875 116.6875 241.457031 116.59375 241.816406 116.128906 C 242.207031 115.621094 242.296875 115.625 242.492188 116.148438 C 242.621094 116.484375 242.902344 116.691406 243.125 116.609375 C 243.714844 116.386719 244.410156 114.527344 244.050781 114.132812 C 243.820312 113.878906 243.769531 113.890625 243.859375 114.179688 C 243.980469 114.585938 243.429688 114.957031 243.285156 114.5625 C 243.179688 114.269531 244.535156 112.644531 244.789062 112.757812 C 245.027344 112.867188 245.214844 115.507812 245.066406 116.640625 C 244.949219 117.5 244.445312 118.5 244.039062 118.671875 C 243.914062 118.722656 244.0625 118.183594 244.371094 117.472656 C 244.675781 116.761719 244.855469 115.992188 244.769531 115.765625 C 244.683594 115.535156 244.320312 116.019531 243.960938 116.835938 C 243.277344 118.394531 243.476562 119.929688 244.320312 119.613281 C 244.578125 119.515625 244.789062 119.207031 244.789062 118.921875 C 244.792969 118.636719 244.933594 118.433594 245.101562 118.464844 C 245.273438 118.5 245.449219 118.34375 245.492188 118.117188 C 245.539062 117.894531 245.894531 117.671875 246.289062 117.628906 C 247.40625 117.503906 247.582031 116.964844 246.980469 115.515625 C 246.253906 113.773438 246.726562 113.230469 247.5 114.914062 C 247.992188 115.984375 248.132812 116.105469 248.386719 115.664062 C 248.632812 115.230469 248.78125 115.292969 249.234375 116.019531 C 249.90625 117.101562 250.511719 117.289062 250.203125 116.316406 C 250.027344 115.757812 250.054688 115.714844 250.328125 116.105469 C 250.519531 116.378906 250.539062 116.953125 250.367188 117.382812 C 250.042969 118.203125 249.019531 118.796875 248.824219 118.277344 C 248.761719 118.113281 248.847656 117.925781 249.015625 117.863281 C 249.179688 117.800781 249.21875 117.480469 249.09375 117.152344 C 248.941406 116.746094 248.746094 116.667969 248.480469 116.902344 C 248.265625 117.089844 248.15625 117.417969 248.234375 117.632812 C 248.316406 117.84375 248.15625 118.175781 247.882812 118.371094 C 247.605469 118.5625 247.316406 119.367188 247.234375 120.160156 C 247.09375 121.527344 247.125 121.621094 247.851562 122.046875 C 248.289062 122.304688 248.964844 122.367188 249.433594 122.191406 C 250.15625 121.921875 250.261719 121.984375 250.347656 122.726562 C 250.4375 123.558594 250.449219 123.558594 251.136719 122.800781 C 251.523438 122.378906 252.171875 121.175781 252.578125 120.132812 C 253.308594 118.265625 253.875 117.761719 253.6875 119.136719 C 253.59375 119.855469 252.523438 122 251.378906 123.773438 L 250.738281 124.769531 L 251.585938 124.167969 C 252.054688 123.835938 252.679688 123.289062 252.976562 122.949219 C 253.734375 122.089844 254.007812 122.347656 253.398438 123.347656 C 253.121094 123.804688 252.910156 124.292969 252.933594 124.433594 C 252.960938 124.574219 252.847656 124.976562 252.6875 125.332031 C 252.328125 126.121094 252.847656 126.648438 253.265625 125.921875 C 253.632812 125.28125 254.800781 125.714844 254.65625 126.4375 C 254.582031 126.820312 254.511719 126.847656 254.285156 126.570312 C 253.925781 126.125 253.402344 126.800781 253.628906 127.414062 C 253.761719 127.761719 254.023438 127.765625 254.652344 127.421875 C 255.117188 127.164062 255.472656 127.085938 255.4375 127.246094 C 255.40625 127.40625 255.835938 127.492188 256.386719 127.433594 L 257.394531 127.332031 L 256.878906 128.570312 C 256.59375 129.253906 256.3125 130.183594 256.25 130.640625 C 256.164062 131.285156 256.019531 131.425781 255.59375 131.277344 C 255.195312 131.140625 254.917969 131.242188 254.550781 131.65625 C 253.886719 132.410156 254.015625 132.65625 254.785156 132.109375 L 255.398438 131.667969 L 254.886719 132.304688 C 254.1875 133.175781 252.976562 137 253.316406 137.261719 C 253.5625 137.453125 253.074219 138.148438 252.488281 138.445312 C 252.367188 138.507812 252.089844 139.011719 251.871094 139.570312 C 251.652344 140.125 250.984375 141.140625 250.386719 141.832031 C 249.785156 142.519531 248.347656 144.417969 247.191406 146.058594 C 246.035156 147.695312 244.835938 149.28125 244.535156 149.582031 C 244.230469 149.882812 243.5625 150.664062 243.046875 151.320312 C 242.53125 151.976562 241.988281 152.5625 241.84375 152.617188 C 241.398438 152.792969 242.945312 150.492188 246.59375 145.546875 C 248.964844 142.335938 249.929688 140.78125 249.640625 140.648438 C 249.347656 140.515625 248.707031 141.167969 247.613281 142.699219 C 246.734375 143.929688 246.0625 145.058594 246.117188 145.207031 C 246.171875 145.351562 245.941406 145.574219 245.609375 145.699219 C 245.277344 145.824219 245.054688 146.070312 245.121094 146.246094 C 245.1875 146.421875 245.082031 146.535156 244.886719 146.496094 C 244.316406 146.382812 244.480469 145.429688 245.113281 145.195312 C 245.429688 145.078125 245.605469 144.769531 245.507812 144.507812 C 245.410156 144.25 245.480469 144.066406 245.660156 144.101562 C 245.839844 144.136719 246.210938 143.679688 246.484375 143.085938 C 246.769531 142.457031 247.195312 142.007812 247.5 142.007812 C 247.789062 142.011719 247.949219 141.910156 247.855469 141.78125 C 247.632812 141.476562 248.589844 139.710938 248.984375 139.699219 C 249.148438 139.691406 249.308594 139.8125 249.335938 139.964844 C 249.429688 140.496094 250.316406 140.429688 250.574219 139.875 C 250.929688 139.09375 250.757812 138.832031 249.839844 138.761719 C 249.285156 138.722656 248.890625 138.871094 248.550781 139.246094 C 247.816406 140.066406 246.105469 142.429688 245.191406 143.886719 C 244.742188 144.597656 244.335938 145.066406 244.289062 144.925781 C 244.117188 144.445312 244.394531 143.828125 244.988281 143.367188 C 245.316406 143.113281 245.5 142.769531 245.394531 142.605469 C 245.289062 142.4375 245.566406 142.03125 246.011719 141.699219 C 246.976562 140.980469 248.304688 138.832031 247.628906 139.085938 C 246.832031 139.382812 245.804688 140.667969 244.785156 142.640625 C 244.574219 143.054688 244.320312 143.378906 244.226562 143.367188 C 243.988281 143.339844 241.261719 146.824219 239.644531 149.21875 C 238.917969 150.296875 238.1875 151.226562 238.019531 151.289062 C 237.851562 151.351562 237.761719 151.523438 237.816406 151.667969 C 237.871094 151.816406 237.570312 152.257812 237.148438 152.652344 C 236.722656 153.042969 236.421875 153.484375 236.476562 153.632812 C 236.53125 153.777344 236.390625 153.96875 236.167969 154.050781 C 235.941406 154.136719 235.53125 154.636719 235.257812 155.167969 C 234.980469 155.695312 234.390625 156.566406 233.941406 157.097656 C 233.492188 157.632812 233.085938 158.179688 233.042969 158.3125 C 233 158.449219 232.558594 159.074219 232.0625 159.703125 C 231.566406 160.332031 230.976562 161.246094 230.75 161.734375 C 230.523438 162.226562 230.003906 163.058594 229.59375 163.585938 C 229.183594 164.113281 228.25 165.417969 227.515625 166.484375 C 226.785156 167.554688 226.078125 168.378906 225.953125 168.320312 C 225.683594 168.199219 225.085938 169.378906 225.222656 169.753906 C 225.339844 170.074219 223.929688 172.070312 223.457031 172.246094 C 223.257812 172.320312 223.148438 172.519531 223.210938 172.683594 C 223.273438 172.851562 223.207031 172.992188 223.066406 172.996094 C 222.925781 173 222.839844 173.082031 222.875 173.175781 C 222.910156 173.269531 222.726562 173.9375 222.46875 174.660156 C 222.042969 175.859375 222.058594 175.992188 222.648438 176.15625 C 223.179688 176.308594 223.230469 176.394531 222.921875 176.664062 C 222.699219 176.859375 222.3125 176.753906 221.941406 176.394531 C 221.605469 176.066406 221.480469 175.832031 221.667969 175.867188 C 221.855469 175.90625 221.945312 175.773438 221.871094 175.570312 C 221.796875 175.371094 221.910156 174.945312 222.121094 174.625 C 222.332031 174.300781 222.394531 173.988281 222.253906 173.925781 C 222.117188 173.863281 221.671875 174.441406 221.265625 175.214844 C 220.859375 175.988281 220.28125 176.988281 219.976562 177.445312 C 219.355469 178.375 219.390625 178.78125 220.097656 178.785156 C 220.421875 178.789062 220.46875 178.636719 220.242188 178.316406 C 219.785156 177.667969 220.988281 176.40625 221.507812 176.992188 C 221.988281 177.53125 222.003906 177.621094 221.632812 177.757812 C 221.457031 177.824219 221.34375 177.710938 221.386719 177.503906 C 221.5 176.933594 220.917969 177.273438 220.695312 177.90625 C 220.539062 178.351562 220.640625 178.496094 221.167969 178.589844 C 221.746094 178.691406 221.789062 178.769531 221.492188 179.179688 C 221.25 179.515625 221.007812 179.558594 220.640625 179.324219 C 220.351562 179.140625 219.945312 179.160156 219.707031 179.371094 C 219.226562 179.792969 219.351562 180.371094 219.984375 180.660156 C 220.277344 180.792969 220.140625 181.164062 219.546875 181.839844 C 218.792969 182.699219 218.625 182.78125 218.226562 182.476562 C 217.859375 182.203125 217.820312 182.273438 218.027344 182.832031 C 218.195312 183.289062 218.132812 183.503906 217.847656 183.445312 C 217.546875 183.386719 217.539062 183.507812 217.820312 183.824219 C 218.398438 184.476562 217.367188 186.25 216.136719 186.707031 C 215.550781 186.925781 215.183594 187.273438 215.179688 187.605469 C 215.175781 188.023438 215.296875 188.050781 215.707031 187.730469 C 216.582031 187.046875 216.296875 188.054688 215.023438 190.144531 C 214.386719 191.191406 213.808594 191.902344 213.742188 191.726562 C 213.582031 191.292969 212.21875 192.996094 212.214844 193.636719 C 212.210938 194.050781 212.265625 194.039062 212.535156 193.574219 C 212.972656 192.808594 213.429688 193.070312 213.058594 193.878906 C 212.738281 194.585938 211.730469 195.117188 211.851562 194.519531 C 211.890625 194.3125 211.78125 194.199219 211.601562 194.265625 C 211.425781 194.332031 211.332031 194.519531 211.394531 194.6875 C 211.457031 194.855469 211.304688 195.066406 211.054688 195.160156 C 210.765625 195.269531 210.707031 195.621094 210.894531 196.121094 C 211.101562 196.667969 211.042969 196.90625 210.707031 196.902344 C 209.972656 196.898438 209.351562 198.65625 209.875 199.253906 C 210.25 199.683594 210.222656 199.722656 209.675781 199.539062 C 208.9375 199.289062 208.714844 199.828125 209.289062 200.476562 C 209.570312 200.796875 209.515625 200.949219 209.078125 201.0625 C 208.074219 201.320312 207.742188 201.554688 207.875 201.910156 C 207.957031 202.128906 208.125 202.035156 208.351562 201.644531 C 208.652344 201.128906 208.703125 201.113281 208.714844 201.554688 C 208.722656 201.835938 208.453125 202.160156 208.113281 202.273438 C 207.65625 202.429688 207.585938 202.628906 207.84375 203.0625 C 208.035156 203.382812 208.042969 203.507812 207.867188 203.335938 C 207.441406 202.921875 206.839844 203.160156 207.21875 203.589844 C 207.382812 203.773438 207.425781 204.253906 207.3125 204.65625 C 207.199219 205.0625 207.042969 205.226562 206.96875 205.03125 C 206.894531 204.832031 206.613281 204.75 206.34375 204.851562 C 205.964844 204.992188 205.964844 205.101562 206.34375 205.316406 C 206.71875 205.53125 206.738281 205.78125 206.433594 206.371094 C 206.125 206.964844 205.992188 207.046875 205.863281 206.722656 C 205.738281 206.410156 205.640625 206.476562 205.492188 206.980469 C 205.378906 207.355469 205.144531 207.714844 204.972656 207.777344 C 204.800781 207.84375 204.65625 208.128906 204.65625 208.414062 C 204.652344 208.699219 204.789062 208.882812 204.960938 208.816406 C 205.132812 208.753906 205.238281 208.878906 205.195312 209.097656 C 205.152344 209.316406 204.910156 209.496094 204.660156 209.492188 C 204.386719 209.492188 204.246094 209.820312 204.300781 210.324219 C 204.363281 210.851562 204.21875 211.160156 203.921875 211.15625 C 203.316406 211.152344 202.882812 212.25 203.015625 213.445312 C 203.089844 214.085938 202.960938 214.375 202.605469 214.371094 C 202.285156 214.367188 202.199219 214.488281 202.378906 214.695312 C 202.570312 214.910156 202.359375 215.148438 201.769531 215.394531 C 201.101562 215.675781 200.695312 216.222656 200.210938 217.523438 C 199.847656 218.484375 199.613281 219.300781 199.683594 219.332031 C 200.054688 219.5 201.597656 217.457031 201.433594 217.019531 C 201.289062 216.640625 201.449219 216.476562 202.054688 216.375 C 202.851562 216.238281 203.390625 216.648438 202.738281 216.894531 C 202.011719 217.164062 200.449219 220.011719 200.019531 221.84375 C 199.769531 222.917969 199.574219 224.761719 199.582031 225.941406 C 199.59375 227.125 199.511719 228.207031 199.402344 228.347656 C 199.089844 228.746094 198.960938 228.113281 198.914062 225.988281 L 198.875 224.027344 L 198.183594 225.839844 C 197.460938 227.722656 197.386719 228.628906 198.039062 227.578125 C 198.339844 227.09375 198.351562 227.152344 198.089844 227.871094 C 197.839844 228.550781 197.664062 228.699219 197.371094 228.476562 C 196.953125 228.164062 196.960938 228.464844 197.402344 229.40625 C 197.597656 229.824219 197.558594 229.910156 197.269531 229.707031 C 196.96875 229.492188 196.625 229.878906 195.921875 231.214844 C 195.242188 232.519531 195.105469 233.082031 195.429688 233.265625 C 195.679688 233.410156 195.992188 234.082031 196.136719 234.800781 C 196.347656 235.855469 196.28125 236.09375 195.765625 236.144531 C 194.972656 236.226562 194.792969 235.820312 195.441406 235.410156 C 195.863281 235.144531 195.816406 235.085938 195.105469 234.980469 C 194.339844 234.867188 194.304688 234.917969 194.605469 235.71875 C 194.96875 236.6875 194.683594 238.15625 194.175781 237.925781 C 193.992188 237.84375 193.910156 237.449219 193.992188 237.050781 C 194.242188 235.832031 194.011719 235.84375 193.410156 237.082031 C 193.097656 237.730469 192.976562 238.414062 193.144531 238.597656 C 193.308594 238.785156 193.222656 239.1875 192.957031 239.492188 C 192.6875 239.796875 192.484375 240.351562 192.503906 240.726562 C 192.519531 241.101562 192.378906 241.378906 192.1875 241.339844 C 191.996094 241.300781 191.835938 241.5 191.832031 241.777344 C 191.832031 242.058594 191.582031 242.460938 191.28125 242.671875 C 190.980469 242.882812 190.761719 243.355469 190.800781 243.722656 C 190.835938 244.089844 190.695312 244.539062 190.488281 244.726562 C 190.277344 244.910156 190.265625 245.183594 190.457031 245.332031 C 190.652344 245.484375 190.644531 245.570312 190.4375 245.53125 C 189.972656 245.4375 189.808594 248.023438 190.21875 248.90625 C 190.742188 250.015625 190.875 250.644531 190.601562 250.746094 C 190.460938 250.800781 190.144531 250.101562 189.902344 249.199219 L 189.457031 247.550781 L 188.941406 248.605469 C 188.355469 249.804688 188.378906 250.273438 189 249.730469 C 189.347656 249.421875 189.402344 249.480469 189.324219 250.078125 C 189.269531 250.476562 189.058594 251.082031 188.855469 251.425781 C 188.652344 251.773438 188.511719 251.890625 188.546875 251.6875 C 188.578125 251.484375 188.398438 251.085938 188.148438 250.800781 C 187.722656 250.3125 187.6875 250.34375 187.617188 251.246094 C 187.574219 251.777344 187.410156 252.1875 187.246094 252.15625 C 187.085938 252.121094 186.921875 252.265625 186.878906 252.476562 C 186.835938 252.683594 187.0625 252.757812 187.378906 252.640625 C 187.820312 252.476562 188.019531 252.628906 188.226562 253.296875 C 188.550781 254.351562 188.449219 255 187.933594 255.191406 C 187.722656 255.273438 187.355469 255.796875 187.121094 256.359375 C 186.886719 256.917969 186.601562 257.335938 186.492188 257.285156 C 186.191406 257.152344 187.5 254.328125 187.9375 254.160156 C 188.148438 254.082031 188.269531 253.890625 188.210938 253.734375 C 188.15625 253.582031 187.648438 253.886719 187.085938 254.414062 C 186.523438 254.941406 186.132812 255.558594 186.21875 255.789062 C 186.3125 256.042969 186.128906 256.226562 185.742188 256.265625 C 185.394531 256.300781 184.96875 256.515625 184.796875 256.746094 C 184.59375 257.011719 184.609375 257.113281 184.839844 257.03125 C 185.035156 256.960938 184.941406 257.464844 184.625 258.152344 C 184.066406 259.378906 183.859375 259.652344 183.738281 259.332031 Z M 186.488281 253.347656 C 186.527344 253.164062 186.308594 252.738281 186.003906 252.40625 C 185.628906 251.996094 185.507812 251.96875 185.625 252.316406 C 185.71875 252.597656 185.792969 253.074219 185.789062 253.375 C 185.785156 253.953125 186.375 253.929688 186.488281 253.347656 Z M 174.507812 255.304688 C 174.320312 255.097656 174.277344 255.199219 174.394531 255.554688 C 174.5 255.878906 174.640625 256.03125 174.703125 255.894531 C 174.765625 255.753906 174.679688 255.492188 174.507812 255.304688 Z M 185.398438 248.996094 C 185.203125 248.472656 183.402344 249.171875 182.902344 249.964844 C 182.484375 250.621094 183.070312 251.652344 183.53125 251.074219 C 183.679688 250.886719 183.703125 251.027344 183.582031 251.386719 C 183.460938 251.746094 183.507812 252.148438 183.683594 252.285156 C 184.0625 252.574219 185.617188 249.585938 185.398438 248.996094 Z M 187.726562 249.609375 C 188.054688 249.03125 188.414062 248.472656 188.527344 248.363281 C 188.882812 248.023438 190.195312 243.308594 189.898438 243.417969 C 189.554688 243.546875 189.0625 244.597656 188.796875 245.777344 C 188.683594 246.265625 188.457031 246.71875 188.289062 246.78125 C 188.121094 246.84375 188.082031 246.585938 188.199219 246.207031 C 188.398438 245.589844 188.382812 245.582031 188.046875 246.132812 C 187.839844 246.46875 187.789062 246.832031 187.929688 246.941406 C 188.203125 247.152344 187.578125 248.769531 187.160156 248.925781 C 187.023438 248.976562 186.714844 249.480469 186.480469 250.042969 C 186.105469 250.9375 186.121094 251.039062 186.589844 250.863281 C 186.886719 250.753906 187.398438 250.1875 187.726562 249.609375 Z M 186.585938 247.632812 C 186.492188 247.421875 186.429688 247.460938 186.425781 247.734375 C 186.417969 247.972656 186.210938 248.246094 185.964844 248.335938 C 185.71875 248.429688 185.660156 248.613281 185.832031 248.746094 C 186.214844 249.042969 186.820312 248.144531 186.585938 247.632812 Z M 193.507812 234.644531 C 193.828125 233.777344 193.824219 233.648438 193.492188 234.140625 C 193.246094 234.5 192.875 235.214844 192.667969 235.722656 C 192.457031 236.234375 192.164062 236.59375 192.015625 236.527344 C 191.867188 236.460938 191.859375 236.707031 191.996094 237.074219 L 192.25 237.742188 L 192.664062 236.777344 C 192.890625 236.246094 193.273438 235.285156 193.507812 234.644531 Z M 191.777344 235.335938 C 192.214844 234.648438 192.152344 234.148438 191.691406 234.648438 C 191.523438 234.832031 191.550781 234.695312 191.753906 234.347656 C 191.957031 234 192.0625 233.558594 191.992188 233.371094 C 191.921875 233.179688 192 232.972656 192.167969 232.914062 C 192.332031 232.851562 192.414062 232.644531 192.339844 232.453125 C 192.195312 232.0625 190.882812 234.625 190.726562 235.605469 C 190.601562 236.394531 191.207031 236.238281 191.777344 235.335938 Z M 194.785156 231.683594 C 195.320312 230.777344 196.003906 229.515625 196.300781 228.875 C 196.601562 228.238281 196.972656 227.671875 197.125 227.613281 C 197.277344 227.554688 197.328125 227.296875 197.230469 227.039062 C 197.132812 226.78125 197.714844 225.171875 198.523438 223.460938 C 199.652344 221.078125 199.894531 220.246094 199.570312 219.894531 C 199.175781 219.46875 199.148438 219.480469 199.152344 220.105469 C 199.152344 220.726562 199.125 220.738281 198.742188 220.308594 C 198.46875 219.996094 198.183594 219.976562 197.878906 220.246094 C 197.597656 220.492188 197.632812 220.171875 197.96875 219.386719 C 198.574219 217.988281 199.101562 217.816406 198.582031 219.191406 C 198.226562 220.125 198.683594 219.75 199.332031 218.574219 C 199.8125 217.707031 199.6875 217.488281 198.882812 217.789062 C 198.210938 218.039062 195.835938 222.402344 196.054688 222.980469 C 196.117188 223.144531 196.449219 222.679688 196.796875 221.953125 C 197.21875 221.0625 197.589844 220.660156 197.929688 220.726562 C 198.289062 220.796875 198.359375 220.925781 198.171875 221.164062 C 198.027344 221.351562 198.035156 221.597656 198.1875 221.714844 C 198.339844 221.832031 198.234375 221.929688 197.953125 221.925781 C 197.648438 221.921875 197.398438 222.226562 197.339844 222.675781 C 197.28125 223.089844 197.027344 223.507812 196.773438 223.601562 C 196.519531 223.699219 196.445312 223.878906 196.613281 224.007812 C 196.777344 224.136719 196.769531 224.296875 196.59375 224.359375 C 196.027344 224.570312 195.757812 224.507812 195.746094 224.160156 C 195.742188 223.972656 195.675781 223.945312 195.609375 224.097656 C 195.539062 224.25 195.550781 224.425781 195.640625 224.488281 C 195.726562 224.550781 195.597656 225.078125 195.355469 225.65625 C 195.109375 226.238281 195.011719 226.675781 195.132812 226.628906 C 195.257812 226.585938 195.320312 226.722656 195.277344 226.9375 C 195.226562 227.203125 195.015625 227.265625 194.617188 227.125 C 194.296875 227.015625 194.105469 227.039062 194.191406 227.183594 C 194.527344 227.734375 194.546875 228.230469 194.238281 228.34375 C 194.0625 228.410156 193.953125 228.257812 193.992188 228.003906 C 194.035156 227.753906 193.777344 228.121094 193.425781 228.820312 C 193.070312 229.523438 192.746094 230.417969 192.699219 230.816406 C 192.65625 231.210938 192.917969 230.804688 193.285156 229.90625 L 193.949219 228.28125 L 194.265625 229.714844 C 194.441406 230.503906 194.484375 231.339844 194.363281 231.574219 C 194.210938 231.875 194.140625 231.824219 194.132812 231.402344 C 194.117188 230.515625 193.636719 230.855469 193.394531 231.925781 C 193.175781 232.886719 193.273438 233.535156 193.613281 233.40625 C 193.722656 233.367188 194.25 232.59375 194.785156 231.6875 Z M 187.285156 224.496094 C 187.097656 223.992188 187.085938 223.996094 186.144531 225.003906 C 185.71875 225.460938 185.417969 225.972656 185.480469 226.136719 C 185.539062 226.300781 185.695312 226.300781 185.824219 226.132812 C 185.953125 225.96875 186.144531 226.070312 186.253906 226.359375 C 186.421875 226.804688 186.523438 226.738281 186.941406 225.890625 C 187.214844 225.34375 187.367188 224.714844 187.285156 224.492188 Z M 188.296875 222.582031 C 188.234375 222.417969 188.078125 222.414062 187.949219 222.582031 C 187.824219 222.746094 187.769531 223.015625 187.832031 223.183594 C 187.894531 223.351562 188.050781 223.351562 188.179688 223.1875 C 188.304688 223.019531 188.359375 222.75 188.296875 222.582031 Z M 146.492188 227.914062 C 146.21875 227.511719 145.628906 226.777344 145.183594 226.28125 L 144.375 225.375 L 144.914062 226.339844 C 145.210938 226.867188 145.625 227.757812 145.832031 228.3125 C 146.121094 229.085938 146.304688 229.246094 146.601562 228.984375 C 146.875 228.742188 146.84375 228.425781 146.492188 227.914062 Z M 167.792969 215.699219 C 167.484375 215.558594 167.488281 215.691406 167.808594 216.144531 C 168.070312 216.515625 168.257812 216.601562 168.25 216.34375 C 168.242188 216.101562 168.035156 215.808594 167.792969 215.699219 Z M 167.316406 214.578125 C 167.019531 214.519531 166.734375 214.5625 166.679688 214.679688 C 166.628906 214.792969 166.828125 214.933594 167.125 214.992188 C 167.421875 215.050781 167.707031 215.003906 167.757812 214.890625 C 167.8125 214.777344 167.613281 214.636719 167.316406 214.578125 Z M 215.078125 188.828125 C 215.015625 188.664062 214.828125 188.578125 214.660156 188.640625 C 214.492188 188.703125 214.40625 188.890625 214.46875 189.054688 C 214.53125 189.222656 214.71875 189.308594 214.886719 189.246094 C 215.054688 189.183594 215.140625 188.996094 215.078125 188.828125 Z M 217.425781 184.019531 C 217.289062 183.652344 217.277344 183.109375 217.40625 182.8125 C 217.59375 182.363281 217.539062 182.375 217.082031 182.875 C 216.78125 183.207031 216.601562 183.667969 216.6875 183.898438 C 216.773438 184.128906 216.84375 184.566406 216.839844 184.871094 C 216.835938 185.273438 216.949219 185.320312 217.253906 185.050781 C 217.484375 184.847656 217.5625 184.382812 217.425781 184.019531 Z M 218.726562 180.566406 C 218.765625 180.363281 218.664062 180.246094 218.496094 180.308594 C 218.328125 180.371094 218.160156 180.589844 218.117188 180.792969 C 218.078125 181 218.179688 181.117188 218.347656 181.054688 C 218.515625 180.992188 218.683594 180.773438 218.726562 180.566406 Z M 153.644531 196.835938 C 153.457031 196.632812 153.410156 196.730469 153.527344 197.089844 C 153.632812 197.414062 153.773438 197.566406 153.835938 197.425781 C 153.902344 197.289062 153.8125 197.023438 153.644531 196.835938 Z M 153.621094 194.117188 C 153.664062 193.898438 153.492188 193.621094 153.234375 193.503906 C 152.894531 193.351562 152.835938 193.492188 153.019531 194.046875 C 153.261719 194.78125 153.253906 194.785156 152.816406 194.203125 C 152.503906 193.78125 152.273438 193.726562 152.054688 194.011719 C 151.855469 194.269531 151.902344 194.632812 152.183594 194.988281 C 152.542969 195.445312 152.714844 195.457031 153.082031 195.039062 C 153.335938 194.753906 153.574219 194.339844 153.621094 194.117188 Z M 138.507812 195.421875 C 138.453125 194.941406 138.234375 194.46875 138.019531 194.371094 C 137.777344 194.261719 137.734375 194.621094 137.90625 195.324219 C 138.230469 196.640625 138.652344 196.707031 138.507812 195.421875 Z M 137.183594 193.226562 C 137.03125 192.820312 136.738281 192.453125 136.535156 192.414062 C 136.328125 192.375 136.082031 192.136719 135.992188 191.886719 C 135.898438 191.636719 135.992188 191.464844 136.203125 191.507812 C 136.414062 191.550781 136.574219 191.109375 136.5625 190.53125 C 136.550781 189.953125 136.730469 189.40625 136.964844 189.320312 C 137.675781 189.054688 137.144531 188.355469 136.183594 188.289062 C 135.035156 188.207031 134.675781 188.347656 133.855469 189.1875 C 133.058594 190 133.097656 191.050781 133.941406 191.484375 C 134.359375 191.703125 134.632812 192.183594 134.792969 192.992188 C 135.003906 194.050781 135.101562 194.15625 135.675781 193.941406 C 136.03125 193.808594 136.375 193.835938 136.4375 194.003906 C 136.5 194.167969 136.753906 194.230469 137.007812 194.136719 C 137.285156 194.03125 137.355469 193.683594 137.183594 193.226562 Z M 134.800781 190.875 C 133.875 190.398438 133.6875 189.851562 134.367188 189.601562 C 135.140625 189.3125 136.382812 190.050781 136.113281 190.636719 C 135.824219 191.265625 135.625 191.300781 134.800781 190.875 Z M 135.761719 189.425781 C 135.699219 189.257812 135.78125 189.070312 135.949219 189.007812 C 136.117188 188.945312 136.304688 189.03125 136.367188 189.199219 C 136.429688 189.363281 136.34375 189.550781 136.175781 189.613281 C 136.011719 189.675781 135.824219 189.589844 135.761719 189.425781 Z M 147.523438 189.433594 C 147.441406 189.226562 147.046875 188.984375 146.640625 188.902344 C 146.238281 188.820312 145.515625 188.402344 145.039062 187.972656 C 144.089844 187.113281 142.695312 186.523438 142.097656 186.726562 C 141.886719 186.800781 141.667969 186.730469 141.609375 186.578125 C 141.550781 186.421875 140.824219 185.960938 139.992188 185.554688 L 138.476562 184.8125 L 139.023438 185.601562 C 139.71875 186.609375 140.488281 187.03125 143.011719 187.785156 C 144.136719 188.121094 145.121094 188.570312 145.203125 188.78125 C 145.375 189.246094 146.960938 190.078125 147.371094 189.925781 C 147.535156 189.863281 147.601562 189.644531 147.523438 189.433594 Z M 132.253906 190.214844 C 132.171875 190 131.890625 189.824219 131.628906 189.820312 C 131.308594 189.820312 131.238281 190.050781 131.417969 190.527344 C 131.597656 191.003906 131.800781 191.132812 132.039062 190.921875 C 132.238281 190.746094 132.332031 190.429688 132.253906 190.214844 Z M 134.324219 187.4375 C 134.273438 187.304688 134.402344 187.226562 134.605469 187.265625 C 134.8125 187.308594 134.925781 187.195312 134.859375 187.019531 C 134.792969 186.84375 135.011719 186.597656 135.347656 186.472656 C 135.679688 186.347656 135.902344 186.109375 135.839844 185.945312 C 135.695312 185.558594 135.339844 185.695312 134.449219 186.472656 C 133.667969 187.15625 130.929688 188.53125 130.835938 188.28125 C 130.804688 188.195312 130.914062 187.832031 131.078125 187.46875 C 131.351562 186.871094 131.277344 186.78125 130.257812 186.433594 C 128.976562 185.996094 128.585938 186.0625 128.261719 186.765625 C 127.898438 187.570312 128.273438 188.152344 128.859375 187.695312 C 129.433594 187.242188 129.945312 187.527344 130.476562 188.582031 C 130.960938 189.550781 131.644531 189.835938 131.9375 189.191406 C 132.246094 188.519531 132.617188 188.417969 132.816406 188.953125 C 132.953125 189.320312 133.097656 189.253906 133.695312 188.539062 C 134.089844 188.066406 134.371094 187.574219 134.320312 187.4375 Z M 141.363281 183.96875 C 141.097656 183.738281 140.167969 183.25 139.300781 182.882812 C 137.816406 182.257812 137.089844 182.222656 134.789062 182.675781 L 133.820312 182.863281 L 134.980469 183.28125 C 135.617188 183.511719 136.5625 183.628906 137.078125 183.546875 C 137.597656 183.460938 138.832031 183.636719 139.820312 183.9375 C 141.863281 184.554688 142.046875 184.558594 141.363281 183.96875 Z M 133.703125 186.050781 C 133.324219 185.515625 133.617188 185.078125 134.027344 185.566406 C 134.140625 185.707031 134.472656 185.445312 134.761719 184.992188 L 135.285156 184.164062 L 134.464844 184.054688 C 133.261719 183.894531 132.449219 184.609375 132.445312 185.832031 C 132.441406 186.816406 132.480469 186.867188 132.957031 186.496094 C 133.246094 186.265625 133.527344 186.230469 133.59375 186.414062 C 133.660156 186.589844 133.800781 186.707031 133.902344 186.667969 C 134.003906 186.628906 133.917969 186.351562 133.703125 186.050781 Z M 129.714844 184.617188 C 131.011719 183.894531 132.210938 183.0625 132.382812 182.765625 C 132.550781 182.46875 133.371094 181.949219 134.203125 181.613281 C 135.035156 181.273438 135.675781 180.894531 135.628906 180.765625 C 135.582031 180.640625 135.335938 180.609375 135.085938 180.703125 C 134.835938 180.796875 134.582031 180.738281 134.519531 180.570312 C 134.457031 180.40625 133.988281 180.425781 133.476562 180.617188 C 132.964844 180.804688 132.238281 180.921875 131.863281 180.871094 C 131.410156 180.8125 130.957031 180.980469 130.5 181.378906 C 130.046875 181.777344 129.84375 181.851562 129.890625 181.605469 C 129.933594 181.402344 129.71875 181.328125 129.417969 181.441406 C 128.507812 181.789062 127.636719 182.507812 127.75 182.816406 C 127.878906 183.15625 127.414062 184.253906 127.097656 184.375 C 126.976562 184.421875 127.015625 184.105469 127.183594 183.675781 C 127.53125 182.804688 127.089844 182.921875 126.21875 183.9375 C 125.550781 184.710938 126.230469 186.96875 126.9375 186.320312 C 127.167969 186.105469 128.421875 185.335938 129.714844 184.617188 Z M 248.765625 137.941406 C 248.898438 137.285156 248.523438 137.339844 248.074219 138.042969 C 247.707031 138.625 247.71875 138.679688 248.171875 138.523438 C 248.457031 138.421875 248.722656 138.160156 248.765625 137.941406 Z M 251.578125 135.796875 C 251.464844 135.484375 251.359375 135.546875 250.625 136.359375 C 250.273438 136.746094 250.089844 137.105469 250.210938 137.160156 C 250.496094 137.292969 251.6875 136.101562 251.578125 135.796875 Z M 251.394531 135.417969 C 251.765625 135.402344 252.097656 135.1875 252.148438 134.933594 C 252.210938 134.621094 252.101562 134.605469 251.792969 134.878906 C 251.519531 135.121094 251.375 135.125 251.421875 134.886719 C 251.464844 134.675781 251.800781 134.488281 252.171875 134.46875 C 252.625 134.445312 252.777344 134.3125 252.636719 134.050781 C 252.214844 133.269531 252.230469 132.878906 252.691406 132.707031 C 252.949219 132.609375 253.128906 132.699219 253.089844 132.902344 C 252.96875 133.519531 253.332031 133.203125 253.71875 132.351562 C 253.917969 131.914062 253.984375 131.511719 253.863281 131.453125 C 253.457031 131.269531 255.09375 130.890625 255.675781 131.035156 C 256.132812 131.148438 256.144531 131.121094 255.738281 130.90625 C 255.339844 130.695312 255.359375 130.410156 255.839844 129.5625 C 256.175781 128.96875 256.363281 128.257812 256.253906 127.984375 C 256.144531 127.695312 256.015625 127.644531 255.953125 127.871094 C 255.894531 128.085938 255.433594 128.71875 254.929688 129.28125 C 254.429688 129.839844 254.054688 130.40625 254.105469 130.535156 C 254.152344 130.664062 254 130.839844 253.761719 130.925781 C 253.175781 131.148438 249.851562 135.796875 250 136.195312 C 250.074219 136.394531 250.230469 136.316406 250.421875 135.980469 C 250.589844 135.691406 251.027344 135.4375 251.394531 135.417969 Z M 242.609375 121.082031 C 242.425781 120.589844 241.71875 121.136719 241.710938 121.78125 C 241.710938 122.085938 241.878906 122.113281 242.234375 121.863281 C 242.527344 121.660156 242.695312 121.308594 242.609375 121.082031 Z M 185.566406 258.679688 C 185.523438 258.566406 185.617188 258.191406 185.773438 257.847656 C 185.929688 257.503906 186.105469 257.351562 186.164062 257.511719 C 186.226562 257.667969 186.132812 258.042969 185.960938 258.34375 C 185.785156 258.644531 185.609375 258.796875 185.566406 258.679688 Z M 189.523438 251.707031 C 189.433594 251.457031 189.460938 251.117188 189.589844 250.953125 C 189.71875 250.789062 189.898438 250.855469 189.992188 251.105469 C 190.085938 251.355469 190.058594 251.695312 189.929688 251.863281 C 189.800781 252.027344 189.617188 251.957031 189.523438 251.707031 Z M 170.214844 258.3125 C 170.117188 258.0625 170.15625 257.515625 170.292969 257.09375 C 170.535156 256.359375 170.546875 256.363281 170.625 257.164062 C 170.726562 258.191406 170.453125 258.953125 170.214844 258.3125 Z M 177.804688 255.5 C 177.738281 255.324219 177.851562 255.210938 178.058594 255.253906 C 178.261719 255.292969 178.453125 255.386719 178.480469 255.460938 C 178.507812 255.535156 178.394531 255.644531 178.226562 255.707031 C 178.0625 255.769531 177.871094 255.675781 177.804688 255.5 Z M 171.46875 255.203125 C 171.421875 255.078125 171.59375 254.703125 171.847656 254.371094 C 172.230469 253.875 172.339844 253.84375 172.472656 254.191406 C 172.558594 254.425781 172.445312 254.777344 172.21875 254.976562 C 171.6875 255.449219 171.574219 255.484375 171.46875 255.203125 Z M 191.378906 244.207031 C 191.5625 243.6875 191.726562 243.1875 191.746094 243.105469 C 191.761719 243.019531 191.851562 243.140625 191.9375 243.378906 C 192.027344 243.617188 191.863281 244.113281 191.574219 244.484375 L 191.046875 245.15625 Z M 197.414062 239.429688 C 197.742188 238.707031 199.203125 236.925781 199.285156 237.144531 C 199.433594 237.542969 198.332031 239.238281 197.792969 239.4375 C 197.539062 239.535156 197.367188 239.53125 197.414062 239.429688 Z M 195.707031 238.171875 C 195.554688 238.050781 195.535156 237.816406 195.664062 237.648438 C 195.796875 237.480469 195.980469 237.554688 196.078125 237.816406 C 196.277344 238.347656 196.125 238.492188 195.707031 238.171875 Z M 159.65625 250.902344 C 159.695312 250.695312 159.789062 250.507812 159.863281 250.480469 C 159.9375 250.453125 160.046875 250.566406 160.109375 250.730469 C 160.171875 250.898438 160.078125 251.089844 159.902344 251.15625 C 159.726562 251.21875 159.613281 251.105469 159.65625 250.902344 Z M 200.421875 232.691406 C 200.226562 232.234375 200.015625 232.136719 199.746094 232.375 C 199.316406 232.757812 198.984375 232.257812 199.351562 231.785156 C 199.480469 231.617188 199.488281 231.21875 199.367188 230.894531 C 199.246094 230.574219 199.339844 230.234375 199.582031 230.148438 C 199.820312 230.058594 200.003906 229.71875 199.988281 229.390625 C 199.957031 228.648438 201.214844 225.640625 201.503906 225.773438 C 201.621094 225.824219 201.761719 226.265625 201.816406 226.75 C 201.867188 227.234375 201.800781 227.582031 201.664062 227.519531 C 201.527344 227.457031 201.152344 228.304688 200.832031 229.402344 C 200.222656 231.484375 200.175781 231.835938 200.566406 231.332031 C 200.695312 231.167969 200.878906 231.242188 200.976562 231.503906 C 201.074219 231.761719 201.027344 232.023438 200.871094 232.082031 C 200.71875 232.136719 200.617188 232.445312 200.652344 232.765625 C 200.695312 233.210938 200.640625 233.191406 200.421875 232.691406 Z M 158.238281 247.429688 C 157.78125 247.3125 157.324219 246.984375 157.222656 246.699219 C 157.066406 246.265625 157.160156 246.253906 157.804688 246.632812 C 158.226562 246.878906 158.789062 247.066406 159.058594 247.050781 C 159.359375 247.03125 159.457031 247.140625 159.308594 247.332031 C 159.175781 247.503906 158.691406 247.546875 158.238281 247.429688 Z M 203.757812 224.40625 C 203.886719 224.121094 204.097656 223.9375 204.226562 223.996094 C 204.355469 224.054688 204.25 224.285156 203.992188 224.511719 C 203.621094 224.835938 203.574219 224.816406 203.757812 224.40625 Z M 153.042969 240.46875 C 152.816406 240.214844 152.558594 239.777344 152.464844 239.496094 C 152.351562 239.15625 152.484375 239.191406 152.859375 239.605469 C 153.171875 239.945312 153.433594 240.382812 153.441406 240.578125 C 153.445312 240.773438 153.269531 240.722656 153.042969 240.46875 Z M 204.835938 217.800781 C 204.601562 217.179688 207.265625 213.574219 207.78125 213.808594 C 207.894531 213.859375 207.945312 213.960938 207.894531 214.039062 C 207.84375 214.113281 207.3125 215.007812 206.71875 216.027344 C 205.628906 217.890625 205.066406 218.421875 204.835938 217.800781 Z M 204.71875 215.144531 C 204.566406 215.023438 204.546875 214.789062 204.675781 214.621094 C 204.804688 214.453125 204.992188 214.527344 205.089844 214.789062 C 205.289062 215.320312 205.136719 215.464844 204.71875 215.144531 Z M 205.339844 210.046875 C 205.609375 209.570312 205.992188 209.128906 206.183594 209.0625 C 206.375 208.996094 206.308594 209.332031 206.039062 209.808594 C 205.765625 210.28125 205.386719 210.722656 205.195312 210.789062 C 205.003906 210.855469 205.066406 210.519531 205.339844 210.046875 Z M 174.367188 219.449219 C 174.238281 219.164062 173.988281 218.988281 173.8125 219.054688 C 173.628906 219.121094 173.472656 218.890625 173.453125 218.527344 C 173.4375 218.167969 173.246094 217.84375 173.03125 217.800781 C 172.820312 217.757812 172.550781 217.476562 172.4375 217.175781 C 172.324219 216.871094 171.710938 216.09375 171.074219 215.445312 C 170.4375 214.792969 169.910156 214.089844 169.902344 213.878906 C 169.894531 213.667969 170.191406 213.839844 170.558594 214.257812 C 173.519531 217.621094 174.488281 218.867188 174.542969 219.378906 C 174.597656 219.929688 174.585938 219.933594 174.367188 219.449219 Z M 139.433594 228.164062 C 139.097656 227.578125 138.578125 226.722656 138.28125 226.265625 C 137.34375 224.820312 138.222656 225.574219 139.371094 227.203125 C 140.660156 229.03125 140.644531 229.007812 140.304688 229.132812 C 140.160156 229.1875 139.769531 228.753906 139.433594 228.164062 Z M 211.179688 195.964844 C 211.085938 195.71875 211.21875 195.441406 211.46875 195.351562 C 211.71875 195.257812 211.96875 195.300781 212.023438 195.449219 C 212.078125 195.597656 211.949219 195.875 211.734375 196.066406 C 211.5 196.273438 211.28125 196.234375 211.179688 195.964844 Z M 165.492188 212.878906 C 165.34375 212.761719 165.394531 212.515625 165.609375 212.324219 C 165.84375 212.117188 166.0625 212.15625 166.164062 212.429688 C 166.347656 212.917969 165.914062 213.207031 165.492188 212.878906 Z M 163.699219 210.179688 C 163.46875 210.175781 163.285156 209.921875 163.285156 209.617188 C 163.289062 209.21875 163.203125 209.175781 162.984375 209.460938 C 162.773438 209.730469 162.703125 209.714844 162.761719 209.40625 C 162.894531 208.75 163.527344 208.832031 163.933594 209.558594 C 164.125 209.902344 164.246094 210.1875 164.199219 210.191406 C 164.152344 210.191406 163.929688 210.1875 163.699219 210.179688 Z M 162.394531 207.441406 C 162.011719 207.441406 161.621094 207.535156 161.523438 207.65625 C 161.425781 207.773438 161.21875 207.597656 161.066406 207.265625 C 160.914062 206.933594 160.710938 206.492188 160.613281 206.292969 C 160.519531 206.089844 160.296875 205.882812 160.121094 205.835938 C 159.941406 205.785156 160.054688 205.5625 160.367188 205.34375 C 160.683594 205.121094 160.988281 205.074219 161.046875 205.234375 C 161.109375 205.394531 161.257812 205.398438 161.378906 205.242188 C 161.714844 204.8125 161.886719 206.324219 161.558594 206.804688 C 161.34375 207.121094 161.371094 207.148438 161.679688 206.929688 C 161.902344 206.769531 162.34375 206.753906 162.660156 206.898438 C 163.386719 207.226562 163.28125 207.441406 162.394531 207.441406 Z M 135.785156 217.054688 C 135.398438 216.976562 135.34375 216.863281 135.558594 216.589844 C 135.710938 216.390625 136.140625 216.367188 136.511719 216.535156 C 137.074219 216.789062 137.113281 216.867188 136.742188 217.003906 C 136.496094 217.089844 136.066406 217.113281 135.785156 217.054688 Z M 182.59375 198.097656 L 182.234375 197.109375 L 182.9375 197.707031 C 183.644531 198.3125 183.757812 198.785156 183.238281 198.976562 C 183.082031 199.035156 182.789062 198.640625 182.59375 198.097656 Z M 185.308594 193.375 C 185.246094 193.207031 185.339844 193.019531 185.515625 192.953125 C 185.695312 192.886719 185.804688 193 185.765625 193.203125 C 185.722656 193.410156 185.628906 193.601562 185.558594 193.628906 C 185.484375 193.65625 185.371094 193.542969 185.308594 193.375 Z M 132.878906 211.527344 C 133.03125 211.171875 132.960938 210.914062 132.667969 210.746094 C 132.214844 210.488281 132.066406 209.433594 132.460938 209.289062 C 132.894531 209.125 133.449219 211.457031 133.046875 211.761719 C 132.734375 212 132.699219 211.953125 132.878906 211.527344 Z M 227.269531 168.761719 C 227.136719 168.402344 227.902344 167.8125 228.195312 168.039062 C 228.335938 168.148438 228.207031 168.410156 227.90625 168.621094 C 227.605469 168.828125 227.320312 168.894531 227.269531 168.757812 Z M 229.054688 167.054688 C 228.992188 166.890625 229.085938 166.699219 229.261719 166.632812 C 229.4375 166.566406 229.550781 166.679688 229.507812 166.886719 C 229.46875 167.089844 229.375 167.28125 229.300781 167.308594 C 229.226562 167.335938 229.117188 167.222656 229.054688 167.054688 Z M 120.59375 206.144531 C 119.925781 205.554688 119.191406 203.648438 119.488281 203.265625 C 119.613281 203.109375 119.566406 202.816406 119.394531 202.617188 C 119.042969 202.222656 119.351562 200.375 119.792969 200.210938 C 119.949219 200.152344 120.019531 200.476562 119.953125 200.925781 C 119.777344 202.117188 120.296875 202.828125 121.734375 203.355469 C 122.429688 203.609375 122.859375 203.875 122.695312 203.945312 C 122.527344 204.015625 121.898438 203.867188 121.289062 203.621094 C 120.683594 203.371094 120.121094 203.191406 120.039062 203.222656 C 119.679688 203.355469 120.316406 205.523438 120.851562 205.988281 C 121.171875 206.269531 121.363281 206.523438 121.28125 206.554688 C 121.195312 206.585938 120.886719 206.402344 120.59375 206.144531 Z M 123.066406 205.386719 C 122.910156 204.976562 123.96875 203.324219 124.441406 203.246094 C 125.242188 203.109375 125.25 203.464844 124.46875 204.429688 C 123.808594 205.242188 123.175781 205.679688 123.066406 205.386719 Z M 228.941406 165.371094 C 228.980469 165.167969 229.074219 164.976562 229.148438 164.949219 C 229.222656 164.921875 229.332031 165.035156 229.394531 165.203125 C 229.457031 165.367188 229.363281 165.558594 229.1875 165.625 C 229.011719 165.691406 228.902344 165.578125 228.941406 165.371094 Z M 231.75 163.632812 C 231.789062 163.429688 231.882812 163.238281 231.957031 163.210938 C 232.03125 163.183594 232.140625 163.296875 232.203125 163.464844 C 232.265625 163.632812 232.171875 163.820312 231.996094 163.886719 C 231.820312 163.953125 231.707031 163.839844 231.75 163.632812 Z M 230.003906 163.59375 C 230.046875 163.390625 230.140625 163.199219 230.210938 163.171875 C 230.285156 163.144531 230.398438 163.257812 230.460938 163.425781 C 230.523438 163.59375 230.429688 163.78125 230.25 163.847656 C 230.074219 163.914062 229.964844 163.800781 230.003906 163.59375 Z M 230.972656 163.191406 C 231.101562 162.90625 231.308594 162.722656 231.4375 162.78125 C 231.566406 162.839844 231.460938 163.074219 231.207031 163.296875 C 230.835938 163.625 230.785156 163.601562 230.972656 163.191406 Z M 232.65625 162.421875 C 233.136719 161.667969 233.523438 161.449219 233.671875 161.84375 C 233.78125 162.136719 233.175781 162.765625 232.59375 162.964844 C 232.394531 163.03125 232.425781 162.789062 232.65625 162.421875 Z M 235.234375 161.070312 C 235.269531 160.835938 235.105469 160.644531 234.871094 160.648438 C 234.632812 160.652344 234.5 160.503906 234.578125 160.320312 C 234.652344 160.136719 234.9375 160.085938 235.210938 160.210938 C 235.589844 160.382812 235.640625 160.558594 235.4375 160.964844 C 235.265625 161.308594 235.191406 161.34375 235.234375 161.070312 Z M 234.785156 159.742188 C 234.621094 159.613281 234.699219 159.429688 234.957031 159.332031 C 235.21875 159.234375 235.480469 159.292969 235.542969 159.457031 C 235.605469 159.625 235.53125 159.808594 235.371094 159.867188 C 235.214844 159.925781 234.953125 159.871094 234.785156 159.742188 Z M 235.808594 159.203125 C 235.515625 159.035156 235.308594 158.722656 235.351562 158.511719 C 235.457031 157.992188 236.574219 157.59375 236.734375 158.015625 C 236.800781 158.203125 237.003906 158.21875 237.179688 158.054688 C 238.140625 157.171875 238.484375 157.003906 237.90625 157.707031 C 237.542969 158.148438 237.082031 158.476562 236.882812 158.4375 C 236.683594 158.398438 236.402344 158.515625 236.257812 158.695312 C 236.078125 158.929688 236.15625 159.0625 236.511719 159.136719 C 236.8125 159.199219 236.878906 159.296875 236.679688 159.375 C 236.492188 159.449219 236.097656 159.371094 235.808594 159.203125 Z M 122.992188 199.816406 C 123.238281 199.589844 123.117188 199.449219 122.539062 199.300781 C 121.695312 199.082031 121.191406 198.308594 121.757812 198.097656 C 121.945312 198.027344 121.925781 197.730469 121.710938 197.425781 C 121.5 197.125 121.457031 196.828125 121.621094 196.769531 C 121.78125 196.707031 121.800781 196.429688 121.660156 196.148438 C 121.121094 195.058594 121.144531 194.816406 121.757812 195.0625 C 122.148438 195.222656 122.277344 195.449219 122.164062 195.78125 C 122.070312 196.046875 122.371094 197.058594 122.828125 198.035156 C 123.53125 199.539062 123.582031 199.828125 123.152344 199.964844 C 122.800781 200.078125 122.753906 200.03125 122.992188 199.816406 Z M 124.289062 199.050781 C 124.515625 198.695312 124.847656 198.429688 125.023438 198.464844 C 125.5625 198.574219 125.257812 199.207031 124.542969 199.460938 C 123.894531 199.691406 123.886719 199.679688 124.289062 199.050781 Z M 233.914062 158.339844 C 233.957031 158.136719 234.050781 157.945312 234.125 157.917969 C 234.195312 157.890625 234.308594 158.003906 234.371094 158.171875 C 234.433594 158.335938 234.339844 158.527344 234.164062 158.59375 C 233.984375 158.660156 233.875 158.546875 233.914062 158.339844 Z M 236.542969 157.296875 C 236.535156 157.074219 236.878906 156.609375 237.308594 156.265625 C 237.738281 155.917969 238.171875 155.359375 238.269531 155.023438 C 238.414062 154.523438 238.546875 154.453125 238.988281 154.648438 C 239.429688 154.847656 239.414062 154.972656 238.902344 155.332031 C 238.53125 155.589844 238.398438 155.910156 238.578125 156.113281 C 238.761719 156.320312 238.695312 156.453125 238.410156 156.449219 C 238.15625 156.449219 237.910156 156.625 237.867188 156.84375 C 237.757812 157.390625 236.5625 157.800781 236.542969 157.296875 Z M 234.378906 157.269531 C 234.261719 156.960938 234.386719 156.785156 234.714844 156.785156 C 235.003906 156.789062 235.195312 156.679688 235.144531 156.539062 C 235.042969 156.269531 236.609375 153.886719 236.980469 153.746094 C 237.101562 153.703125 237.011719 154.105469 236.777344 154.640625 C 236.542969 155.175781 236.296875 155.59375 236.230469 155.570312 C 236.160156 155.546875 235.898438 155.976562 235.648438 156.523438 C 235.121094 157.675781 234.636719 157.960938 234.378906 157.269531 Z M 244.988281 152.355469 C 244.964844 152.292969 245.113281 151.964844 245.320312 151.628906 C 245.660156 151.074219 245.675781 151.078125 245.476562 151.699219 C 245.269531 152.351562 245.082031 152.605469 244.988281 152.355469 Z M 238.757812 153.601562 C 238.570312 153.386719 238.265625 153.269531 238.082031 153.335938 C 237.902344 153.40625 237.910156 153.582031 238.097656 153.730469 C 238.316406 153.894531 238.28125 153.964844 238.015625 153.914062 C 237.398438 153.789062 237.210938 153.082031 237.683594 152.664062 C 237.90625 152.46875 238.058594 152.464844 238.019531 152.65625 C 237.980469 152.847656 238.246094 153.046875 238.605469 153.09375 C 239.390625 153.199219 240.269531 152.328125 239.773438 151.941406 C 239.589844 151.800781 239.613281 151.722656 239.828125 151.765625 C 240.042969 151.804688 240.566406 151.460938 241 151 C 241.433594 150.535156 241.867188 150.195312 241.964844 150.238281 C 242.257812 150.375 241.4375 152.085938 241 152.25 C 240.777344 152.332031 240.5 152.667969 240.386719 152.996094 C 240.269531 153.324219 239.9375 153.679688 239.640625 153.789062 C 239.34375 153.902344 238.949219 153.816406 238.757812 153.601562 Z M 120.125 197.539062 C 120.101562 197.476562 120.222656 197.179688 120.398438 196.878906 C 120.652344 196.433594 120.742188 196.421875 120.894531 196.824219 C 120.996094 197.09375 120.875 197.390625 120.625 197.484375 C 120.375 197.578125 120.148438 197.601562 120.125 197.539062 Z M 238.621094 152.59375 C 238.421875 152.367188 238.398438 151.875 238.570312 151.503906 C 238.855469 150.871094 238.894531 150.859375 239.074219 151.339844 C 239.179688 151.625 239.132812 151.910156 238.964844 151.972656 C 238.796875 152.035156 238.714844 152.230469 238.78125 152.40625 C 238.847656 152.582031 239.023438 152.570312 239.171875 152.378906 C 239.339844 152.164062 239.40625 152.199219 239.355469 152.464844 C 239.238281 153.046875 239.050781 153.078125 238.621094 152.59375 Z M 242.457031 149.679688 C 242.25 149.519531 242.128906 149.273438 242.191406 149.136719 C 242.359375 148.765625 242.804688 149.050781 242.824219 149.546875 C 242.835938 149.890625 242.765625 149.917969 242.457031 149.679688 Z M 118.320312 194.570312 C 118.085938 193.945312 118.125 193.585938 118.429688 193.472656 C 118.945312 193.28125 119.214844 193.71875 118.859375 194.179688 C 118.730469 194.347656 118.738281 194.574219 118.882812 194.683594 C 119.023438 194.792969 119.035156 195.019531 118.90625 195.191406 C 118.765625 195.371094 118.527344 195.117188 118.320312 194.570312 Z M 242.519531 148.558594 C 242.113281 148.203125 241.785156 148.183594 241.359375 148.492188 C 240.78125 148.90625 240.777344 148.898438 241.230469 148.328125 C 241.488281 148 241.738281 147.628906 241.785156 147.5 C 242 146.910156 243.347656 145.164062 243.679688 145.039062 C 244.082031 144.890625 243.535156 146.058594 242.789062 146.949219 C 242.085938 147.789062 242.269531 148.324219 243.152344 147.996094 C 243.582031 147.835938 243.84375 147.5625 243.734375 147.390625 C 243.621094 147.21875 243.675781 146.953125 243.855469 146.796875 C 244.417969 146.320312 244.558594 147.402344 244.03125 148.164062 C 243.382812 149.105469 243.199219 149.15625 242.519531 148.558594 Z M 155.066406 180.5 C 154.902344 180.371094 154.910156 180.210938 155.089844 180.148438 C 155.265625 180.082031 155.460938 180.164062 155.523438 180.328125 C 155.585938 180.496094 155.578125 180.65625 155.503906 180.683594 C 155.429688 180.710938 155.234375 180.628906 155.066406 180.5 Z M 252.386719 139.148438 C 252.386719 138.894531 252.429688 138.671875 252.476562 138.652344 C 252.523438 138.636719 252.703125 138.777344 252.871094 138.964844 C 253.039062 139.15625 252.996094 139.378906 252.777344 139.460938 C 252.5625 139.542969 252.382812 139.402344 252.386719 139.148438 Z M 146.671875 177.183594 C 146.859375 177.015625 147.125 176.929688 147.261719 176.992188 C 147.402344 177.054688 147.25 177.191406 146.921875 177.296875 C 146.566406 177.414062 146.464844 177.371094 146.671875 177.183594 Z M 143.398438 175.886719 C 142.089844 175.238281 141.117188 174.582031 141.234375 174.425781 C 141.355469 174.273438 141.609375 174.320312 141.796875 174.535156 C 141.988281 174.75 142.285156 174.796875 142.460938 174.644531 C 142.636719 174.488281 143.417969 174.742188 144.195312 175.203125 C 144.972656 175.664062 145.917969 176.027344 146.296875 176.007812 C 146.675781 175.988281 146.953125 176.128906 146.914062 176.320312 C 146.753906 177.128906 145.628906 176.988281 143.398438 175.886719 Z M 138.109375 174.371094 C 137.652344 174.363281 137.308594 174.28125 137.351562 174.191406 C 137.488281 173.894531 139.214844 173.71875 139.316406 173.992188 C 139.4375 174.320312 139.191406 174.398438 138.109375 174.371094 Z M 211.671875 146.96875 C 211.714844 146.765625 211.804688 146.574219 211.878906 146.546875 C 211.953125 146.519531 212.066406 146.632812 212.128906 146.800781 C 212.191406 146.964844 212.097656 147.15625 211.917969 147.222656 C 211.742188 147.289062 211.632812 147.175781 211.671875 146.96875 Z M 129.023438 177.445312 C 129.066406 177.238281 129.304688 176.996094 129.554688 176.902344 C 129.804688 176.808594 129.976562 176.902344 129.933594 177.105469 C 129.894531 177.3125 129.65625 177.554688 129.40625 177.648438 C 129.15625 177.742188 128.984375 177.648438 129.023438 177.445312 Z M 214.128906 143.835938 C 214.097656 143.75 214.289062 143.433594 214.558594 143.132812 C 214.824219 142.828125 215.070312 142.648438 215.101562 142.734375 C 215.132812 142.816406 214.9375 143.132812 214.671875 143.433594 C 214.40625 143.738281 214.160156 143.917969 214.128906 143.835938 Z M 249.5 121.476562 C 249.542969 121.269531 249.703125 121.054688 249.859375 120.996094 C 250.015625 120.9375 250.195312 121.027344 250.257812 121.191406 C 250.320312 121.359375 250.160156 121.574219 249.898438 121.671875 C 249.640625 121.769531 249.460938 121.679688 249.5 121.476562 Z M 249.5 121.476562 " fill-opacity="1" fill-rule="nonzero"/></g></svg>