<svg xmlns="http://www.w3.org/2000/svg" xmlns:xlink="http://www.w3.org/1999/xlink" width="500" zoomAndPan="magnify" viewBox="0 0 375 374.999991" height="500" preserveAspectRatio="xMidYMid meet" version="1.0"><defs><clipPath id="c3f18046c2"><path d="M 206.402344 214 L 207.851562 214 L 207.851562 215.199219 L 206.402344 215.199219 Z M 206.402344 214 " clip-rule="nonzero"/></clipPath><clipPath id="6080ec2d97"><path d="M 207.824219 214.425781 C 207.226562 215.398438 206.625 215.25 206.476562 215.023438 C 206.324219 214.800781 206.476562 214.199219 206.625 214.050781 C 206.851562 213.898438 207.675781 214.125 207.675781 214.125 " clip-rule="nonzero"/></clipPath><clipPath id="64dedf170b"><path d="M 239.703125 131.550781 L 258.929688 131.550781 L 258.929688 150 L 239.703125 150 Z M 239.703125 131.550781 " clip-rule="nonzero"/></clipPath><clipPath id="7f1fb7c006"><path d="M 116.0625 125.347656 L 256.542969 125.347656 L 256.542969 262.316406 L 116.0625 262.316406 Z M 116.0625 125.347656 " clip-rule="nonzero"/></clipPath><clipPath id="8e094115f4"><path d="M 256.53125 248.851562 L 257.953125 248.851562 L 257.953125 250.074219 L 256.53125 250.074219 Z M 256.53125 248.851562 " clip-rule="nonzero"/></clipPath><clipPath id="e748918870"><path d="M 257.925781 249.300781 C 257.324219 250.273438 256.726562 250.125 256.574219 249.898438 C 256.5 249.675781 256.574219 249.074219 256.800781 248.925781 C 256.949219 248.773438 257.773438 249 257.773438 249 " clip-rule="nonzero"/></clipPath></defs><g clip-path="url(#c3f18046c2)"><g clip-path="url(#6080ec2d97)"><path fill="#ffffff" d="M 203.476562 211.050781 L 210.890625 211.050781 L 210.890625 218.324219 L 203.476562 218.324219 Z M 203.476562 211.050781 " fill-opacity="1" fill-rule="nonzero"/></g></g><path fill="#ff0000" d="M 129.644531 118.210938 C 129.746094 118.375 129.835938 118.542969 129.933594 118.703125 C 129.625 118.507812 129.257812 118.132812 128.867188 117.675781 C 132.140625 122.597656 137.945312 127.617188 142.164062 130.390625 C 143.378906 131.6875 144.714844 132.597656 145.148438 132.410156 C 145.582031 132.21875 144.949219 131.007812 143.726562 129.695312 C 143.488281 129.375 143.191406 129.019531 143.046875 128.765625 C 141.75 126.449219 139.90625 123.886719 137.75 121.167969 C 138.121094 121.734375 138.511719 122.324219 138.882812 122.886719 C 138.265625 122.101562 137.65625 121.320312 136.886719 120.519531 C 136.910156 120.660156 136.957031 120.820312 136.980469 120.964844 C 135.007812 118.097656 131.578125 114.875 129.320312 113.765625 C 127.054688 112.652344 126.8125 114.058594 128.78125 116.925781 L 129.644531 118.210938 " fill-opacity="1" fill-rule="nonzero"/><path fill="#ff0000" d="M 132.269531 124.589844 C 131.046875 122.914062 129.894531 121.285156 128.742188 119.648438 L 128.578125 119.261719 L 128.183594 119.832031 L 128.242188 119.828125 C 129.941406 120.757812 132.234375 122.777344 134.308594 124.675781 L 135.078125 125.324219 C 135.476562 125.609375 135.792969 125.746094 135.964844 125.714844 C 136.363281 125.65625 135.972656 124.8125 135.101562 123.839844 L 134.089844 122.71875 C 131.808594 119.8125 127.789062 115.660156 125.535156 114.996094 C 125.019531 114.851562 125.0625 115.378906 124.910156 115.664062 C 124.488281 115.878906 125.167969 117.144531 126.429688 118.480469 C 127.6875 119.816406 129.03125 120.710938 129.445312 120.484375 C 129.636719 120.730469 129.839844 120.984375 130.03125 121.226562 C 129.824219 121.089844 129.613281 120.949219 129.402344 120.8125 C 130.046875 120.90625 131.277344 122.046875 132.296875 122.792969 L 133.675781 124.054688 L 133.695312 122.5625 L 132.917969 121.964844 C 132.9375 122.050781 132.988281 122.195312 132.976562 122.191406 C 131.480469 121.066406 130.0625 120.019531 128.515625 118.699219 L 126.464844 117.144531 C 125.839844 116.789062 125.671875 117.042969 126.066406 117.710938 L 126.691406 118.679688 C 126.609375 118.523438 126.515625 118.375 126.433594 118.222656 C 128.078125 120.253906 129.894531 122.320312 131.515625 124.34375 C 131.761719 124.667969 132.140625 124.992188 132.363281 125.074219 C 132.566406 125.132812 132.53125 124.921875 132.269531 124.589844 " fill-opacity="1" fill-rule="nonzero"/><path fill="#ff0000" d="M 125.753906 118.097656 C 125.515625 117.738281 125.292969 117.390625 124.859375 116.96875 C 124.726562 116.902344 124.65625 116.863281 124.621094 116.84375 C 124.742188 117.039062 124.902344 117.300781 125.066406 117.5625 C 125.386719 118.078125 125.671875 118.226562 125.753906 118.097656 " fill-opacity="1" fill-rule="nonzero"/><path fill="#ff0000" d="M 124.621094 116.84375 C 124.507812 116.664062 124.4375 116.546875 124.4375 116.546875 C 124.464844 116.628906 124.496094 116.703125 124.523438 116.78125 C 124.574219 116.824219 124.578125 116.824219 124.578125 116.824219 C 124.578125 116.824219 124.578125 116.824219 124.621094 116.84375 " fill-opacity="1" fill-rule="nonzero"/><path fill="#ff0000" d="M 205.417969 197.03125 C 210.882812 202.964844 216.425781 208.867188 221.992188 214.742188 C 222.175781 214.9375 222.371094 215.070312 222.429688 215.03125 C 222.476562 215 222.375 214.808594 222.199219 214.628906 C 216.632812 208.746094 211.125 202.871094 205.660156 196.941406 C 205.472656 196.742188 205.285156 196.617188 205.210938 196.632812 C 205.15625 196.667969 205.25 196.84375 205.417969 197.03125 " fill-opacity="1" fill-rule="nonzero"/><path fill="#ff0000" d="M 242.90625 244.828125 C 242.738281 244.726562 242.695312 244.777344 242.800781 244.953125 C 242.890625 245.105469 243.097656 245.328125 243.265625 245.429688 C 243.410156 245.515625 243.460938 245.453125 243.371094 245.304688 C 243.269531 245.128906 243.046875 244.914062 242.90625 244.828125 " fill-opacity="1" fill-rule="nonzero"/><path fill="#ff0000" d="M 122.429688 128.53125 L 124.175781 128.417969 L 122.398438 128.417969 Z M 126.578125 121.601562 C 126.507812 121.425781 126.464844 121.320312 126.390625 121.203125 C 126.574219 121.597656 126.578125 121.601562 126.578125 121.601562 Z M 124.78125 119.277344 C 124.847656 119.359375 124.910156 119.441406 124.976562 119.53125 C 124.828125 119.515625 124.78125 119.417969 124.78125 119.277344 Z M 125.5625 119.429688 C 125.535156 119.371094 125.507812 119.316406 125.472656 119.25 C 125.472656 119.25 125.472656 119.25 125.953125 119.363281 C 125.953125 119.363281 125.785156 119.390625 125.5625 119.429688 Z M 136.863281 130.066406 C 137.488281 131.082031 137.886719 131.953125 138.242188 132.796875 C 138.816406 133.304688 139.390625 133.859375 139.941406 134.445312 C 141.433594 136.027344 142.859375 137.585938 144.242188 139.144531 C 144.183594 138.828125 144.515625 139.199219 144.707031 139.367188 C 144.902344 139.542969 145.09375 139.722656 145.285156 139.898438 C 143.828125 138.21875 142.371094 136.527344 140.898438 134.796875 C 139.570312 133.242188 138.078125 131.597656 136.863281 130.066406 Z M 191.566406 185.328125 C 188.5 182.164062 185.539062 178.957031 182.726562 175.613281 C 183.488281 176.359375 184.246094 177.097656 185.011719 177.839844 C 187.207031 180.3125 189.390625 182.804688 191.566406 185.328125 Z M 131.222656 129.65625 C 131.226562 129.660156 131.226562 129.660156 131.230469 129.664062 C 131.109375 129.300781 131.019531 129.042969 131.019531 129.042969 C 131.105469 129.292969 131.167969 129.492188 131.222656 129.65625 Z M 141.507812 137.5625 C 141.472656 137.484375 141.441406 137.421875 141.417969 137.363281 C 141.542969 137.550781 141.683594 137.753906 141.835938 137.976562 C 141.835938 137.976562 141.835938 137.976562 142.191406 139.058594 C 142.191406 139.058594 141.84375 138.3125 141.507812 137.5625 Z M 238.03125 247.15625 C 237.175781 246.414062 236.347656 245.71875 235.554688 245.15625 C 235.410156 245.046875 235.277344 244.898438 235.1875 244.773438 C 235.160156 244.894531 234.9375 244.804688 234.625 244.542969 C 228.390625 239.398438 222.109375 233.449219 215.839844 227.679688 C 215.742188 227.699219 215.601562 227.675781 215.414062 227.59375 C 214.816406 227.355469 213.890625 226.605469 213.070312 225.691406 L 212.472656 224.984375 C 209.972656 222.199219 207.457031 219.445312 204.980469 216.667969 C 204.363281 216.207031 203.691406 215.628906 203.003906 214.960938 C 200.527344 212.886719 198.054688 210.789062 195.585938 208.597656 C 195.679688 208.796875 195.703125 208.945312 195.632812 209.011719 C 195.425781 209.125 194.773438 208.695312 194.160156 208.050781 C 193.839844 207.730469 193.523438 207.414062 193.207031 207.097656 C 194.070312 208.058594 194.929688 209.023438 195.78125 209.988281 C 195.90625 210.125 196.015625 210.257812 196.109375 210.382812 C 197.089844 211.402344 198.089844 212.421875 199.117188 213.449219 C 208.105469 222.386719 217.039062 230.328125 226 238.109375 C 226.160156 238.222656 226.367188 238.445312 226.449219 238.605469 C 226.492188 238.726562 226.421875 238.765625 226.25 238.628906 C 220.234375 234.082031 214.664062 230.503906 208.25 224.988281 C 200.609375 218.421875 193.164062 211.847656 185.578125 204.882812 C 178.078125 197.179688 170.746094 190.4375 162.808594 182.859375 C 152.078125 172.636719 142.25 162.675781 132.101562 152.332031 C 128.183594 148.566406 125.390625 144.34375 125.855469 142.910156 C 126.148438 142.050781 127.554688 142.398438 129.484375 143.632812 C 129.175781 143.3125 128.875 142.996094 128.574219 142.671875 L 127.222656 141.054688 C 125.953125 139.523438 125.007812 138.078125 124.589844 136.996094 L 123.964844 135.550781 C 123.363281 133.40625 121.792969 130.515625 121.476562 128.589844 L 122.027344 128.554688 L 121.851562 128.199219 C 121.199219 127.089844 120.902344 126.207031 121.007812 125.699219 L 121.453125 125.429688 C 122.054688 125.214844 122.882812 125.277344 123.949219 125.640625 C 124.078125 125.464844 124.316406 125.402344 124.636719 125.449219 C 124.414062 124.472656 124.523438 123.800781 125.425781 123.867188 C 125.175781 123.394531 125.394531 123.300781 125.914062 123.648438 C 126.09375 123.773438 126.289062 123.9375 126.476562 124.117188 C 126.476562 124.113281 126.472656 124.109375 126.472656 124.109375 C 126.371094 123.816406 126.339844 123.726562 126.179688 123.351562 C 125.855469 122.953125 125.671875 122.71875 125.671875 122.71875 C 124.789062 121.683594 124.789062 121.683594 124.027344 120.777344 C 123.449219 119.925781 123.1875 119.300781 123.1875 119.300781 C 123.054688 117.863281 123.054688 117.863281 123.457031 117.714844 C 123.53125 117.734375 123.609375 117.761719 123.691406 117.792969 C 123.15625 117.058594 123.121094 117.007812 122.980469 116.804688 C 122.855469 116.574219 122.789062 116.390625 122.789062 116.390625 C 122.914062 116.21875 122.914062 116.21875 122.859375 116.054688 C 122.882812 115.960938 122.949219 115.914062 122.949219 115.914062 C 123.464844 116.109375 123.464844 116.109375 123.523438 116.074219 C 123.652344 116.117188 123.804688 116.199219 123.804688 116.199219 C 124.265625 116.566406 124.449219 116.71875 124.523438 116.78125 C 125.015625 118.0625 125.015625 118.066406 125.015625 118.066406 C 125.339844 118.132812 125.339844 118.132812 125.339844 118.132812 C 125.367188 118.515625 125.367188 118.515625 125.367188 118.515625 C 125.414062 118.238281 125.414062 118.238281 125.414062 118.238281 C 125.761719 118.792969 125.761719 118.792969 125.761719 118.792969 C 125.398438 118.128906 125.398438 118.128906 125.398438 118.128906 C 126.386719 119.269531 126.386719 119.269531 126.816406 119.695312 C 127.234375 120.164062 127.648438 120.511719 127.695312 120.554688 C 127.710938 120.464844 127.746094 120.429688 127.746094 120.429688 C 128.808594 121.644531 128.808594 121.644531 129.832031 122.839844 C 129.898438 122.980469 129.941406 123.097656 129.980469 123.210938 C 130.132812 123.273438 130.367188 123.464844 130.574219 123.699219 C 130.757812 123.90625 130.9375 124.113281 131.117188 124.320312 C 131.167969 124.355469 131.21875 124.390625 131.265625 124.421875 C 131.273438 124.414062 131.273438 124.410156 131.273438 124.410156 C 131.503906 124.578125 131.660156 124.699219 131.839844 124.835938 C 131.953125 124.914062 131.957031 124.917969 131.957031 124.917969 C 131.957031 124.917969 131.960938 124.925781 131.960938 124.925781 C 132.351562 125.21875 132.910156 125.640625 134.398438 126.757812 C 134.71875 127.128906 135.007812 127.480469 135.277344 127.816406 C 135.203125 127.695312 135.136719 127.578125 135.074219 127.457031 C 134.945312 127.222656 135.253906 127.25 135.171875 127.136719 C 133.074219 124.371094 130.582031 121.558594 128.164062 118.75 C 127.683594 118.289062 127.335938 117.761719 127.386719 117.578125 C 127.445312 117.398438 127.882812 117.632812 128.371094 118.105469 C 134.382812 122.71875 140.699219 129.417969 145.453125 135.542969 C 146.792969 137.066406 148.152344 138.59375 149.515625 140.117188 C 149.472656 140.023438 149.425781 139.929688 149.386719 139.835938 C 149.714844 140.253906 150.050781 140.667969 150.382812 141.082031 C 150.417969 141.125 150.457031 141.167969 150.496094 141.210938 C 150.304688 140.835938 150.113281 140.460938 149.921875 140.09375 C 149.757812 139.867188 149.589844 139.644531 149.417969 139.421875 C 146.21875 135.917969 143.625 132.433594 140.691406 128.898438 C 139.117188 126.996094 137.890625 125.234375 136.453125 123.382812 C 136.050781 122.9375 135.855469 122.550781 136.011719 122.496094 C 136.164062 122.445312 136.628906 122.773438 137.023438 123.207031 C 142.628906 128.59375 148.644531 135.109375 152.082031 140.441406 C 153.066406 141.464844 153.949219 142.515625 154.574219 143.484375 C 154.589844 143.5 154.605469 143.519531 154.617188 143.535156 C 154.484375 143.246094 154.363281 142.976562 154.226562 142.691406 C 154.910156 143.507812 155.125 144.085938 155.722656 144.855469 C 155.746094 144.679688 155.75 144.484375 155.773438 144.308594 C 159.234375 148.238281 163.269531 152.207031 166.214844 156.101562 C 166.34375 156.246094 166.460938 156.386719 166.578125 156.527344 C 168.242188 157.816406 169.917969 159.128906 171.671875 160.878906 C 171.121094 160.242188 170.578125 159.628906 170.027344 158.996094 C 171.410156 160.15625 172.742188 161.347656 174.066406 162.738281 C 177.671875 166.496094 181.269531 171.117188 182.402344 173.855469 C 189.535156 180.988281 196.65625 188.152344 203.867188 195.175781 C 204.246094 195.535156 204.507812 195.929688 204.480469 196.082031 C 204.429688 196.207031 204.105469 196.042969 203.730469 195.683594 C 198.386719 190.816406 193.113281 185.730469 187.851562 180.609375 C 191.976562 185.15625 196.128906 189.710938 200.480469 194.246094 C 201.050781 194.804688 201.628906 195.371094 202.203125 195.9375 C 202.773438 196.496094 203.300781 197.085938 203.816406 197.6875 C 209.410156 203.441406 214.679688 208.945312 220.617188 214.597656 C 225.6875 219.417969 230.164062 223.605469 235.300781 228.324219 C 242.515625 234.949219 249.128906 240.949219 255.875 247.871094 C 256.800781 248.765625 257.464844 249.78125 257.34375 250.109375 C 257.222656 250.441406 256.363281 249.980469 255.4375 249.082031 C 240.667969 235.328125 226.003906 221.980469 211.410156 206.777344 C 209.835938 205.132812 208.289062 203.519531 206.753906 201.910156 C 206.746094 201.960938 206.730469 202.011719 206.699219 202.042969 C 206.578125 202.164062 206.316406 202.121094 205.96875 201.960938 C 207.703125 203.800781 209.429688 205.671875 211.144531 207.566406 C 216.363281 212.402344 221.585938 217.242188 226.738281 222.800781 C 230.269531 226.621094 233.285156 230.253906 236.394531 233.941406 C 240.785156 238.171875 245.207031 242.347656 249.625 246.640625 C 249.8125 246.800781 249.964844 247.007812 249.984375 247.113281 C 250 247.222656 249.863281 247.167969 249.675781 247.007812 C 246.4375 244.25 243.199219 241.347656 239.953125 238.398438 C 240.292969 239.03125 240.398438 239.503906 240.15625 239.660156 C 239.910156 239.828125 239.347656 239.625 238.644531 239.167969 C 239.332031 239.882812 240.019531 240.597656 240.707031 241.316406 C 241.128906 241.761719 241.382812 242.1875 241.265625 242.273438 C 241.144531 242.375 240.722656 242.105469 240.320312 241.683594 C 237.503906 238.773438 234.703125 235.859375 231.902344 232.949219 C 228.398438 229.585938 224.929688 226.21875 221.453125 222.816406 C 221.785156 223.433594 221.960938 223.957031 221.933594 224.308594 C 221.933594 224.3125 221.933594 224.3125 221.933594 224.316406 C 222.460938 224.851562 222.992188 225.382812 223.519531 225.910156 C 233.683594 235.179688 243.8125 244.933594 253.585938 255.195312 C 253.78125 255.394531 253.902344 255.597656 253.855469 255.648438 C 253.8125 255.699219 253.621094 255.585938 253.449219 255.402344 C 250.5 252.300781 247.519531 249.25 244.511719 246.242188 C 244.519531 246.25 244.519531 246.25 244.523438 246.257812 C 244.613281 246.410156 244.582031 246.484375 244.417969 246.382812 C 244.273438 246.296875 244.039062 246.054688 243.949219 245.910156 C 243.84375 245.734375 243.910156 245.695312 244.054688 245.78125 C 238.445312 240.183594 232.753906 234.742188 227.046875 229.46875 C 232.128906 234.585938 237.191406 239.726562 242.125 244.976562 C 242.734375 245.484375 243.339844 245.984375 243.953125 246.5 C 244.117188 246.644531 244.285156 246.875 244.304688 246.980469 C 244.304688 247.0625 244.144531 246.996094 243.980469 246.847656 C 243.808594 246.703125 243.640625 246.5625 243.472656 246.417969 C 244.40625 247.414062 244.9375 248.363281 244.675781 248.589844 C 244.367188 248.785156 243.351562 248.136719 242.375 247.109375 C 239.679688 244.441406 237.015625 241.757812 234.367188 239.0625 C 234.066406 238.78125 233.761719 238.503906 233.464844 238.226562 C 233.136719 237.96875 232.8125 237.714844 232.484375 237.460938 C 236.488281 241.765625 240.460938 246.085938 244.402344 250.390625 C 244.753906 250.75 244.980469 251.125 244.898438 251.21875 C 244.816406 251.3125 244.460938 251.097656 244.109375 250.738281 C 236.582031 243.722656 229.078125 236.503906 221.625 229.171875 C 218.851562 227.085938 216.0625 225 213.238281 222.859375 C 213.539062 223.183594 213.84375 223.507812 214.15625 223.828125 C 222.082031 231.964844 229.898438 237.8125 237.796875 245.472656 C 238 245.660156 238.121094 245.859375 238.101562 245.929688 C 238.082031 245.992188 237.902344 245.902344 237.707031 245.703125 C 233.816406 242.003906 230.023438 238.855469 226.046875 235.296875 C 222.75 232.347656 219.621094 229.535156 216.472656 226.878906 C 222.425781 232.785156 228.507812 238.085938 234.511719 243.828125 C 234.785156 244.066406 235.019531 244.347656 235.132812 244.558594 C 235.171875 244.550781 235.246094 244.582031 235.339844 244.644531 C 236.183594 245.269531 237.0625 245.996094 237.941406 246.753906 C 238.117188 246.890625 238.292969 247.109375 238.328125 247.238281 C 238.367188 247.359375 238.230469 247.308594 238.03125 247.15625 " fill-opacity="1" fill-rule="nonzero"/><g clip-path="url(#64dedf170b)"><path fill="#ff0000" d="M 254.089844 134.035156 C 253.921875 134.136719 253.753906 134.230469 253.59375 134.324219 C 253.789062 134.015625 254.164062 133.644531 254.625 133.257812 C 249.6875 136.546875 244.640625 142.375 241.855469 146.609375 C 240.550781 147.832031 239.636719 149.167969 239.824219 149.605469 C 240.015625 150.039062 241.230469 149.398438 242.546875 148.171875 C 242.867188 147.933594 243.226562 147.636719 243.484375 147.488281 C 245.804688 146.1875 248.378906 144.328125 251.105469 142.164062 C 250.539062 142.535156 249.945312 142.929688 249.378906 143.304688 C 250.171875 142.683594 250.957031 142.074219 251.757812 141.296875 C 251.621094 141.324219 251.453125 141.371094 251.316406 141.394531 C 254.191406 139.410156 257.425781 135.964844 258.546875 133.699219 C 259.667969 131.429688 258.257812 131.1875 255.378906 133.167969 L 254.089844 134.035156 " fill-opacity="1" fill-rule="nonzero"/></g><path fill="#ff0000" d="M 247.691406 136.679688 C 249.371094 135.449219 251.007812 134.292969 252.648438 133.136719 L 253.035156 132.96875 L 252.464844 132.574219 L 252.46875 132.632812 C 251.535156 134.335938 249.503906 136.640625 247.597656 138.722656 L 246.945312 139.496094 C 246.660156 139.894531 246.523438 140.214844 246.550781 140.386719 C 246.613281 140.785156 247.457031 140.390625 248.4375 139.515625 L 249.5625 138.5 C 252.476562 136.207031 256.648438 132.167969 257.316406 129.90625 C 257.464844 129.394531 256.9375 129.433594 256.648438 129.28125 C 256.4375 128.863281 255.167969 129.546875 253.824219 130.8125 C 252.480469 132.078125 251.582031 133.425781 251.808594 133.835938 C 251.5625 134.035156 251.308594 134.234375 251.066406 134.429688 C 251.199219 134.21875 251.34375 134.011719 251.484375 133.796875 C 251.382812 134.441406 250.238281 135.679688 249.488281 136.699219 L 248.226562 138.085938 L 249.71875 138.101562 L 250.320312 137.324219 C 250.234375 137.34375 250.085938 137.394531 250.09375 137.382812 C 251.222656 135.878906 252.273438 134.457031 253.601562 132.90625 L 255.164062 130.84375 C 255.523438 130.21875 255.265625 130.050781 254.59375 130.449219 L 253.625 131.078125 C 253.78125 130.992188 253.929688 130.902344 254.085938 130.816406 C 252.042969 132.46875 249.96875 134.296875 247.9375 135.921875 C 247.609375 136.171875 247.285156 136.550781 247.203125 136.777344 C 247.144531 136.976562 247.355469 136.941406 247.691406 136.679688 " fill-opacity="1" fill-rule="nonzero"/><path fill="#ff0000" d="M 254.210938 130.136719 C 254.570312 129.894531 254.921875 129.671875 255.339844 129.238281 C 255.414062 129.101562 255.449219 129.03125 255.46875 128.996094 C 255.273438 129.117188 255.007812 129.28125 254.746094 129.445312 C 254.230469 129.769531 254.082031 130.054688 254.210938 130.136719 " fill-opacity="1" fill-rule="nonzero"/><path fill="#ff0000" d="M 255.46875 128.996094 C 255.648438 128.886719 255.765625 128.8125 255.765625 128.8125 C 255.6875 128.839844 255.609375 128.871094 255.535156 128.902344 C 255.488281 128.953125 255.488281 128.953125 255.488281 128.953125 C 255.488281 128.953125 255.488281 128.957031 255.46875 128.996094 " fill-opacity="1" fill-rule="nonzero"/><path fill="#ff0000" d="M 174.925781 210.148438 C 168.96875 215.640625 163.039062 221.203125 157.140625 226.796875 C 156.945312 226.984375 156.8125 227.179688 156.847656 227.234375 C 156.878906 227.285156 157.070312 227.179688 157.253906 227.003906 C 163.160156 221.414062 169.0625 215.878906 175.019531 210.390625 C 175.214844 210.203125 175.34375 210.011719 175.328125 209.941406 C 175.289062 209.886719 175.113281 209.976562 174.925781 210.148438 " fill-opacity="1" fill-rule="nonzero"/><path fill="#ff0000" d="M 126.941406 247.824219 C 127.042969 247.65625 126.992188 247.613281 126.816406 247.71875 C 126.664062 247.808594 126.441406 248.019531 126.339844 248.1875 C 126.25 248.332031 126.3125 248.382812 126.464844 248.292969 C 126.640625 248.1875 126.855469 247.96875 126.941406 247.824219 " fill-opacity="1" fill-rule="nonzero"/><g clip-path="url(#7f1fb7c006)"><path fill="#ff0000" d="M 243.761719 126.828125 L 243.867188 128.574219 L 243.871094 126.792969 Z M 250.695312 130.96875 C 250.871094 130.898438 250.976562 130.855469 251.09375 130.78125 C 250.699219 130.96875 250.695312 130.96875 250.695312 130.96875 Z M 253.03125 129.164062 C 252.949219 129.226562 252.863281 129.289062 252.777344 129.359375 C 252.789062 129.207031 252.886719 129.164062 253.03125 129.164062 Z M 252.871094 129.945312 C 252.933594 129.917969 252.988281 129.890625 253.054688 129.859375 C 253.054688 129.859375 253.054688 129.859375 252.941406 130.339844 C 252.941406 130.339844 252.917969 130.167969 252.871094 129.945312 Z M 242.191406 141.296875 C 241.171875 141.921875 240.296875 142.324219 239.449219 142.683594 C 238.941406 143.261719 238.382812 143.835938 237.792969 144.390625 C 236.207031 145.886719 234.640625 147.320312 233.074219 148.710938 C 233.394531 148.652344 233.019531 148.984375 232.851562 149.179688 C 232.675781 149.375 232.496094 149.566406 232.320312 149.757812 C 234.003906 148.292969 235.703125 146.832031 237.4375 145.351562 C 239 144.015625 240.652344 142.515625 242.191406 141.296875 Z M 186.683594 196.242188 C 189.863281 193.160156 193.085938 190.183594 196.441406 187.359375 C 195.695312 188.125 194.949219 188.886719 194.203125 189.652344 C 191.722656 191.859375 189.21875 194.054688 186.683594 196.242188 Z M 242.613281 135.644531 C 242.609375 135.644531 242.609375 135.644531 242.605469 135.648438 C 242.96875 135.527344 243.230469 135.4375 243.230469 135.4375 C 242.976562 135.523438 242.777344 135.585938 242.613281 135.644531 Z M 234.667969 145.96875 C 234.746094 145.929688 234.808594 145.902344 234.867188 145.875 C 234.679688 146.003906 234.476562 146.140625 234.25 146.296875 C 234.25 146.296875 234.25 146.296875 233.164062 146.652344 C 233.164062 146.652344 233.914062 146.308594 234.667969 145.96875 Z M 124.621094 242.945312 C 125.367188 242.085938 126.0625 241.253906 126.628906 240.457031 C 126.738281 240.3125 126.886719 240.175781 127.015625 240.089844 C 126.894531 240.0625 126.980469 239.839844 127.242188 239.523438 C 132.414062 233.265625 138.390625 226.960938 144.1875 220.664062 C 144.167969 220.5625 144.191406 220.421875 144.273438 220.234375 C 144.515625 219.632812 145.269531 218.707031 146.183594 217.878906 L 146.898438 217.277344 C 149.691406 214.769531 152.457031 212.242188 155.246094 209.753906 C 155.710938 209.136719 156.289062 208.460938 156.964844 207.769531 C 159.050781 205.285156 161.152344 202.800781 163.359375 200.320312 C 163.15625 200.414062 163.007812 200.441406 162.941406 200.371094 C 162.828125 200.164062 163.261719 199.507812 163.910156 198.890625 C 164.226562 198.570312 164.546875 198.253906 164.867188 197.9375 C 163.902344 198.800781 162.933594 199.664062 161.960938 200.519531 C 161.824219 200.644531 161.691406 200.753906 161.566406 200.851562 C 160.542969 201.835938 159.515625 202.839844 158.488281 203.871094 C 149.503906 212.898438 141.53125 221.871094 133.710938 230.867188 C 133.597656 231.027344 133.375 231.238281 133.210938 231.320312 C 133.089844 231.359375 133.054688 231.292969 133.191406 231.121094 C 137.761719 225.082031 141.355469 219.492188 146.902344 213.050781 C 153.496094 205.378906 160.101562 197.902344 167.097656 190.285156 C 174.835938 182.75 181.613281 175.386719 189.21875 167.414062 C 199.492188 156.636719 209.496094 146.765625 219.886719 136.574219 C 223.664062 132.636719 227.90625 129.832031 229.339844 130.289062 C 230.199219 130.585938 229.851562 131.992188 228.609375 133.933594 C 228.929688 133.625 229.25 133.320312 229.574219 133.015625 L 231.195312 131.660156 C 232.734375 130.382812 234.1875 129.433594 235.269531 129.007812 L 236.722656 128.382812 C 238.871094 127.773438 241.773438 126.195312 243.703125 125.871094 L 243.734375 126.425781 L 244.09375 126.246094 C 245.207031 125.59375 246.09375 125.289062 246.601562 125.394531 L 246.867188 125.84375 C 247.085938 126.441406 247.019531 127.273438 246.65625 128.34375 C 246.832031 128.472656 246.890625 128.707031 246.84375 129.035156 C 247.824219 128.808594 248.496094 128.917969 248.425781 129.820312 C 248.902344 129.570312 248.996094 129.785156 248.644531 130.308594 C 248.519531 130.488281 248.355469 130.683594 248.175781 130.871094 C 248.179688 130.871094 248.179688 130.871094 248.179688 130.871094 C 248.476562 130.765625 248.566406 130.734375 248.941406 130.574219 C 249.339844 130.246094 249.578125 130.066406 249.578125 130.066406 C 250.621094 129.175781 250.621094 129.175781 251.527344 128.410156 C 252.382812 127.828125 253.007812 127.566406 253.007812 127.566406 C 254.449219 127.433594 254.449219 127.433594 254.597656 127.835938 C 254.578125 127.90625 254.550781 127.988281 254.519531 128.066406 C 255.257812 127.53125 255.308594 127.492188 255.511719 127.351562 C 255.742188 127.226562 255.925781 127.164062 255.925781 127.164062 C 256.097656 127.285156 256.097656 127.285156 256.265625 127.230469 C 256.359375 127.257812 256.402344 127.320312 256.402344 127.320312 C 256.207031 127.835938 256.207031 127.835938 256.242188 127.898438 C 256.199219 128.023438 256.117188 128.175781 256.117188 128.175781 C 255.746094 128.640625 255.597656 128.824219 255.535156 128.902344 C 254.246094 129.394531 254.242188 129.394531 254.242188 129.394531 C 254.175781 129.722656 254.175781 129.722656 254.175781 129.722656 C 253.789062 129.75 253.789062 129.75 253.789062 129.75 C 254.070312 129.796875 254.070312 129.796875 254.070312 129.796875 C 253.511719 130.144531 253.511719 130.144531 253.511719 130.144531 C 254.179688 129.777344 254.179688 129.777344 254.179688 129.777344 C 253.035156 130.773438 253.035156 130.773438 252.605469 131.203125 C 252.136719 131.625 251.785156 132.039062 251.742188 132.085938 C 251.832031 132.101562 251.867188 132.136719 251.867188 132.136719 C 250.648438 133.203125 250.648438 133.203125 249.445312 134.234375 C 249.308594 134.300781 249.1875 134.34375 249.078125 134.382812 C 249.011719 134.535156 248.820312 134.773438 248.585938 134.976562 C 248.378906 135.160156 248.167969 135.34375 247.964844 135.527344 C 247.925781 135.578125 247.890625 135.625 247.859375 135.671875 C 247.863281 135.679688 247.871094 135.683594 247.871094 135.683594 C 247.699219 135.910156 247.582031 136.070312 247.445312 136.25 C 247.363281 136.363281 247.359375 136.367188 247.359375 136.367188 C 247.359375 136.367188 247.355469 136.371094 247.351562 136.371094 C 247.058594 136.761719 246.632812 137.324219 245.511719 138.816406 C 245.140625 139.140625 244.785156 139.429688 244.449219 139.699219 C 244.570312 139.628906 244.691406 139.558594 244.808594 139.496094 C 245.042969 139.367188 245.015625 139.675781 245.128906 139.59375 C 247.90625 137.484375 250.730469 134.980469 253.550781 132.554688 C 254.011719 132.070312 254.542969 131.71875 254.726562 131.769531 C 254.90625 131.828125 254.671875 132.269531 254.195312 132.757812 C 249.558594 138.792969 242.832031 145.140625 236.683594 149.917969 C 235.152344 151.261719 233.621094 152.628906 232.089844 154 C 232.183594 153.953125 232.277344 153.90625 232.371094 153.867188 C 231.953125 154.199219 231.535156 154.535156 231.121094 154.867188 C 231.078125 154.90625 231.035156 154.941406 230.992188 154.980469 C 231.367188 154.789062 231.742188 154.597656 232.113281 154.40625 C 232.339844 154.238281 232.5625 154.070312 232.789062 153.898438 C 236.308594 150.683594 239.804688 148.078125 243.351562 145.128906 C 245.265625 143.546875 247.03125 142.316406 248.890625 140.871094 C 249.335938 140.464844 249.726562 140.269531 249.78125 140.429688 C 249.828125 140.578125 249.5 141.042969 249.066406 141.441406 C 243.65625 147.070312 237.109375 153.113281 231.757812 156.570312 C 230.730469 157.558594 229.679688 158.445312 228.703125 159.074219 C 228.6875 159.089844 228.671875 159.101562 228.65625 159.117188 C 228.941406 158.980469 229.210938 158.863281 229.496094 158.726562 C 228.683594 159.414062 228.097656 159.628906 227.328125 160.230469 C 227.503906 160.253906 227.699219 160.257812 227.878906 160.28125 C 223.929688 163.757812 219.941406 167.808594 216.035156 170.769531 C 215.886719 170.898438 215.746094 171.015625 215.605469 171.132812 C 214.308594 172.804688 212.988281 174.484375 211.238281 176.246094 C 211.871094 175.695312 212.488281 175.148438 213.125 174.597656 C 211.957031 175.984375 210.761719 177.320312 209.363281 178.652344 C 205.59375 182.273438 200.949219 185.890625 198.203125 187.03125 C 191.039062 194.195312 183.84375 201.347656 176.792969 208.59375 C 176.429688 208.972656 176.03125 209.230469 175.878906 209.210938 C 175.757812 209.15625 175.917969 208.832031 176.28125 208.453125 C 181.171875 203.085938 186.28125 197.792969 191.425781 192.507812 C 186.859375 196.652344 182.285156 200.824219 177.730469 205.195312 C 177.167969 205.769531 176.601562 206.347656 176.03125 206.925781 C 175.472656 207.5 174.878906 208.027344 174.277344 208.546875 C 168.492188 214.164062 162.964844 219.457031 157.289062 225.417969 C 152.445312 230.515625 148.238281 235.007812 143.5 240.164062 C 136.84375 247.414062 130.816406 254.054688 123.863281 260.828125 C 122.964844 261.757812 121.949219 262.425781 121.617188 262.304688 C 121.285156 262.1875 121.75 261.324219 122.652344 260.390625 C 136.46875 245.558594 149.875 230.835938 165.148438 216.175781 C 166.796875 214.597656 168.417969 213.042969 170.03125 211.5 C 169.984375 211.488281 169.933594 211.476562 169.902344 211.445312 C 169.78125 211.320312 169.824219 211.058594 169.984375 210.714844 C 168.136719 212.453125 166.257812 214.1875 164.355469 215.914062 C 159.496094 221.152344 154.632812 226.394531 149.054688 231.570312 C 145.21875 235.117188 141.570312 238.148438 137.867188 241.273438 C 133.621094 245.6875 129.421875 250.125 125.109375 254.5625 C 124.949219 254.75 124.742188 254.90625 124.636719 254.925781 C 124.527344 254.941406 124.582031 254.804688 124.742188 254.613281 C 127.515625 251.367188 130.429688 248.113281 133.390625 244.851562 C 132.757812 245.195312 132.28125 245.296875 132.125 245.058594 C 131.960938 244.808594 132.164062 244.246094 132.625 243.542969 C 131.902344 244.230469 131.1875 244.925781 130.46875 245.613281 C 130.015625 246.035156 129.589844 246.292969 129.503906 246.175781 C 129.402344 246.054688 129.675781 245.632812 130.097656 245.226562 C 133.023438 242.398438 135.949219 239.585938 138.871094 236.769531 C 142.25 233.253906 145.632812 229.765625 149.046875 226.277344 C 148.429688 226.609375 147.90625 226.789062 147.550781 226.761719 C 147.550781 226.761719 147.546875 226.761719 147.546875 226.757812 C 147.007812 227.289062 146.476562 227.824219 145.941406 228.351562 C 136.632812 238.558594 126.835938 248.734375 116.527344 258.550781 C 116.328125 258.746094 116.125 258.867188 116.074219 258.824219 C 116.023438 258.777344 116.136719 258.585938 116.320312 258.417969 C 119.433594 255.453125 122.5 252.457031 125.519531 249.441406 C 125.515625 249.445312 125.511719 249.445312 125.503906 249.449219 C 125.355469 249.539062 125.277344 249.507812 125.382812 249.34375 C 125.46875 249.199219 125.707031 248.960938 125.855469 248.871094 C 126.03125 248.765625 126.070312 248.832031 125.984375 248.976562 C 131.609375 243.34375 137.070312 237.628906 142.371094 231.898438 C 137.230469 237.003906 132.066406 242.085938 126.792969 247.042969 C 126.285156 247.652344 125.78125 248.261719 125.265625 248.878906 C 125.121094 249.042969 124.886719 249.214844 124.78125 249.230469 C 124.699219 249.234375 124.765625 249.074219 124.914062 248.90625 C 125.0625 248.734375 125.203125 248.566406 125.347656 248.398438 C 124.347656 249.332031 123.394531 249.871094 123.167969 249.605469 C 122.972656 249.296875 123.625 248.28125 124.65625 247.296875 C 127.335938 244.589844 130.03125 241.914062 132.738281 239.253906 C 133.019531 238.953125 133.300781 238.648438 133.578125 238.347656 C 133.839844 238.019531 134.09375 237.691406 134.351562 237.363281 C 130.023438 241.386719 125.683594 245.378906 121.363281 249.335938 C 121.003906 249.691406 120.625 249.917969 120.53125 249.835938 C 120.4375 249.757812 120.65625 249.394531 121.015625 249.042969 C 128.0625 241.484375 135.316406 233.949219 142.679688 226.464844 C 144.773438 223.679688 146.871094 220.878906 149.023438 218.042969 C 148.699219 218.347656 148.375 218.65625 148.050781 218.96875 C 139.878906 226.929688 134 234.773438 126.308594 242.707031 C 126.121094 242.914062 125.917969 243.035156 125.847656 243.015625 C 125.785156 242.992188 125.875 242.816406 126.074219 242.617188 C 129.792969 238.707031 132.953125 234.902344 136.53125 230.90625 C 139.492188 227.597656 142.316406 224.457031 144.984375 221.292969 C 139.054688 227.273438 133.730469 233.378906 127.964844 239.410156 C 127.722656 239.6875 127.4375 239.921875 127.226562 240.035156 C 127.238281 240.074219 127.207031 240.148438 127.140625 240.242188 C 126.511719 241.089844 125.785156 241.972656 125.023438 242.855469 C 124.882812 243.03125 124.664062 243.207031 124.53125 243.242188 C 124.414062 243.28125 124.46875 243.144531 124.621094 242.945312 " fill-opacity="1" fill-rule="nonzero"/></g><g clip-path="url(#8e094115f4)"><g clip-path="url(#e748918870)"><path fill="#ffffff" d="M 253.574219 245.925781 L 260.992188 245.925781 L 260.992188 253.199219 L 253.574219 253.199219 Z M 253.574219 245.925781 " fill-opacity="1" fill-rule="nonzero"/></g></g></svg>